<?xml version="1.0" encoding="utf-8"?>
<!-- Generator: Adobe Illustrator 17.1.0, SVG Export Plug-In . SVG Version: 6.00 Build 0)  -->
<!DOCTYPE svg PUBLIC "-//W3C//DTD SVG 1.1//EN" "http://www.w3.org/Graphics/SVG/1.1/DTD/svg11.dtd">
<svg version="1.1" id="Capa_1" xmlns="http://www.w3.org/2000/svg" xmlns:xlink="http://www.w3.org/1999/xlink" x="0px" y="0px"
	 viewBox="0 0 407.9 124.1" enable-background="new 0 0 407.9 124.1" xml:space="preserve">
<g>
	<path opacity="0.6" fill="#FFFFFF" d="M56.5,19.2c-17,0-30.9,13.8-30.9,30.8c0,7.4,2.6,14.1,6.9,19.4L56.1,39l23.8,31
		c-1.4,1.6-2.7,2.8-3.8,3.9c-2.1,1.7-4.5,3.2-7,4.3c-0.3,0.1-0.5,0.1-0.5,0.1L56.1,60.5L44,78.2c-4.5-2-8.4-5-11.5-8.8l-0.1,0.1
		L26,78.3c11.4,12.4,22.9,12.4,22.9,12.4l7.4-9.9c0.1,0,0.2,0,0.3,0c0.1,0,0.2,0,0.2,0l7.4,10.4c15.3-1.9,22.4-12.9,22.4-12.9L80,70
		c4.6-5.4,7.4-12.4,7.4-20.1C87.4,32.9,73.6,19.2,56.5,19.2z"/>
	<path opacity="0.6" fill="#FFFFFF" d="M118,61.6l-3-1.5c-2.5-1.2-4.1-2.1-4.9-2.7c-0.7-0.6-1.1-1.5-1.1-2.7c0-1.1,0.4-1.9,1.2-2.7
		c0.8-0.7,1.9-1.1,3.2-1.1c1.9,0,3.6,0.7,4.9,2.2c1.4,1.4,2.3,3.1,2.8,5.1h1.1v-8.5H121c-0.1,0.4-0.2,0.7-0.4,1
		c-0.2,0.2-0.5,0.4-0.9,0.4c-0.2,0-1-0.2-2.3-0.7c-1.4-0.4-2.8-0.6-4.3-0.6c-2.9,0-5.1,0.8-6.5,2.5c-1.4,1.7-2.1,3.4-2.1,5.3
		c0,1.8,0.6,3.3,1.6,4.6c1.1,1.2,2.9,2.5,5.5,3.7l2.6,1.2c1.6,0.7,2.7,1.4,3.2,1.9c0.8,0.7,1.2,1.7,1.2,2.9c0,1-0.3,2-1.1,2.9
		c-0.8,0.9-2.1,1.4-3.9,1.4c-1.9,0-3.6-0.7-5-2c-1.4-1.3-2.5-3.5-3.2-6.4h-1.2v9.7h1.2c0.1-0.4,0.3-0.8,0.4-1
		c0.2-0.2,0.5-0.3,0.9-0.3c0.1,0,0.2,0,0.4,0.1c0.2,0,0.3,0.1,0.5,0.1l0.8,0.3c0.8,0.3,1.6,0.5,2.5,0.7c0.8,0.1,1.6,0.2,2.5,0.2
		c3.5,0,6.1-0.9,7.7-2.6c1.6-1.7,2.4-3.6,2.4-5.6c0-2.1-0.8-3.9-2.3-5.4C120.4,63,119.3,62.3,118,61.6z"/>
	<path opacity="0.6" fill="#FFFFFF" d="M140.3,73.6c-0.8,0.5-1.7,0.8-2.7,0.8c-2,0-3.4-1.1-4.2-3.2c-0.4-1.1-0.7-2.5-0.8-4.1h10.2
		c0-0.3-0.1-0.9-0.2-1.5c-0.2-1.5-0.5-2.6-1-3.5c-0.6-1.2-1.5-2.1-2.7-2.8c-1.2-0.7-2.4-1-3.8-1c-2.3,0-4.3,0.8-5.9,2.5
		c-1.7,1.7-2.5,4-2.5,7c0,3.3,0.9,5.7,2.6,7.3c1.7,1.5,3.6,2.3,5.6,2.3c1.4,0,2.6-0.3,3.6-0.8c1.6-0.8,3.1-2.2,4.3-4.1l-0.9-0.6
		C141.4,72.7,140.8,73.3,140.3,73.6z M133.2,61.1c0.4-1,1.1-1.6,2.1-1.6c1,0,1.7,0.4,2.1,1.4c0.3,0.9,0.5,2.5,0.5,4.8h-5.4
		C132.6,63.7,132.8,62.2,133.2,61.1z"/>
	<path opacity="0.6" fill="#FFFFFF" d="M163.6,76.5c-1.1-0.4-2.5-0.7-4.2-0.7l-2.9,0c-0.4,0-0.9,0-1.6,0c-0.7-0.1-1.2-0.1-1.4-0.1
		c-0.4,0-0.8-0.2-1-0.4c-0.3-0.3-0.4-0.6-0.4-1c0-0.5,0.3-1,0.8-1.4c0.5-0.4,0.9-0.6,1.4-0.7c0.2,0,0.5,0,0.6,0c0.1,0,0.4,0,0.9,0
		c2.1,0,3.9-0.3,5.2-0.8c2.7-1,4-2.8,4-5.5c0-0.9-0.2-1.7-0.5-2.4c-0.3-0.7,0.1-1.7-0.5-2.2l-1.3-2l0.5-1.2l3,0c0,0,1.9,0,1.6-2.7
		c-0.1-1.1-3.5,0.2-3.5,0.2c-2.1,2.2-2.7,3.5-2.7,3.5c-0.5-0.2-1.9-0.1-2.8-0.3c-0.9-0.2-1.8-0.3-2.9-0.3c-2.8,0-5,0.6-6.7,1.9
		c-1.6,1.3-2.5,2.9-2.5,4.9c0,1.6,0.5,2.9,1.4,4c1,1.1,2.2,1.9,3.7,2.5v0.3c-1.1,0.3-2.1,0.9-3.2,1.8c-1.1,0.9-1.7,1.9-1.7,3.1
		c0,1,0.4,1.8,1.1,2.4c0.4,0.3,1,0.6,1.9,1v0.3c-1.3,0.2-2.2,0.6-2.8,1.3c-0.5,0.6-0.8,1.2-0.8,1.9c0,1.6,1.3,2.7,3.8,3.3
		c1.5,0.4,3.3,0.6,5.4,0.6c2.6,0,4.7-0.3,6.4-0.8c3.2-1,4.8-3,4.8-5.8C166.8,78.8,165.8,77.3,163.6,76.5z M153.5,61.1
		c0.4-0.9,1.2-1.4,2.4-1.4c1.1,0,1.9,0.5,2.3,1.3c0.4,0.9,0.7,2.3,0.7,4.2c0,1.8-0.2,3.2-0.6,4.2c-0.4,0.9-1.2,1.4-2.3,1.4
		c-1.2,0-2.1-0.6-2.5-1.9c-0.3-0.8-0.5-2.1-0.5-3.7C152.9,63.5,153.1,62.1,153.5,61.1z M160.2,85.8c-1.1,0.2-2.5,0.4-4.2,0.4
		c-1.9,0-3.3-0.2-4.3-0.7c-1-0.5-1.4-1.2-1.4-2.1c0-0.5,0.2-1,0.5-1.5c0.2-0.3,0.5-0.6,1-1h7.4c1.5,0,2.6,0.2,3.1,0.6
		c0.6,0.4,0.9,0.9,0.9,1.7C163.3,84.4,162.3,85.3,160.2,85.8z"/>
	<path opacity="0.6" fill="#FFFFFF" d="M184.9,72.9V58.8h-8v1c1,0,1.7,0.2,2,0.5c0.4,0.3,0.5,0.9,0.5,1.7v11.1
		c-0.5,0.5-1,0.9-1.3,1.1c-0.6,0.4-1.3,0.6-1.9,0.6c-1,0-1.7-0.3-2-1c-0.2-0.3-0.3-0.9-0.3-1.7V58.8h-7.6v1c0.8,0.1,1.3,0.4,1.6,0.6
		c0.3,0.2,0.4,0.8,0.4,1.6v9.9c0,2.1,0.5,3.5,1.7,4.3c1.1,0.8,2.3,1.2,3.6,1.2c1.2,0,2.4-0.3,3.5-0.9c0.6-0.3,1.4-0.9,2.3-1.7v2.6
		c1.4-0.4,2.5-0.7,3.1-0.8c0.7-0.1,2.2-0.3,4.7-0.5v-0.9c-0.9-0.1-1.5-0.3-1.9-0.6C185,74.3,184.9,73.7,184.9,72.9z"/>
	<path opacity="0.6" fill="#FFFFFF" d="M203.2,59.1c-0.7-0.5-1.4-0.8-2.2-0.8c-1.1,0-2.1,0.3-2.9,1c-0.8,0.7-1.7,1.5-2.5,2.6v-3.1
		h-7.6v1c0.8,0.1,1.4,0.3,1.7,0.6c0.3,0.3,0.4,0.9,0.4,1.7v10.7l0,1.1c0,0.8-0.2,1.3-0.5,1.6c-0.3,0.2-0.8,0.4-1.6,0.5v0.9h10.7
		v-0.9c-1.2-0.1-1.9-0.3-2.3-0.7c-0.4-0.3-0.6-1.1-0.6-2.4v-7.4c0-1.2,0.2-2.2,0.8-2.8c0.5-0.6,1.1-0.9,1.6-0.9
		c0.2,0,0.7,0.4,1.3,1.1c0.7,0.8,1.4,1.2,2.2,1.2c0.8,0,1.4-0.3,1.8-0.8c0.4-0.5,0.7-1.1,0.7-1.9C204.2,60.4,203.8,59.7,203.2,59.1z
		"/>
	<path opacity="0.6" fill="#FFFFFF" d="M212.9,58.3c-2.6,0-4.7,0.9-6.5,2.7c-1.7,1.8-2.6,4.1-2.6,6.8c0,2.7,0.8,5,2.6,6.8
		c1.7,1.8,3.9,2.8,6.5,2.8c2.7,0,4.9-1,6.6-2.9c1.7-1.9,2.5-4.1,2.5-6.7c0-2.6-0.8-4.9-2.5-6.8C217.7,59.3,215.5,58.3,212.9,58.3z
		 M215.4,74.2c-0.4,1.3-1.3,2-2.6,2c-1.4,0-2.2-0.9-2.7-2.5c-0.3-1.1-0.5-3-0.5-5.8c0-2.7,0.2-4.6,0.5-5.7c0.4-1.7,1.4-2.6,2.7-2.6
		c1.3,0,2.1,0.6,2.6,1.9c0.4,1.3,0.6,3.5,0.6,6.3C216.1,70.8,215.8,73,215.4,74.2z"/>
	<path opacity="0.6" fill="#FFFFFF" d="M235.4,66l-2.2-1c-1.1-0.5-1.8-1-2.2-1.5c-0.4-0.5-0.6-0.9-0.6-1.3c0-0.6,0.2-1.1,0.7-1.6
		c0.4-0.4,1.1-0.7,2-0.7c1.1,0,2.1,0.4,3,1.2c0.8,0.8,1.5,1.8,1.9,3.2h1v-5.7h-0.9c-0.1,0.3-0.2,0.4-0.3,0.6
		c-0.2,0.1-0.4,0.2-0.7,0.2c-0.2,0-0.8-0.1-1.8-0.4c-1-0.3-1.8-0.4-2.7-0.4c-2,0-3.5,0.5-4.6,1.6c-1.1,1.1-1.6,2.4-1.6,3.9
		c0,1.2,0.4,2.3,1.1,3.1c0.7,0.9,1.8,1.7,3.4,2.5l3,1.4c0.7,0.3,1.1,0.6,1.4,0.9c0.5,0.5,0.8,1.1,0.8,1.8c0,0.8-0.2,1.4-0.7,1.8
		c-0.5,0.5-1.2,0.7-2.3,0.7c-1.1,0-2.2-0.4-3.3-1.1c-1.1-0.8-1.8-2.1-2.2-4h-1.1v6.5h1c0.2-0.4,0.4-0.7,0.6-0.9
		c0.2-0.2,0.4-0.3,0.6-0.3c0.1,0,0.2,0,0.2,0c0.1,0,0.2,0.1,0.5,0.2l0.7,0.2c0.8,0.3,1.5,0.5,2,0.6c0.5,0.1,1.1,0.2,1.6,0.2
		c2.1,0,3.8-0.6,4.9-1.9c1.1-1.3,1.6-2.6,1.6-4.1c0-1.5-0.5-2.7-1.6-3.8C237.7,67.3,236.8,66.7,235.4,66z"/>
	<path opacity="0.6" fill="#FFFFFF" d="M274.2,74.9c-0.5-0.7-1.3-2.1-2.3-4.5L263,49.9h-1.1l-8.9,21.4c-0.7,1.7-1.3,2.8-1.6,3.3
		c-0.6,0.8-1.4,1.2-2.3,1.3v1h8.2v-1c-0.9,0-1.6-0.1-2-0.2c-0.8-0.2-1.2-0.7-1.2-1.2c0-0.4,0.2-1.2,0.5-2.2c0.2-0.5,0.6-1.5,1.2-3h9
		l1,2.4c0.2,0.5,0.4,0.9,0.5,1.3c0.2,0.6,0.3,1.1,0.3,1.4c0,0.7-0.2,1-0.6,1.3c-0.4,0.2-1.3,0.3-2.6,0.3v1h13v-1
		C275.4,75.9,274.7,75.6,274.2,74.9z M256.2,67.6l3.6-9.1h0.3l3.9,9.1H256.2z"/>
	<path opacity="0.6" fill="#FFFFFF" d="M286.3,73.2c-0.4,0.7-0.7,1.1-1.1,1.5c-0.3,0.4-0.8,0.5-1.3,0.5c-0.6,0-1.1-0.3-1.3-0.8
		c-0.2-0.4-0.3-0.8-0.3-1.4V61.3h3.8v-1.7h-3.8v-6.6h-1c-1,1.5-2.1,2.9-3.3,4.2c-0.6,0.7-1.3,1.3-1.9,1.9c-0.6,0.4-1,0.8-1.3,1.1
		v1.1h2.1V74c0,1.8,0.7,3,2,3.6c0.7,0.3,1.5,0.5,2.5,0.5c1.7,0,3.1-0.6,4.3-1.8c0.6-0.7,1.2-1.5,1.7-2.6L286.3,73.2z"/>
	<path opacity="0.6" fill="#FFFFFF" d="M294.6,74.3V51.1H287v0.9c0.8,0.2,1.3,0.4,1.5,0.7c0.3,0.3,0.4,0.8,0.4,1.6v19.9
		c0,0.9-0.2,1.5-0.4,1.7c-0.3,0.2-0.8,0.5-1.5,0.6v1h9.6v-1c-0.8-0.2-1.3-0.4-1.5-0.7C294.8,75.7,294.6,75.1,294.6,74.3z"/>
	<path opacity="0.6" fill="#FFFFFF" d="M315.1,74.1c-0.1,0-0.3,0.1-0.4,0.1c-0.2,0-0.4-0.1-0.5-0.3c-0.2-0.2-0.2-0.4-0.2-0.7v-9.5
		c0-2.3-0.8-3.9-2.3-4.8c-1.5-0.8-3.5-1.2-5.7-1.2c-2.1,0-3.9,0.4-5.4,1.3c-1.5,0.9-2.2,2-2.2,3.6c0,0.8,0.3,1.5,0.8,1.9
		c0.6,0.5,1.2,0.7,2,0.7c0.7,0,1.2-0.2,1.7-0.6c0.5-0.4,0.8-1,0.8-1.7c0-0.3-0.1-0.6-0.2-0.8c-0.1-0.3-0.2-0.5-0.4-0.7l-0.2-0.3
		c-0.1-0.1-0.2-0.2-0.2-0.3c0-0.2-0.1-0.3-0.1-0.4c0-0.4,0.2-0.7,0.7-1c0.5-0.2,1.1-0.4,1.8-0.4c1.2,0,2.1,0.3,2.6,0.9
		c0.5,0.5,0.8,1.4,0.8,2.5v2.9c-3.7,1-6.4,2.1-8.2,3.1c-1.8,1-2.6,2.4-2.6,4.2c0,1.4,0.5,2.5,1.4,3.1c1,0.7,2,1.1,3.1,1.1
		c0.8,0,1.6-0.1,2.5-0.4c1.4-0.5,2.7-1.2,3.8-2.3c0.2,0.7,0.4,1.3,0.7,1.7c0.6,0.6,1.4,1,2.6,1c0.7,0,1.3-0.1,1.9-0.4
		c1-0.3,1.8-1,2.6-1.9l-0.6-0.8C315.4,73.9,315.2,74.1,315.1,74.1z M307.1,72.3c-0.4,0.5-0.8,0.8-1.1,1.1c-0.6,0.4-1.2,0.6-1.8,0.6
		c-0.5,0-0.9-0.2-1.3-0.7c-0.4-0.4-0.6-1.1-0.6-1.9c0-1.5,0.7-2.7,2-3.6c0.9-0.6,1.8-1,2.9-1.2V72.3z"/>
	<path opacity="0.6" fill="#FFFFFF" d="M326.4,66l-2.2-1c-1.1-0.5-1.8-1-2.1-1.5c-0.4-0.4-0.6-0.9-0.6-1.4c0-0.6,0.2-1.1,0.7-1.6
		c0.4-0.5,1.1-0.7,2-0.7c1.2,0,2.2,0.4,3,1.2c0.9,0.8,1.5,1.9,1.8,3.2h1v-5.7h-0.9c-0.1,0.2-0.2,0.4-0.4,0.6
		c-0.1,0.1-0.4,0.2-0.7,0.2c-0.2,0-0.8-0.1-1.8-0.4c-1-0.3-1.9-0.5-2.7-0.5c-2,0-3.5,0.6-4.6,1.7c-1.1,1.1-1.6,2.4-1.6,3.9
		c0,1.2,0.3,2.3,1,3.1c0.7,0.9,1.8,1.7,3.4,2.5l3,1.4c0.7,0.3,1.1,0.6,1.4,0.9c0.5,0.5,0.8,1.1,0.8,1.8c0,0.7-0.2,1.3-0.7,1.8
		c-0.5,0.5-1.3,0.7-2.3,0.7c-1.1,0-2.2-0.4-3.3-1.2c-1.1-0.8-1.8-2.1-2.2-4h-1.1v6.5h1c0.2-0.4,0.4-0.7,0.6-0.8
		c0.2-0.2,0.3-0.3,0.6-0.3c0.1,0,0.2,0,0.2,0c0.1,0,0.2,0.1,0.5,0.2l0.7,0.2c0.8,0.3,1.5,0.5,2,0.6c0.6,0.2,1.1,0.2,1.6,0.2
		c2.2,0,3.8-0.6,4.9-1.9c1-1.2,1.6-2.6,1.6-4c0-1.5-0.5-2.8-1.6-3.8C328.8,67.2,327.8,66.6,326.4,66z"/>
	<path opacity="0.6" fill="#FFFFFF" d="M336.1,70.8c-1,0-1.8,0.3-2.4,0.9c-0.6,0.6-0.9,1.4-0.9,2.4c0,0.9,0.3,1.7,0.8,2.2
		c0.6,0.6,1.3,0.8,2.1,0.8c0.1,0,0.2,0,0.4,0c0.2,0,0.4-0.1,0.5-0.1c0.3,0,0.5,0.1,0.6,0.2c0.1,0.2,0.2,0.4,0.2,0.7
		c0,0.9-0.6,1.9-1.6,3c-0.6,0.6-1.5,1.3-2.7,2.1l0.5,0.9c1.8-1,3.2-1.9,4.1-2.9c1.7-1.8,2.6-3.7,2.6-5.8c0-1.3-0.4-2.5-1.2-3.3
		C338.3,71.2,337.3,70.8,336.1,70.8z"/>
	<path opacity="0.6" fill="#FFFFFF" d="M356.9,61.7l-3-1.4c-2.5-1.2-4.1-2.1-4.9-2.8c-0.7-0.6-1.1-1.5-1.1-2.7c0-1,0.4-1.9,1.2-2.6
		c0.8-0.7,1.9-1.1,3.2-1.1c1.9,0,3.6,0.7,5,2.2c1.4,1.4,2.3,3.1,2.8,5.1h1.1v-8.5H360c-0.1,0.4-0.2,0.8-0.4,1
		c-0.2,0.3-0.5,0.4-0.9,0.4c-0.2,0-1-0.3-2.4-0.7c-1.4-0.4-2.8-0.6-4.3-0.6c-2.9,0-5.1,0.8-6.5,2.5c-1.4,1.7-2.1,3.4-2.1,5.4
		c0,1.8,0.5,3.3,1.6,4.5c1.1,1.2,2.8,2.4,5.5,3.7l2.6,1.2c1.6,0.8,2.7,1.4,3.2,1.9c0.8,0.7,1.2,1.7,1.2,2.9c0,1-0.4,2-1.2,2.9
		c-0.8,0.9-2.1,1.4-3.9,1.4c-1.9,0-3.5-0.6-5-2c-1.5-1.3-2.5-3.5-3.2-6.4h-1.2v9.7h1.2c0.1-0.4,0.3-0.8,0.4-1
		c0.1-0.2,0.4-0.4,0.8-0.4c0.1,0,0.2,0,0.4,0c0.2,0,0.3,0.1,0.5,0.1l0.8,0.3c0.8,0.3,1.6,0.6,2.5,0.7c0.8,0.1,1.7,0.2,2.5,0.2
		c3.5,0,6.1-0.9,7.7-2.6c1.6-1.7,2.4-3.6,2.4-5.6c0-2.1-0.7-3.9-2.2-5.3C359.3,63.2,358.2,62.4,356.9,61.7z"/>
	<path opacity="0.6" fill="#FFFFFF" d="M397.4,74.9c-0.5-0.7-1.3-2.1-2.3-4.5l-8.9-20.6H385l-8.9,21.4c-0.7,1.7-1.3,2.8-1.6,3.3
		c-0.6,0.8-1.4,1.2-2.4,1.3l-3.2,0.9c0.2-0.1,0.4-0.2,0.5-0.3c0.6-0.7,1-1.4,1-2.3c0-0.9-0.3-1.7-1-2.3c-0.7-0.7-1.5-1-2.4-1
		c-0.9,0-1.8,0.3-2.4,1c-0.7,0.6-1,1.4-1,2.3c0,0.9,0.3,1.7,1,2.3c0.6,0.6,1.5,1,2.4,1c0.7,0,1.3-0.2,1.8-0.6h11.5v-1
		c-0.9,0-1.6-0.1-2.1-0.2c-0.8-0.2-1.1-0.7-1.1-1.2c0-0.4,0.1-1.2,0.5-2.2c0.2-0.5,0.6-1.5,1.1-3h9l1.1,2.4c0.2,0.5,0.4,0.9,0.5,1.3
		c0.2,0.6,0.3,1.1,0.3,1.4c0,0.7-0.2,1-0.6,1.3c-0.4,0.2-1.3,0.3-2.6,0.3v1h13.1v-1C398.5,75.9,397.9,75.6,397.4,74.9z M379.4,67.6
		l3.6-9.1h0.3l3.9,9.1H379.4z"/>
	<path opacity="0.6" fill="#FFFFFF" d="M406.9,71.8c-0.7-0.7-1.5-1-2.4-1c-0.9,0-1.7,0.3-2.4,1c-0.6,0.6-1,1.4-1,2.3
		c0,0.9,0.4,1.7,1,2.3c0.7,0.6,1.4,1,2.4,1c0.9,0,1.7-0.3,2.4-1c0.7-0.7,1-1.4,1-2.3C407.9,73.2,407.6,72.4,406.9,71.8z"/>
</g>
</svg>
