<?xml version="1.0" encoding="utf-8"?>
<!-- Generator: Adobe Illustrator 17.1.0, SVG Export Plug-In . SVG Version: 6.00 Build 0)  -->
<!DOCTYPE svg PUBLIC "-//W3C//DTD SVG 1.1//EN" "http://www.w3.org/Graphics/SVG/1.1/DTD/svg11.dtd">
<svg version="1.1" id="Capa_1" xmlns="http://www.w3.org/2000/svg" xmlns:xlink="http://www.w3.org/1999/xlink" x="0px" y="0px"
	 viewBox="0 0 292.7 72" enable-background="new 0 0 292.7 72" xml:space="preserve">
<g>
	<rect x="84.3" y="20.4" opacity="0.6" fill="#FFFFFF" width="6.7" height="23.2"/>
	<polygon opacity="0.6" fill="#FFFFFF" points="120.3,39.3 105.9,20.4 94.9,20.4 94.9,43.6 101.6,43.6 101.6,24.7 116,43.6 
		127,43.6 127,20.4 120.4,20.4 	"/>
	<path opacity="0.6" fill="#FFFFFF" d="M154,31.7v-0.1c4.3-0.7,5.1-2.5,5.1-5.1c0-5.1-3.6-6.1-10.7-6.1h-18v23.2h18.6
		c7.6,0,10.9-1.3,10.9-6.4C160,34.2,159,32.1,154,31.7z M137.4,24.2h9.8c3.4,0,5,0.2,5,2.7c0,2.4-0.9,3.2-4.8,3.2h-10V24.2z
		 M146.9,39.8h-9.5v-6.3h10.7c4.1,0,5,0.7,5,3.3C153,39.7,151.1,39.8,146.9,39.8z"/>
	<path opacity="0.6" fill="#FFFFFF" d="M185.7,36.7c0,2.5-1.7,3.1-7.9,3.1c-6.5,0-7.8-0.7-7.8-3.1V20.2h-6.7v16.5
		c0,6.5,6.3,6.9,14.5,6.9c8.5,0,14.6-0.4,14.6-6.9V20.2h-6.7V36.7z"/>
	<path opacity="0.6" fill="#FFFFFF" d="M219,39.3v4.3h6.9v-4.3c0-3.3-1.2-5-6.1-5.3v-0.1c6.1-0.6,6.4-3.1,6.4-6.5
		c0-5.3-3-6.8-10.9-7H197v23.2h6.9V36h10.6C217.8,36,219,37.3,219,39.3z M205.2,32.2v-7.9h9.6c4.9,0,5.8,0.6,5.8,3.9
		c0,3.4-1.2,4-6.3,4H205.2z"/>
	<path opacity="0.6" fill="#FFFFFF" d="M243.4,43.6c9,0,13.7-0.5,13.7-7.1c0-5.9-3-6.3-13.7-6.7c-6.8-0.3-7.7-0.4-7.7-3.2
		c0-2.5,1.1-2.9,7.8-2.9c4.7,0,6.2,0.1,6.2,2.6v0.7h6.7v-0.7c0-6.1-5.8-6.3-13-6.3c-8.4,0-14.5,0.2-14.5,6.6c0,6.7,6,6.6,13.5,6.8
		c5.2,0.2,7.9-0.2,7.9,3.1c0,2.7-0.9,3.4-6.9,3.4c-6.2,0-8-0.2-8-2.8v-1.1h-6.7v1.1C228.7,43.8,235.6,43.6,243.4,43.6z"/>
	<path opacity="0.6" fill="#FFFFFF" d="M268.5,39.3h15.1l2.3,4.4h6.8l-11.9-23.2h-9.9l-11.6,23.2h7L268.5,39.3z M276,23.9h0.1l6,12
		H270L276,23.9z"/>
	<path opacity="0.6" fill="#FFFFFF" d="M223.9,58.8c-0.6-0.3-1.7-0.6-3.4-0.9c-1.6-0.4-2.7-0.7-3-1.1c-0.4-0.4-0.6-0.8-0.6-1.3
		c0-0.6,0.3-1.2,0.8-1.6c0.6-0.4,1.5-0.7,2.7-0.7c1.2,0,2.1,0.3,2.7,0.7c0.6,0.5,1,1.2,1.1,2.2l1.9-0.2c0-0.8-0.3-1.6-0.7-2.4
		c-0.5-0.7-1.1-1.2-2-1.6c-0.9-0.4-1.9-0.5-3-0.5c-1,0-2,0.1-2.8,0.5c-0.9,0.3-1.5,0.9-1.9,1.5c-0.4,0.7-0.6,1.4-0.6,2.1
		c0,0.7,0.2,1.3,0.5,1.9c0.3,0.5,0.9,1,1.6,1.4c0.6,0.3,1.5,0.6,2.9,0.9c1.4,0.3,2.3,0.6,2.7,0.8c0.7,0.2,1.1,0.5,1.4,0.9
		c0.3,0.3,0.4,0.8,0.4,1.2c0,0.5-0.1,0.9-0.4,1.3c-0.3,0.4-0.7,0.7-1.3,0.9c-0.6,0.2-1.3,0.3-2,0.3c-0.9,0-1.6-0.1-2.4-0.5
		c-0.7-0.3-1.2-0.7-1.5-1.2c-0.3-0.5-0.5-1.1-0.6-1.8l-1.9,0.2c0,1,0.3,1.9,0.8,2.7c0.5,0.8,1.3,1.4,2.2,1.8c1,0.4,2.1,0.6,3.5,0.6
		c1.1,0,2.1-0.2,3-0.6c0.9-0.4,1.5-0.9,2-1.6c0.5-0.7,0.7-1.5,0.7-2.2c0-0.8-0.2-1.5-0.6-2.1C225.4,59.7,224.8,59.2,223.9,58.8z"/>
	<path opacity="0.6" fill="#FFFFFF" d="M233.6,55.6c-1.5,0-2.8,0.5-3.7,1.5c-0.9,1-1.4,2.4-1.4,4.2c0,1.8,0.5,3.1,1.4,4.1
		c1,1,2.2,1.5,3.8,1.5c1.3,0,2.4-0.3,3.2-0.9c0.8-0.6,1.4-1.5,1.7-2.6l-1.9-0.2c-0.3,0.8-0.7,1.4-1.2,1.7c-0.5,0.3-1.1,0.5-1.8,0.5
		c-0.9,0-1.7-0.3-2.3-0.9c-0.6-0.6-1-1.5-1-2.7h8.3c0-0.2,0-0.4,0-0.5c0-1.8-0.5-3.2-1.4-4.2C236.3,56.1,235,55.6,233.6,55.6z
		 M230.4,60.2c0.1-0.9,0.4-1.7,1-2.2c0.6-0.6,1.3-0.9,2.2-0.9c0.9,0,1.7,0.3,2.3,1.1c0.4,0.5,0.6,1.1,0.7,2H230.4z"/>
	<path opacity="0.6" fill="#FFFFFF" d="M248.2,57.1c-0.9-1-1.9-1.5-3.2-1.5c-1,0-1.8,0.2-2.5,0.7c-0.7,0.5-1.3,1.1-1.7,2
		c-0.4,0.9-0.6,1.9-0.6,2.9c0,1.5,0.4,2.8,1.2,3.9c0.8,1.1,2,1.6,3.5,1.6c1.2,0,2.3-0.5,3.1-1.4c0,1.2,0,2-0.1,2.3
		c-0.2,0.6-0.5,1.1-0.9,1.4c-0.5,0.3-1.2,0.5-2,0.5c-0.8,0-1.4-0.2-1.9-0.5c-0.4-0.3-0.6-0.7-0.7-1.2l-1.8-0.3c0,1.2,0.4,2,1.2,2.6
		c0.8,0.6,1.9,0.9,3.2,0.9c1.1,0,2.1-0.2,2.8-0.6c0.8-0.4,1.3-1,1.6-1.7c0.3-0.7,0.5-1.9,0.5-3.6v-9.4h-1.7V57.1z M247.3,64.2
		c-0.6,0.6-1.3,1-2.2,1c-0.9,0-1.6-0.3-2.2-1c-0.6-0.7-0.9-1.7-0.9-3.1c0-1.3,0.3-2.3,0.9-3c0.6-0.7,1.3-1,2.1-1
		c0.9,0,1.6,0.3,2.2,1c0.6,0.7,0.9,1.6,0.9,3C248.1,62.5,247.9,63.5,247.3,64.2z"/>
	<path opacity="0.6" fill="#FFFFFF" d="M259.8,61.6c0,0.9-0.1,1.7-0.3,2.1c-0.2,0.5-0.5,0.9-1,1.2c-0.5,0.3-1,0.4-1.6,0.4
		c-0.6,0-1-0.1-1.4-0.4c-0.4-0.3-0.6-0.7-0.7-1.2c-0.1-0.3-0.1-0.9-0.1-1.9v-6h-1.9v6.7c0,0.8,0,1.4,0.1,1.7c0.1,0.5,0.3,1,0.6,1.4
		c0.3,0.4,0.7,0.7,1.3,0.9c0.6,0.3,1.2,0.4,1.8,0.4c1.5,0,2.6-0.6,3.5-1.8v1.6h1.7V55.8h-1.9V61.6z"/>
	<path opacity="0.6" fill="#FFFFFF" d="M267.4,56c-0.4,0.3-0.8,0.8-1.2,1.5v-1.7h-1.7v10.9h1.9V61c0-0.8,0.1-1.5,0.3-2.1
		c0.1-0.4,0.4-0.8,0.7-1c0.3-0.3,0.7-0.4,1.1-0.4c0.5,0,0.9,0.1,1.4,0.4l0.7-1.7c-0.7-0.4-1.3-0.6-1.9-0.6
		C268.2,55.6,267.8,55.7,267.4,56z"/>
	<path opacity="0.6" fill="#FFFFFF" d="M276.1,55.6c-1.4,0-2.5,0.4-3.5,1.2c-1.1,1-1.7,2.4-1.7,4.5c0,1.8,0.5,3.2,1.4,4.2
		c0.9,1,2.2,1.5,3.7,1.5c1,0,1.8-0.2,2.7-0.7c0.8-0.5,1.5-1.1,1.9-1.9c0.4-0.8,0.6-1.9,0.6-3.3c0-1.7-0.5-3.1-1.4-4.1
		C278.9,56.1,277.7,55.6,276.1,55.6z M278.5,64.4c-0.6,0.7-1.4,1-2.3,1c-0.9,0-1.7-0.3-2.3-1c-0.6-0.7-1-1.7-1-3.1
		c0-1.4,0.3-2.4,1-3.1c0.6-0.7,1.4-1.1,2.3-1.1c0.9,0,1.7,0.3,2.3,1.1c0.6,0.7,0.9,1.7,0.9,3C279.4,62.6,279.1,63.7,278.5,64.4z"/>
	<path opacity="0.6" fill="#FFFFFF" d="M290.3,61c-0.5-0.2-1.5-0.5-2.8-0.9c-0.9-0.2-1.5-0.4-1.6-0.5c-0.3-0.1-0.6-0.3-0.7-0.5
		c-0.1-0.2-0.2-0.4-0.2-0.6c0-0.4,0.2-0.7,0.6-1c0.4-0.3,1-0.4,1.8-0.4c0.7,0,1.3,0.1,1.7,0.5c0.4,0.3,0.6,0.7,0.7,1.3l1.8-0.2
		c-0.1-0.7-0.3-1.3-0.7-1.7c-0.3-0.4-0.8-0.7-1.4-1c-0.7-0.3-1.4-0.4-2.3-0.4c-0.6,0-1.1,0.1-1.6,0.2c-0.5,0.1-0.9,0.3-1.2,0.5
		c-0.4,0.3-0.7,0.6-0.9,1c-0.2,0.4-0.3,0.9-0.3,1.3c0,0.5,0.1,1,0.4,1.4c0.3,0.5,0.7,0.8,1.2,1c0.5,0.3,1.4,0.6,2.8,0.9
		c1,0.2,1.6,0.4,1.9,0.6c0.4,0.3,0.6,0.6,0.6,1c0,0.5-0.2,0.9-0.6,1.2c-0.4,0.4-1.1,0.5-1.9,0.5c-0.9,0-1.5-0.2-2-0.6
		c-0.5-0.4-0.8-0.9-0.9-1.7l-1.8,0.3c0.2,1.1,0.7,2,1.4,2.6c0.8,0.6,1.8,0.9,3.3,0.9c0.9,0,1.6-0.2,2.3-0.5c0.7-0.3,1.2-0.7,1.6-1.3
		c0.4-0.5,0.6-1.1,0.6-1.7c0-0.6-0.2-1.2-0.5-1.6C291.2,61.5,290.8,61.2,290.3,61z"/>
	<path opacity="0.6" fill="#FFFFFF" d="M36.2,17.7V0c0,0-12.5-0.4-17.8,4.9l-0.1,25.9C21,23.4,28,18.1,36.2,17.7z"/>
	<path opacity="0.6" fill="#FFFFFF" d="M36.8,54.3V72c0,0,12.5,0.3,17.8-4.9l0.1-25.9C52,48.6,45,53.9,36.8,54.3z"/>
	<path opacity="0.6" fill="#FFFFFF" d="M42.1,17.7c7.4,2.7,12.7,9.7,13,18h17.8c0,0,0.3-12.5-4.9-17.9L42.1,17.7z"/>
	<path opacity="0.6" fill="#FFFFFF" d="M17.8,35.9H0c0,0-0.3,12.5,4.9,17.8l25.9,0.1C23.4,51.1,18.1,44.1,17.8,35.9z"/>
	<path opacity="0.6" fill="#FFFFFF" d="M51.7,36c0-8.5-6.8-15.3-15.3-15.3c-8.4,0-15.3,6.8-15.3,15.3c0,8.5,6.9,15.3,15.3,15.3
		C44.9,51.3,51.7,44.4,51.7,36z"/>
</g>
</svg>
