<?xml version="1.0" encoding="utf-8"?>
<!-- Generator: Adobe Illustrator 17.1.0, SVG Export Plug-In . SVG Version: 6.00 Build 0)  -->
<!DOCTYPE svg PUBLIC "-//W3C//DTD SVG 1.1//EN" "http://www.w3.org/Graphics/SVG/1.1/DTD/svg11.dtd">
<svg version="1.1" id="Capa_1" xmlns="http://www.w3.org/2000/svg" xmlns:xlink="http://www.w3.org/1999/xlink" x="0px" y="0px"
	 viewBox="0 0 528.1 91.4" enable-background="new 0 0 528.1 91.4" xml:space="preserve">
<g>
	<polygon opacity="0.6" fill="#FFFFFF" points="18.2,63.7 26.9,63.7 24.3,55.1 	"/>
	<polygon opacity="0.6" fill="#FFFFFF" points="92.1,0 57.7,45.2 51.6,45.1 86.5,0 0.2,0 0.2,79.5 23.9,47.9 29.9,47.9 35.4,65.5 
		37.5,62.9 33,47.9 40.3,47.9 43.3,57.3 50.3,47.9 56.7,47.9 45.3,62.4 46.5,66.2 60,48.1 66.2,47.9 76.9,82.2 68.9,82.1 64.6,67.9 
		51.1,67.8 48.1,71.9 51.1,82.1 44.1,82.1 43,78.9 40.6,82.2 32.7,82.3 31.7,78.9 29.2,82.3 22.5,82.1 29.8,72.8 28.3,67.9 
		14.9,67.8 4.3,82.4 0.2,82.4 0.2,91.3 92.1,91.3 92.1,50.3 92.1,50.3 92.1,50.3 	"/>
	<polygon opacity="0.6" fill="#FFFFFF" points="39.4,68 37.2,71.1 38.8,76.4 41.2,73.3 	"/>
	<polygon opacity="0.6" fill="#FFFFFF" points="53.5,63.7 62.2,63.7 59.7,55.1 	"/>
	<path opacity="0.6" fill="#FFFFFF" d="M120.3,68.8v-3.4h-5.5V82h6.5v-7.2c0-1.3,0.2-2.3,0.5-2.8c0.4-0.8,1.3-1.1,2.6-1.1
		c0.4,0,0.8,0.1,1.2,0.2v-5.8l-0.9-0.1C122.4,64.9,120.9,66.2,120.3,68.8z"/>
	<path opacity="0.6" fill="#FFFFFF" d="M135.7,65.1c-2.7,0-4.9,0.8-6.6,2.5c-1.7,1.7-2.5,3.8-2.5,6.3c0,2.5,0.9,4.6,2.7,6.2
		c1.7,1.4,3.9,2.2,6.7,2.2c2.1,0,3.9-0.5,5.4-1.4c1.6-1,2.7-2.5,3.2-4.4l-6.1-0.4c-0.2,1.3-1.1,2-2.5,2c-1.8,0-2.6-1-2.5-3.1h11.2
		v-0.9c0-2.8-0.8-4.9-2.4-6.6C140.7,65.9,138.5,65.1,135.7,65.1z M133.5,71.7c-0.1-0.8,0.1-1.5,0.5-2c0.4-0.6,1-0.8,1.8-0.8
		c1.6,0,2.4,0.9,2.4,2.8H133.5z"/>
	<rect x="147" y="59.4" opacity="0.6" fill="#FFFFFF" width="6.5" height="4.4"/>
	<rect x="147" y="65.4" opacity="0.6" fill="#FFFFFF" width="6.5" height="16.5"/>
	<path opacity="0.6" fill="#FFFFFF" d="M167.4,65.1c-2.4,0-4,0.9-4.8,2.7v-2.3h-6.1V82h6.5v-9.5c0-1.9,0.7-2.9,2-2.9
		c0.9,0,1.4,0.8,1.4,2.4v10h6.5V71.8c0-2.4-0.4-4-1.1-4.9C170.9,65.7,169.4,65.1,167.4,65.1z"/>
	<polygon opacity="0.6" fill="#FFFFFF" points="184.1,74.2 181.2,65.4 174.5,65.4 180.7,82 185.6,82 191.7,65.4 187,65.4 	"/>
	<path opacity="0.6" fill="#FFFFFF" d="M201.6,65.1c-2.7,0-4.9,0.8-6.6,2.5c-1.7,1.7-2.5,3.8-2.5,6.3c0,2.5,0.9,4.6,2.7,6.2
		c1.7,1.4,3.9,2.2,6.7,2.2c2.1,0,3.9-0.5,5.4-1.4c1.6-1,2.7-2.5,3.2-4.4l-6.1-0.4c-0.2,1.3-1.1,2-2.5,2c-1.8,0-2.6-1-2.5-3.1h11.2
		v-0.9c0-2.8-0.8-4.9-2.4-6.6C206.6,65.9,204.4,65.1,201.6,65.1z M199.4,71.7c0-0.8,0.1-1.5,0.5-2c0.4-0.6,1-0.8,1.8-0.8
		c1.6,0,2.3,0.9,2.3,2.8H199.4z"/>
	<path opacity="0.6" fill="#FFFFFF" d="M223.5,65.1c-2.4,0-4,0.9-4.8,2.7v-2.3h-6.1V82h6.5v-9.5c0-1.9,0.7-2.9,2-2.9
		c0.9,0,1.4,0.8,1.4,2.4v10h6.5V71.8c0-2.4-0.4-4-1.1-4.9C227,65.7,225.6,65.1,223.5,65.1z"/>
	<path opacity="0.6" fill="#FFFFFF" d="M239.2,60l-5.7,0.2l-0.5,5.3h-2.7v4.2h2.4v6.3c0,1.2,0,2,0.1,2.5c0.2,0.9,0.5,1.6,1.1,2.2
		c1.1,1.2,2.4,1.7,3.9,1.7c0.3,0,0.5,0,0.7,0l3.8-0.5v-4.6c-0.7,0.2-1.4,0.3-1.9,0.3c-0.7,0-1.1-0.2-1.3-0.6
		c-0.1-0.2-0.1-0.7-0.1-1.5v-5.7h3.3v-4.2h-3.3V60z"/>
	<path opacity="0.6" fill="#FFFFFF" d="M261.2,72.5c0-1.7,0-2.9-0.1-3.3c-0.2-1.1-0.8-2-1.8-2.7c-1.3-1-3.4-1.4-6.1-1.4
		c-5,0-7.9,1.7-8.7,5.2l5.9,0.5c0.2-1.2,1-1.8,2.5-1.8c0.8,0,1.3,0.2,1.5,0.5c0.3,0.3,0.4,0.9,0.4,1.6v0.1c-2.6,0.2-4.8,0.5-6.6,1
		c-1.3,0.4-2.3,1-3.1,1.8c-0.9,0.9-1.3,2-1.3,3.3c0,1.6,0.6,2.8,1.7,3.7c1.1,0.8,2.4,1.3,4.1,1.3c2.4,0,4.3-0.9,5.5-2.6
		c0,0.8,0.1,1.6,0.2,2.3h6.2c-0.3-0.8-0.5-2-0.5-3.6V72.5z M254.9,74.6c0,1.2-0.1,2.1-0.3,2.6c-0.3,0.8-1.1,1.3-2.2,1.3
		c-1.1,0-1.7-0.5-1.7-1.5c0-1.5,1.4-2.4,4.2-2.7V74.6z"/>
	<path opacity="0.6" fill="#FFFFFF" d="M274.4,65.1c-2.4,0-4,0.9-4.8,2.7v-2.3h-6.1V82h6.5v-9.5c0-1.9,0.6-2.9,2-2.9
		c0.9,0,1.4,0.8,1.4,2.4v10h6.5V71.8c0-2.4-0.4-4-1.1-4.9C277.9,65.7,276.4,65.1,274.4,65.1z"/>
	<path opacity="0.6" fill="#FFFFFF" d="M292.4,66.8c-1.1-1.1-2.5-1.7-4-1.7c-2.3,0-4.1,0.9-5.2,2.8c-1,1.5-1.4,3.5-1.4,5.9
		c0,2.3,0.5,4.3,1.5,5.8c1.1,1.8,2.8,2.7,5,2.7c2.1,0,3.6-0.8,4.5-2.5V82h6.1V59.8h-6.5V66.8z M292.4,75c0,1-0.1,1.7-0.4,2.1
		c-0.4,0.6-0.9,0.8-1.4,0.8c-1.4,0-2.1-1.3-2.1-4c0-1,0.1-2,0.3-3.1c0.2-1.2,0.9-1.7,1.8-1.7c0.6,0,1.1,0.2,1.4,0.6
		c0.3,0.3,0.4,1,0.4,1.9V75z"/>
	<path opacity="0.6" fill="#FFFFFF" d="M309.9,65.1c-2.7,0-4.8,0.8-6.5,2.4c-1.8,1.6-2.6,3.8-2.6,6.4c0,2.5,0.9,4.5,2.6,6.1
		c1.7,1.6,3.9,2.4,6.5,2.4c2.6,0,4.8-0.8,6.5-2.4c1.8-1.6,2.6-3.6,2.6-6.1c0-2.6-0.9-4.7-2.6-6.4C314.7,65.9,312.5,65.1,309.9,65.1z
		 M311.5,77.7c-0.3,0.5-0.8,0.7-1.6,0.7c-0.7,0-1.3-0.2-1.6-0.7c-0.5-0.7-0.7-2-0.7-4c0-3,0.8-4.5,2.3-4.5c1.5,0,2.2,1.5,2.2,4.5
		C312.2,75.6,311.9,77,311.5,77.7z"/>
	<rect x="356.6" y="59.5" opacity="0.6" fill="#FFFFFF" width="2.7" height="22.5"/>
	<path opacity="0.6" fill="#FFFFFF" d="M371.6,64.9c-2.5,0-4.5,0.9-6,2.6c-1.4,1.6-2,3.6-2,6c0,2.4,0.6,4.4,1.8,6
		c1.4,1.8,3.3,2.8,5.8,2.8c2.6,0,4.6-0.9,6.1-2.6c1.4-1.6,2.1-3.7,2.1-6.1c0-2.4-0.7-4.3-1.9-6C375.9,65.8,374,64.9,371.6,64.9z
		 M375.4,77.7c-0.9,1.6-2.2,2.4-4.1,2.4c-1.7,0-3-0.7-3.9-2.1c-0.7-1.1-1-2.6-1-4.5c0-1.7,0.3-3.1,0.9-4.2c0.8-1.6,2.2-2.4,4-2.4
		c1.7,0,2.9,0.6,3.8,2c0.7,1.1,1.1,2.6,1.1,4.6C376.3,75.3,376,76.7,375.4,77.7z"/>
	<path opacity="0.6" fill="#FFFFFF" d="M395.1,73.3c-0.7-0.5-2-0.9-3.7-1.2l-2.6-0.4c-1-0.2-1.7-0.4-2.1-0.6c-0.7-0.4-1-1-1-1.8
		c0-0.8,0.4-1.5,1.3-1.9c0.7-0.3,1.5-0.5,2.5-0.5c2.3,0,3.8,0.9,4.5,2.7l2.5-0.5c-0.8-2.8-3.1-4.2-7-4.2c-1.8,0-3.3,0.4-4.5,1.1
		c-1.4,0.9-2.1,2.1-2.1,3.7c0,2.5,1.7,4,5.2,4.6l2.9,0.5c2.3,0.4,3.4,1.2,3.4,2.5c0,1-0.5,1.7-1.4,2.2c-0.8,0.4-1.7,0.6-2.8,0.6
		c-1.2,0-2.3-0.2-3.3-0.7c-1.2-0.6-1.8-1.4-2-2.4l-2.6,0.5c0.4,1.6,1.4,2.8,2.9,3.6c1.3,0.7,2.9,1.1,4.8,1.1c2,0,3.6-0.4,5-1.2
		c1.6-0.9,2.4-2.3,2.4-4C397.3,75.5,396.5,74.2,395.1,73.3z"/>
	<path opacity="0.6" fill="#FFFFFF" d="M423.5,73.3c-0.8-0.5-2-0.9-3.7-1.2l-2.6-0.4c-1-0.2-1.7-0.4-2.1-0.6c-0.7-0.4-1-1-1-1.8
		c0-0.8,0.4-1.5,1.3-1.9c0.7-0.3,1.5-0.5,2.5-0.5c2.3,0,3.8,0.9,4.5,2.7l2.5-0.5c-0.8-2.8-3.1-4.2-7-4.2c-1.8,0-3.3,0.4-4.5,1.1
		c-1.4,0.9-2.1,2.1-2.1,3.7c0,2.5,1.7,4,5.2,4.6l2.9,0.5c2.3,0.4,3.4,1.2,3.4,2.5c0,1-0.5,1.7-1.4,2.2c-0.8,0.4-1.7,0.6-2.8,0.6
		c-1.2,0-2.3-0.2-3.3-0.7c-1.2-0.6-1.8-1.4-2-2.4l-2.6,0.5c0.4,1.6,1.4,2.8,2.9,3.6c1.3,0.7,2.9,1.1,4.8,1.1c2,0,3.6-0.4,4.9-1.2
		c1.6-0.9,2.4-2.3,2.4-4C425.6,75.5,424.9,74.2,423.5,73.3z"/>
	<path opacity="0.6" fill="#FFFFFF" d="M442.6,67.6c-1.4-1.8-3.4-2.8-5.9-2.8c-2.5,0-4.5,0.9-6,2.7c-1.4,1.6-2.1,3.7-2.1,6.1
		c0,2.5,0.7,4.5,2,6.1c1.5,1.7,3.5,2.6,6,2.6c1.7,0,3.2-0.4,4.6-1.3c1.4-0.9,2.3-2.1,2.8-3.6l-2.6-0.5c-0.8,2.1-2.4,3.2-4.7,3.2
		c-0.9,0-1.8-0.2-2.6-0.7c-0.8-0.5-1.4-1.1-1.9-1.8c-0.5-0.9-0.7-2.2-0.7-3.8h12.8C444.4,71.3,443.8,69.2,442.6,67.6z M431.7,71.9
		c0-1.4,0.5-2.6,1.5-3.6c0.9-1,2.1-1.5,3.5-1.5c1.5,0,2.7,0.5,3.5,1.5c0.8,1,1.2,2.2,1.2,3.6H431.7z"/>
	<path opacity="0.6" fill="#FFFFFF" d="M460.5,79.8c-0.6-0.2-1.4-0.4-2.5-0.5c-0.5,0-1.4-0.1-2.6-0.1c-2.4-0.1-3.8-0.2-4.2-0.3
		c-0.9-0.2-1.3-0.7-1.3-1.4c0-0.4,0.2-0.8,0.6-1.1c0.4-0.3,0.8-0.5,1.3-0.5c-0.2,0,0.2,0.1,1.1,0.2c0.3,0.1,0.7,0.1,1.2,0.1
		c1.8,0,3.3-0.4,4.5-1.3c1.5-1.1,2.2-2.5,2.2-4.2c0-1.5-0.6-2.9-1.7-4.1c0.1-0.8,0.5-1.3,1.1-1.6c0.4-0.2,1.1-0.3,2-0.3l0.3,0.1
		l0-2.1l-0.7,0c-1.2-0.1-2.1,0.1-2.7,0.5c-0.7,0.4-1.1,1.2-1.3,2.4c-1.1-0.5-2.3-0.7-3.6-0.7c-1.9,0-3.4,0.5-4.7,1.5
		c-1.4,1.1-2,2.5-2,4.2c0,1.8,0.8,3.2,2.3,4.4c-1.6,0.7-2.4,1.7-2.4,3c0,1,0.6,1.9,1.7,2.6c-1.8,0.6-2.6,1.7-2.6,3.4
		c0,1.7,1,2.9,3,3.7c1.2,0.4,2.9,0.7,5.2,0.7c5.8,0,8.7-1.6,8.7-4.8c0-0.8-0.2-1.6-0.7-2.2C461.9,80.5,461.3,80.1,460.5,79.8z
		 M451.3,67.9c0.7-0.7,1.7-1,2.8-1c1.1,0,2,0.4,2.8,1.1c0.8,0.7,1.1,1.6,1.1,2.6c0,1.1-0.4,2-1.1,2.7c-0.7,0.7-1.7,1-2.8,1
		c-1.2,0-2.2-0.3-2.9-1c-0.7-0.7-1.1-1.6-1.1-2.7C450.2,69.5,450.6,68.6,451.3,67.9z M459,85.5c-1.1,0.5-2.6,0.7-4.5,0.7
		c-1.3,0-2.5-0.2-3.4-0.5c-1.4-0.4-2.1-1.2-2.1-2.2c0-0.9,0.6-1.7,1.9-2.2l4.2,0.3l1.7,0c2.5,0,3.7,0.7,3.7,2
		C460.5,84.4,460,85,459,85.5z"/>
	<path opacity="0.6" fill="#FFFFFF" d="M476.7,74.1c0,1-0.1,1.9-0.4,2.6c-0.3,0.9-0.9,1.7-1.8,2.3c-0.8,0.6-1.8,0.9-2.8,0.9
		c-1.3,0-2.2-0.5-2.8-1.6c-0.4-0.7-0.6-1.7-0.6-3.1V65.3h-2.7v10.1c0,2.2,0.5,3.9,1.4,5c1.1,1.2,2.6,1.9,4.5,1.9
		c1.2,0,2.3-0.3,3.3-1c1-0.7,1.7-1.6,2.2-2.6v3.3h2.5V65.3h-2.7V74.1z"/>
	<path opacity="0.6" fill="#FFFFFF" d="M486.8,69.2v-3.9h-2.4v16.6h2.7v-8.4c0-0.5,0-0.9,0.1-1.3c0.2-1.4,0.7-2.5,1.7-3.5
		c1-0.9,2.2-1.4,3.6-1.4h0.6v-2.5l-1-0.1C489.7,64.7,487.9,66.1,486.8,69.2z"/>
	<path opacity="0.6" fill="#FFFFFF" d="M502.4,64.9c-2.5,0-4.5,0.9-6,2.6c-1.4,1.6-2,3.6-2,6c0,2.4,0.6,4.4,1.8,6
		c1.4,1.8,3.3,2.8,5.8,2.8c2.6,0,4.6-0.9,6.1-2.6c1.4-1.6,2.1-3.7,2.1-6.1c0-2.4-0.6-4.3-1.9-6C506.8,65.8,504.8,64.9,502.4,64.9z
		 M506.3,77.7c-0.9,1.6-2.2,2.4-4.1,2.4c-1.7,0-3-0.7-3.9-2.1c-0.7-1.1-1-2.6-1-4.5c0-1.7,0.3-3.1,0.9-4.2c0.8-1.6,2.2-2.4,4-2.4
		c1.7,0,2.9,0.6,3.8,2c0.7,1.1,1.1,2.6,1.1,4.6C507.1,75.3,506.8,76.7,506.3,77.7z"/>
	<path opacity="0.6" fill="#FFFFFF" d="M525.9,73.3c-0.8-0.5-2-0.9-3.7-1.2l-2.6-0.4c-1-0.2-1.7-0.4-2.2-0.6c-0.7-0.4-1-1-1-1.8
		c0-0.8,0.4-1.5,1.3-1.9c0.7-0.3,1.5-0.5,2.5-0.5c2.3,0,3.8,0.9,4.5,2.7l2.5-0.5c-0.8-2.8-3.1-4.2-7-4.2c-1.8,0-3.3,0.4-4.5,1.1
		c-1.4,0.9-2.1,2.1-2.1,3.7c0,2.5,1.7,4,5.2,4.6l2.9,0.5c2.3,0.4,3.4,1.2,3.4,2.5c0,1-0.5,1.7-1.4,2.2c-0.8,0.4-1.7,0.6-2.8,0.6
		c-1.2,0-2.3-0.2-3.3-0.7c-1.1-0.6-1.8-1.4-2-2.4l-2.6,0.5c0.4,1.6,1.4,2.8,2.9,3.6c1.3,0.7,2.9,1.1,4.8,1.1c2,0,3.6-0.4,5-1.2
		c1.6-0.9,2.4-2.3,2.4-4C528.1,75.5,527.4,74.2,525.9,73.3z"/>
	<polygon opacity="0.6" fill="#FFFFFF" points="324,86.9 329.2,87 351.8,58.6 346.3,58.6 	"/>
</g>
</svg>
