<?xml version="1.0" encoding="utf-8"?>
<!-- Generator: Adobe Illustrator 17.1.0, SVG Export Plug-In . SVG Version: 6.00 Build 0)  -->
<!DOCTYPE svg PUBLIC "-//W3C//DTD SVG 1.1//EN" "http://www.w3.org/Graphics/SVG/1.1/DTD/svg11.dtd">
<svg version="1.1" id="Capa_1" xmlns="http://www.w3.org/2000/svg" xmlns:xlink="http://www.w3.org/1999/xlink" x="0px" y="0px"
	 viewBox="0 0 160.6 227.7" enable-background="new 0 0 160.6 227.7" xml:space="preserve">
<g>
	<path opacity="0.6" fill="#FFFFFF" d="M19.4,216.8c3.4-1.4,6.2-4.3,8.4-8.4c2.2-4.1,3.3-8.9,3.3-14.4c0-6.8-1.5-12.3-4.5-16.7
		c-3-4.5-6.6-6.7-10.8-6.7c-4.3,0-8.1,2.2-11.1,6.7c-3.1,4.4-4.6,9.9-4.6,16.6c0,4.3,0.5,8,1.6,11c1,3.1,2.5,5.8,4.4,7.9
		c1.3,1.5,4.3,4.6,9.8,4.8c0.2,0,0.4,0,0.6,0.1c0.8,2.6,14.7,19.8,26.9,2.3c-0.3-0.3-0.6-0.9-1.4-1.8
		C32.5,225.9,20.9,220.7,19.4,216.8z M15.5,215.1c-2.8,0-5.1-1.5-6.8-4.5c-2.2-3.9-3.3-9.5-3.3-16.7c0-7.4,1.1-12.9,3.3-16.4
		c1.7-2.8,4-4.3,6.9-4.3c1.8,0,3.5,0.6,4.9,2c1.5,1.3,2.7,3.3,3.5,6.2c1.2,3.6,1.7,8.1,1.7,13.4c0,6.9-1.1,12.2-3.1,15.8
		C20.7,213.6,18.4,215.1,15.5,215.1z"/>
	<path opacity="0.6" fill="#FFFFFF" d="M54.6,213c-0.3,0-0.7-0.2-0.9-0.5c-0.3-0.3-0.4-0.8-0.6-1.7c-0.1-0.7-0.1-2.9-0.1-6.3v-18.4
		h-7.5v1.1c1.4,0,2.4,0.4,2.8,1c0.5,0.6,0.7,1.8,0.7,3.6v17.1c-1.2,1.7-2.2,2.8-3,3.4c-0.8,0.6-1.6,0.8-2.2,0.8
		c-0.9,0-1.7-0.4-2.4-1.3c-0.7-0.9-1-2.7-1-5.6v-20.3h-7.6v1.1c1.2,0,1.9,0.1,2.4,0.4c0.4,0.3,0.8,0.7,1,1.2c0.2,0.6,0.3,1.5,0.3,3
		v13.6c0,2.8,0.2,5,0.5,6.6c0.3,1.5,0.9,2.8,1.8,3.8c0.9,1,1.9,1.5,3.1,1.5c1,0,2-0.3,3-1.1c1-0.7,2.4-2.5,4.2-5.3v6.4h1l6.4-3.7
		l-0.3-1.1C55.5,212.8,55,213,54.6,213z"/>
	<path opacity="0.6" fill="#FFFFFF" d="M75.4,212.7c-0.3,0-0.4-0.1-0.6-0.3c-0.2-0.2-0.3-0.7-0.4-1.3c-0.1-0.6-0.2-2.4-0.2-5.3
		v-10.3c0-2.9-0.1-4.9-0.4-5.8c-0.5-1.4-1.2-2.5-2-3.2c-1.2-0.9-2.8-1.4-4.7-1.4c-2.5,0-4.4,0.8-5.8,2.4c-1.4,1.6-2.1,3.3-2.1,5.2
		c0,1,0.2,1.8,0.5,2.4c0.4,0.6,0.9,0.9,1.5,0.9c0.6,0,1.1-0.3,1.5-0.8c0.4-0.6,0.5-1.3,0.5-2.3l0-1.9c0-1,0.3-1.8,0.9-2.6
		c0.6-0.7,1.4-1.1,2.3-1.1c1.3,0,2.2,0.6,2.9,1.7c0.7,1.1,1,3.2,1,6.1v1.2c-3.6,1.9-6.2,3.5-7.8,4.8c-1.5,1.3-2.7,2.7-3.3,4.1
		c-0.5,1.1-0.7,2.4-0.7,3.9c0,2.2,0.5,4.2,1.5,5.6c0.9,1.4,2.2,2.1,3.6,2.1c1,0,1.8-0.3,2.7-0.8c0.6-0.4,1.9-1.8,4.1-4.1
		c0,1.8,0.3,3,0.8,3.7c0.5,0.7,1.1,1.1,1.8,1.1c1.7,0,3.4-1.7,5.1-4.9V210c-0.9,1.4-1.6,2.1-1.9,2.4
		C75.8,212.6,75.6,212.7,75.4,212.7z M70.2,209.9c-1.9,2.2-3.4,3.2-4.6,3.2c-0.9,0-1.6-0.5-2.3-1.6c-0.6-1-1-2.3-1-3.8
		c0-1.2,0.3-2.4,0.8-3.4c0.6-1.1,1.4-2,2.6-3c0.7-0.5,2.2-1.4,4.5-2.7V209.9z"/>
	<path opacity="0.6" fill="#FFFFFF" d="M87.2,213.3c-0.3-0.6-0.3-1.9-0.3-3.7v-40.1h-1l-6.3,3.7l0.4,1.2c0.6-0.4,1.1-0.6,1.5-0.6
		c0.3,0,0.7,0.2,0.8,0.4c0.3,0.3,0.5,0.8,0.5,1.6c0.1,0.8,0.2,2.9,0.2,6.4v27.4c0,1.9-0.1,3.2-0.3,3.8c-0.2,0.6-0.5,1.1-0.8,1.4
		c-0.4,0.3-1.1,0.4-2.1,0.4v1.1h10.6v-1.1c-1,0-1.8-0.1-2.2-0.4C87.7,214.4,87.4,214,87.2,213.3z"/>
	<path opacity="0.6" fill="#FFFFFF" d="M96.6,170.4c-0.4,0.7-0.6,1.5-0.6,2.3c0,0.9,0.2,1.7,0.6,2.5c0.5,0.6,1,0.9,1.7,0.9
		c0.6,0,1.2-0.3,1.6-0.9c0.5-0.7,0.7-1.5,0.7-2.5c0-0.9-0.2-1.6-0.7-2.3c-0.4-0.6-1-1-1.6-1C97.6,169.4,97.1,169.8,96.6,170.4z"/>
	<path opacity="0.6" fill="#FFFFFF" d="M100.5,213.4c-0.2-0.7-0.3-1.9-0.3-3.8v-24.4h-1l-6.4,3.7l0.3,1.1c0.6-0.3,1.1-0.4,1.6-0.4
		c0.4,0,0.7,0.1,0.9,0.4c0.2,0.3,0.4,0.7,0.5,1.5c0.1,1,0.2,3.2,0.2,6.6v11.7c0,1.9-0.1,3.2-0.3,3.8c-0.2,0.6-0.5,1.1-0.9,1.4
		c-0.3,0.3-1,0.4-2,0.4v1.1h10.3v-1.1c-1,0-1.7-0.1-2.1-0.4C101,214.4,100.7,214,100.5,213.4z"/>
	<path opacity="0.6" fill="#FFFFFF" d="M115.8,212.4c-0.5,0.4-1,0.6-1.5,0.6c-0.6,0-1.1-0.3-1.5-1c-0.4-0.7-0.6-2-0.6-4v-19.6h5.1
		v-2.3h-5.1V176h-0.7c-0.7,2.2-1.1,3.8-1.5,4.7c-0.7,1.6-1.5,2.9-2.4,4.1c-0.9,1.2-1.8,2-2.6,2.5v1.1h3.4v20.3
		c0,2.2,0.2,3.8,0.5,4.9c0.3,1,0.8,1.9,1.6,2.4c0.7,0.5,1.5,0.8,2.1,0.8c1,0,2.1-0.5,3.1-1.6c1-1,1.8-2.7,2.3-4.8h-1
		C116.6,211.3,116.3,211.9,115.8,212.4z"/>
	<path opacity="0.6" fill="#FFFFFF" d="M136.5,212.7c-0.2,0-0.4-0.1-0.6-0.3c-0.1-0.2-0.3-0.7-0.4-1.3c0-0.6-0.1-2.4-0.1-5.3v-10.3
		c0-2.9-0.1-4.9-0.4-5.8c-0.4-1.4-1.1-2.5-2-3.2c-1.2-0.9-2.8-1.4-4.7-1.4c-2.5,0-4.4,0.8-5.8,2.4c-1.4,1.6-2.1,3.3-2.1,5.2
		c0,1,0.2,1.8,0.6,2.4c0.4,0.6,0.9,0.9,1.4,0.9c0.6,0,1.1-0.3,1.5-0.8c0.4-0.6,0.5-1.3,0.5-2.3l-0.1-1.9c0-1,0.3-1.8,0.9-2.6
		c0.5-0.7,1.3-1.1,2.2-1.1c1.3,0,2.3,0.6,2.9,1.7c0.7,1.1,1,3.2,1,6.1v1.2c-3.6,1.9-6.2,3.5-7.8,4.8c-1.6,1.3-2.6,2.7-3.3,4.1
		c-0.5,1.1-0.7,2.4-0.7,3.9c0,2.2,0.5,4.2,1.4,5.6c0.9,1.4,2.2,2.1,3.7,2.1c0.9,0,1.8-0.3,2.6-0.8c0.6-0.4,1.9-1.8,4.1-4.1
		c0.1,1.8,0.3,3,0.8,3.7c0.4,0.7,1.1,1.1,1.9,1.1c1.6,0,3.3-1.7,5.1-4.9V210c-0.9,1.4-1.5,2.1-1.8,2.4
		C136.9,212.6,136.7,212.7,136.5,212.7z M131.3,209.9c-1.8,2.2-3.4,3.2-4.6,3.2c-0.9,0-1.6-0.5-2.3-1.6c-0.7-1-1-2.3-1-3.8
		c0-1.2,0.3-2.4,0.8-3.4c0.5-1.1,1.4-2,2.7-3c0.7-0.5,2.1-1.4,4.4-2.7V209.9z"/>
	<path opacity="0.6" fill="#FFFFFF" d="M155.9,208.1c0-3.6-1.6-6.5-4.7-8.7l-3.4-2.4c-1.5-1-2.4-2-2.9-2.9c-0.5-0.9-0.7-1.9-0.7-3.2
		c0-1,0.3-1.9,1-2.7c0.6-0.8,1.5-1.2,2.6-1.2c1.3,0,2.5,0.6,3.5,1.7c0.9,1.2,1.6,3.4,2.2,6.6h0.8v-10.3h-0.8
		c-0.1,0.5-0.3,0.9-0.5,1.1c-0.1,0.1-0.3,0.2-0.6,0.2c-0.2,0-0.8-0.2-1.6-0.5c-1.2-0.5-2.1-0.8-3-0.8c-1.9,0-3.5,0.8-4.7,2.5
		c-1.2,1.7-1.8,3.7-1.8,6.2c0,1.9,0.3,3.5,1.1,4.8c0.7,1.2,2.2,2.7,4.4,4.3c2.3,1.6,3.7,2.9,4.5,4c0.7,1.1,1.1,2.3,1.1,3.8
		c0,1.3-0.3,2.4-1,3.2c-0.6,0.9-1.5,1.3-2.6,1.3c-1.5,0-2.9-0.8-4.1-2.3c-1.2-1.6-2.1-3.9-2.4-7h-0.8v10.8h0.8
		c0.2-0.5,0.5-0.8,0.8-0.8c0.3,0,0.7,0.1,1.2,0.3c1.7,0.6,3.2,0.9,4.5,0.9c1.8,0,3.5-0.8,4.9-2.5C155.2,213,155.9,210.8,155.9,208.1
		z"/>
	<path opacity="0.6" fill="#FFFFFF" d="M73.6,175.9c1.1-1,1.4-1.9,1.4-2.7c-0.1-1.4-1.1-2.4-2.3-2.3c-1.2,0.1-1.8,1-3,2.8l-5.8,9.4
		l2.4-0.2L73.6,175.9z"/>
	<path opacity="0.6" fill="#FFFFFF" d="M158.1,220c0-1.1-0.6-1.5-1.9-1.5h-2.1v5.5h0.7v-2.4h1.1l1.5,2.4h0.9l-1.6-2.4
		C157.5,221.4,158.1,221,158.1,220z M154.9,221v-1.9h1.2c0.7,0,1.3,0.1,1.3,0.9c0,0.8-0.6,1-1.3,1H154.9z"/>
	<path opacity="0.6" fill="#FFFFFF" d="M156,216.6c-2.6,0-4.6,2.1-4.6,4.6c0,2.6,2,4.7,4.6,4.7c2.6,0,4.6-2.1,4.6-4.7
		C160.6,218.7,158.5,216.6,156,216.6z M156,225.3c-2.2,0-3.9-1.8-3.9-4.1c0-2.3,1.7-4,3.9-4c2.2,0,3.9,1.8,3.9,4
		C159.9,223.6,158.2,225.3,156,225.3z"/>
	<path opacity="0.6" fill="#FFFFFF" d="M79.4,102c29.3,0,52.9-16.7,52.9-45.3c0-28.6-23.6-45.3-52.9-45.3
		c-29.3,0-52.9,16.7-52.9,45.3C26.5,85.3,50.1,102,79.4,102z M73.4,21.4c1.9-0.3,3.9-0.5,6-0.5c3.3,0,6.5,0.4,9.5,1.2
		c11.3,4,18.5,15.6,18.5,32.4c0,21.1-8.6,33.1-19.8,37.1c-2.6,0.6-5.4,0.9-8.3,0.9c-4.8,0-9.3-0.8-13.4-2.5
		c-8.1-4.5-13.8-14.2-13.8-31.7C52.2,40,59.9,25,73.4,21.4z"/>
	<path opacity="0.6" fill="#FFFFFF" d="M93,139.7c7,4.6,11.3-0.3,11.3-0.3s16.5-16.2,28.2-24.4c4.6-4.8,0.6-8.7-4.6-5.8
		c-4,2.1-18.9,10.6-48,4.6c-10.1-2.4-53.2-21.4-53.2-21.4l-3.4,7.7c0,0,23.3,9.6,32.4,16C65.1,122.1,85.9,135.1,93,139.7z"/>
	<path opacity="0.6" fill="#FFFFFF" d="M158,153.5v-4.9V5.4V0.3V0H5.8H0.3v5.4v143.2v5.2v0.1H158V153.5z M152.6,148.6H5.8V5.4h146.7
		V148.6z"/>
	<rect x="0.5" y="158.1" opacity="0.6" fill="#FFFFFF" width="4.8" height="4.9"/>
	<rect x="13.1" y="158.1" opacity="0.6" fill="#FFFFFF" width="4.8" height="4.9"/>
	<rect x="25.7" y="158.1" opacity="0.6" fill="#FFFFFF" width="4.8" height="4.9"/>
	<rect x="38.4" y="158.1" opacity="0.6" fill="#FFFFFF" width="4.8" height="4.9"/>
	<rect x="50.8" y="158.1" opacity="0.6" fill="#FFFFFF" width="4.8" height="4.9"/>
	<rect x="63.6" y="158.1" opacity="0.6" fill="#FFFFFF" width="4.8" height="4.9"/>
	<rect x="76.1" y="158.1" opacity="0.6" fill="#FFFFFF" width="4.8" height="4.9"/>
	<rect x="88.9" y="158.1" opacity="0.6" fill="#FFFFFF" width="4.8" height="4.9"/>
	<rect x="101.5" y="158.1" opacity="0.6" fill="#FFFFFF" width="4.9" height="4.9"/>
	<rect x="114.1" y="158.1" opacity="0.6" fill="#FFFFFF" width="4.8" height="4.9"/>
	<rect x="126.8" y="158.1" opacity="0.6" fill="#FFFFFF" width="4.8" height="4.9"/>
	<rect x="139.3" y="158.1" opacity="0.6" fill="#FFFFFF" width="4.8" height="4.9"/>
	<rect x="151.9" y="158.1" opacity="0.6" fill="#FFFFFF" width="4.8" height="4.9"/>
</g>
</svg>
