<?xml version="1.0" encoding="utf-8"?>
<!-- Generator: Adobe Illustrator 17.1.0, SVG Export Plug-In . SVG Version: 6.00 Build 0)  -->
<!DOCTYPE svg PUBLIC "-//W3C//DTD SVG 1.1//EN" "http://www.w3.org/Graphics/SVG/1.1/DTD/svg11.dtd">
<svg version="1.1" id="Capa_1" xmlns="http://www.w3.org/2000/svg" xmlns:xlink="http://www.w3.org/1999/xlink" x="0px" y="0px"
	 viewBox="0 0 300.8 113.4" enable-background="new 0 0 300.8 113.4" xml:space="preserve">
<g>
	<path opacity="0.6" fill="#FFFFFF" d="M123.9,76.6c8.9,0,18.7-2.7,22.9-3.8l0.9-0.9l-0.1-17.8c-0.1-4.4-0.1-4.8,3.6-6.3l2.5-1v-2.2
		h-24.1v2.2l2.4,1.2c3.5,1.9,2.9,3,2.9,6.1c0,1.7,0,10.8,0,10.8c-0.2,3.5-1.2,6.6-7.1,6.6c-18.1,0-19.7-14.1-19.7-29.7
		c0-17.9,0.8-28.5,15.9-28.5c13.1,0,18.1,11.5,18.1,15.8h1.7l4.5-8.7c0.3-0.6,0.6-0.9,0.6-2.4c0-0.8-0.2-2.8-2.3-4.5
		c-6.3-5.3-15.3-5.3-20.3-5.3c-18.6,0-32.8,10.6-32.8,35.1C93.6,66.1,103.6,76.6,123.9,76.6z"/>
	<path opacity="0.6" fill="#FFFFFF" d="M182.7,73.2l-5.8-2c-4.1-1.4-4.1-2.9-4.1-7.6V28.4c0-1.4,0-2.4,0.9-2.4
		c0.5,0,1.1,0.9,2.4,2.6l23,30.8c5.2,7,10.3,14.2,11.2,15.2l1.1,0.8h5.5l0.7-0.8c0-2-0.1-8-0.1-14V21.8c0-6.5,0.8-7.5,5-9.1l2.9-1.1
		V9.5h-22.5v2.2l5.6,2.2c3.8,1.6,3.9,2.5,3.9,7V52c0,1.8,0,2.8-0.8,2.8c-0.4,0-0.8-0.5-1.6-1.6l-19-25.8
		c-5.5-7.5-9.6-14.6-11.6-17.2l-1.1-0.7h-17.9v2.2l3.9,2.7c2.5,1.7,3.4,3.2,3.4,6.4v41.1c0,5.7,0,8.3-3.5,9.6l-4.3,1.7v2.2h22.9
		V73.2z"/>
	<path opacity="0.6" fill="#FFFFFF" d="M261.4,73.2l-5.1-1.4c-3.9-1.1-3.8-2.5-3.8-9.1V18.2c0-2.5,0.4-3.4,6.4-3.4
		c8.8,0,12,2,12.9,12.8c1.2,13.8-7.5,16.8-14.6,16.9l-0.8,0.8l1.5,3.5c0.6,0,1.5,0.1,2.2,0.1c15.9,0,26.2-8.5,26.2-22.1
		c0-14.9-11.2-17.4-22.6-17.4H231v2.2l4.3,1.6c3.4,1.1,3.4,2.3,3.4,7v42.5c0,6.2-0.1,8-3.4,9.1l-4.3,1.4v2.2h30.4V73.2z"/>
	<rect x="93.6" y="84.2" opacity="0.6" fill="#FFFFFF" width="207.2" height="1.4"/>
	<path opacity="0.6" fill="#FFFFFF" d="M53.1,42.1c0-6.1-4.9-11-11-11c-6.1,0-11,4.9-11,11c0,6.1,4.9,11,11,11
		C48.2,53.1,53.1,48.1,53.1,42.1z"/>
	<path opacity="0.6" fill="#FFFFFF" d="M16.7,38.4L16.7,38.4c12,0,21.7-9.8,21.8-21.8V4.8L23.8,0v23.7H0l4.8,14.7H16.7z"/>
	<path opacity="0.6" fill="#FFFFFF" d="M16.6,45.8H4.8L0,60.4h23.7v23.7l14.7-4.8V67.5h0C38.4,55.5,28.7,45.8,16.6,45.8z"/>
	<path opacity="0.6" fill="#FFFFFF" d="M67.5,45.8L67.5,45.8c-12,0-21.8,9.8-21.8,21.8v0v11.8l14.6,4.8V60.4h23.8l-4.9-14.7H67.5z"
		/>
	<path opacity="0.6" fill="#FFFFFF" d="M60.4,0L45.8,4.8v11.8c0,12,9.8,21.7,21.8,21.8h0h11.8l4.9-14.6H60.4V0z"/>
	<path opacity="0.6" fill="#FFFFFF" d="M295.3,20.5c3,0,5.5-2.5,5.5-5.5c0-3.1-2.5-5.5-5.5-5.5c-3,0-5.5,2.5-5.5,5.5
		C289.8,18,292.3,20.5,295.3,20.5z M295.3,10.6c2.3,0,4.1,1.8,4.1,4.4c0,2.6-1.9,4.4-4.1,4.4c-2.3,0-4.2-1.9-4.2-4.4
		C291.2,12.4,293,10.6,295.3,10.6z"/>
	<path opacity="0.6" fill="#FFFFFF" d="M294.4,15.4h0.7l0.3,0.4l1.3,2.3h1.2l-1.7-2.8c1-0.1,1.6-0.6,1.6-1.7c0-1.3-0.8-1.8-2.3-1.8
		h-0.2h-2.1v6.3h1.2V15.4z M294.4,12.7h1h0.1c0.6,0,1.2,0.1,1.2,0.9c0,0.8-0.6,0.9-1.3,0.9h0h-1V12.7z"/>
	<path opacity="0.6" fill="#FFFFFF" d="M101.4,103.1l-1.7-0.9c-1.3-0.6-2.3-1.7-2.3-2.9c0-1.3,0.9-2.4,2.6-2.4
		c1.8,0,2.9,1.9,3.3,3.1c0.2,0.3,0.9,0.2,1-0.1c0-1.7-0.2-3.1-0.4-3.6c-0.3,0-0.5-0.1-0.9-0.2c-1-0.3-2-0.4-2.9-0.4
		c-3.7,0-5.9,2-5.9,4.8c0,2.5,2,4,3.8,4.9c1.5,0.8,3.4,2,3.4,4c0,1.3-0.8,2.6-2.7,2.6c-2.2,0-3.9-2.3-4.4-4c-0.2-0.3-0.8-0.3-1,0.1
		c0,1.7,0.3,3.5,0.8,4.1c0.5,0.3,2,1,4.3,1c3.8,0,6.4-2,6.4-5.1C104.9,105.4,102.9,104,101.4,103.1z"/>
	<path opacity="0.6" fill="#FFFFFF" d="M133.1,108.8c-1.4,2.9-2.3,2.9-4.4,2.9c-1.9,0-2.3-0.2-2.7-0.7c-0.3-0.4-0.4-1.2-0.4-2.4v-3
		c0-0.8,0-0.8,0.7-0.8h1.7c1.3,0,1.6,0.2,1.9,1.4l0.1,0.6c0.2,0.2,0.8,0.2,0.9,0c-0.1-0.8-0.1-1.7-0.1-2.7c0-0.9,0-1.9,0.1-2.7
		c-0.1-0.2-0.8-0.2-0.9,0l-0.1,0.6c-0.3,1.2-0.6,1.4-1.9,1.4h-1.7c-0.7,0-0.7,0-0.7-0.8v-4.4c0-0.9,0-1,0.8-1h2c1.2,0,2,0.3,2.5,0.8
		c0.3,0.4,0.7,1.1,0.9,2c0.3,0.2,0.8,0.2,0.9-0.1c-0.1-1.7-0.3-3.5-0.3-3.9c-0.3,0.1-1.8,0.1-3.4,0.1h-5.4c-1.2,0-2.4,0-3.6-0.1
		c-0.3,0.1-0.3,0.7-0.1,0.9l0.6,0.1c1.1,0.2,1.3,0.4,1.3,2.7v9.4c0,2.3-0.1,2.5-1.3,2.7l-1.2,0.2c-0.2,0.1-0.2,0.7,0,0.9
		c1.9-0.1,3.1-0.1,4.4-0.1h3.3c2.1,0,4.5,0,5.8,0.1c0.4-0.7,1-2.7,1.1-4C133.9,108.7,133.3,108.6,133.1,108.8z"/>
	<path opacity="0.6" fill="#FFFFFF" d="M162.5,106c-1.2,0-2.5,0-4.3-0.1c-0.3,0.1-0.3,0.7,0,0.9l1.1,0.1c1.2,0.2,1.4,0.3,1.4,1.7
		v1.6c0,1.6-0.3,1.9-1.7,1.9c-0.9,0-2.3-0.2-3.5-1c-1.6-1.1-2.9-3.3-2.9-6.9c0-4,1.9-7.3,6-7.3c2.4,0,4,1.2,4.8,3.6
		c0.2,0.3,0.9,0.2,1-0.1c-0.2-1.6-0.3-3.3-0.4-4.1c-0.8,0-2.2-0.6-5-0.6c-2.2,0-4.2,0.4-5.9,1.3c-3.1,1.7-4.5,4.5-4.5,7.7
		c0,3.6,2,6.4,5,7.6c1.8,0.7,3.3,0.9,5,0.9c1.4,0,3.6-0.3,4.5-0.6c0.7-0.2,1.3-0.3,1.8-0.4c0.2-0.1,0.2-0.5,0.1-0.6
		c-0.5-0.1-0.5-0.6-0.5-1.7v-1.4c0-1.4,0.1-1.6,0.9-1.8l0.6-0.1c0.2-0.2,0.2-0.7,0-0.9C164.9,106,163.7,106,162.5,106z"/>
	<path opacity="0.6" fill="#FFFFFF" d="M195.1,96.2c-1,0-2,0-3.4-0.1c-0.2,0.1-0.2,0.7,0,0.9l0.7,0.1c0.7,0.1,1.2,0.3,1.5,0.8
		c0.3,0.7,0.4,2.6,0.4,4.6v3.1c0,3.5-1,6.3-4.2,6.3c-3.8,0-4.2-3.3-4.2-6.2v-5.8c0-2.4,0.1-2.6,1.3-2.8l0.6-0.1
		c0.2-0.2,0.2-0.7,0-0.9c-1.2,0.1-2.5,0.1-3.7,0.1c-1.2,0-2.5,0-3.7-0.1c-0.3,0.1-0.3,0.7,0,0.9l0.6,0.1c1.1,0.2,1.3,0.4,1.3,2.7
		v6.3c0,2.8,0.5,4.6,1.9,5.7c1.4,1.1,3.1,1.4,5,1.4c2,0,3.9-0.6,5-1.8c1.4-1.6,1.6-3.7,1.6-6.1v-2.8c0-2,0.1-4,0.4-4.6
		c0.2-0.5,0.7-0.7,1.4-0.8L198,97c0.2-0.2,0.2-0.7,0-0.9C197,96.2,196.1,96.2,195.1,96.2z"/>
	<path opacity="0.6" fill="#FFFFFF" d="M227.4,111.5c-1.2-1-2.2-2.9-3.9-6.3c-0.1-0.3-0.1-0.4,0.1-0.6c1.2-0.6,2.7-1.5,2.7-3.8
		c0-1.6-0.8-2.9-2.2-3.7c-1-0.6-2.8-0.9-5-0.9c-2.4,0-4.4,0.1-6.3,0.2c-0.3,0.1-0.3,0.7,0,0.9l0.7,0.1c1.1,0.1,1.1,0.4,1.1,3v9
		c0,2.3-0.1,2.5-1.3,2.7l-0.7,0.1c-0.2,0.1-0.2,0.7,0,0.9c1.3-0.1,2.4-0.1,3.7-0.1c1.2,0,2.4,0,3.7,0.1c0.2-0.1,0.2-0.8,0-0.9
		l-0.7-0.1c-1.1-0.2-1.3-0.4-1.3-2.7v-3.1c0-0.5,0-0.5,0.9-0.5c0.6,0,1,0.2,1.3,0.9c0.6,1.3,1.2,2.6,2,3.9c1.1,1.8,2.6,2.7,4.9,2.7
		c0.8,0,1.6,0,2-0.2c0.1-0.1,0.1-0.5-0.1-0.7C228.7,112.2,228,112,227.4,111.5z M221.5,103.8c-0.5,0.5-1,0.7-1.9,0.7
		c-1.5,0-1.6-0.1-1.6-1v-4.9c0-1.2,0-1.3,1.1-1.3c2,0,3.3,1.5,3.3,3.8C222.4,102.6,221.9,103.4,221.5,103.8z"/>
	<path opacity="0.6" fill="#FFFFFF" d="M251.2,95.8c-5.3,0-9,3.9-9,8.9c0,5.3,3.7,8.6,8.8,8.6c5.4,0,9.1-3.3,9.1-8.8
		C260,99.4,256.4,95.8,251.2,95.8z M251.4,112.2c-4.1,0-5.2-5-5.2-8.1c0-4.2,1.7-7.1,4.8-7.1c3.1,0,5,3.5,5,7.8
		C256,108.9,254.7,112.2,251.4,112.2z"/>
	<path opacity="0.6" fill="#FFFFFF" d="M283,103.1l-1.7-0.9c-1.3-0.6-2.3-1.7-2.3-2.9c0-1.3,0.9-2.4,2.6-2.4c1.8,0,2.9,1.9,3.3,3.1
		c0.2,0.3,0.9,0.2,1-0.1c0-1.7-0.3-3.1-0.5-3.6c-0.3,0-0.5-0.1-0.9-0.2c-1-0.3-2-0.4-2.9-0.4c-3.7,0-5.9,2-5.9,4.8
		c0,2.5,2,4,3.8,4.9c1.5,0.8,3.4,2,3.4,4c0,1.3-0.9,2.6-2.7,2.6c-2.2,0-3.9-2.3-4.4-4c-0.2-0.3-0.8-0.3-1,0.1c0,1.7,0.3,3.5,0.8,4.1
		c0.5,0.3,2,1,4.3,1c3.8,0,6.4-2,6.4-5.1C286.5,105.4,284.5,104,283,103.1z"/>
</g>
</svg>
