<?xml version="1.0" encoding="utf-8"?>
<!-- Generator: Adobe Illustrator 17.1.0, SVG Export Plug-In . SVG Version: 6.00 Build 0)  -->
<!DOCTYPE svg PUBLIC "-//W3C//DTD SVG 1.1//EN" "http://www.w3.org/Graphics/SVG/1.1/DTD/svg11.dtd">
<svg version="1.1" id="Capa_1" xmlns="http://www.w3.org/2000/svg" xmlns:xlink="http://www.w3.org/1999/xlink" x="0px" y="0px"
	 viewBox="0 0 336.3 70" enable-background="new 0 0 336.3 70" xml:space="preserve">
<g>
	<path opacity="0.6" fill="#FFFFFF" d="M34.7,0C15.6,0,0,15.7,0,35c0,19.3,15.6,35,34.7,35c19.2,0,34.7-15.7,34.7-35
		C69.4,15.7,53.9,0,34.7,0z M34.7,66.7C17.4,66.7,3.3,52.5,3.3,35c0-17.5,14-31.7,31.4-31.7c17.4,0,31.4,14.1,31.4,31.7
		C66.1,52.5,52.1,66.7,34.7,66.7z"/>
	<path opacity="0.6" fill="#FFFFFF" d="M50.4,23.5c-1.2-0.9-2.7-1.2-4.2-0.9c-0.5-1.6-1.8-3-3.4-3.6c-2.6-0.9-5.3-1.5-8.2-1.5
		c-2.9,0-5.6,0.5-8.2,1.4c-0.2,0.1-0.4,0.2-0.7,0.3c-1.3,0.7-2.3,1.9-2.8,3.3c-1.5-0.2-3.2,0.2-4.3,1.1c-1.8,1.5-3.3,3.3-4.5,5.4
		c-1.2,2.1-2,4.3-2.4,6.6c0,0.2-0.1,0.4-0.1,0.7c-0.1,1.9,0.8,3.7,2.6,4.7c0.9,0.5,1.9,0.7,2.8,0.7l11.3,0c0.8,0,2.9,0,4.6,0v10.7
		h3.4V41.8c1.6,0,3.8,0,4.6,0l11.3,0c1,0,2-0.2,2.8-0.7c1.7-1,2.6-2.8,2.6-4.7c0-0.3,0-0.5-0.1-0.7c-0.4-2.2-1.2-4.5-2.4-6.6
		C54,27,52.2,25,50.4,23.5z M29.4,37.9c-0.2,0.3-0.5,0.5-0.8,0.4l-11.5,0c-0.3,0-0.7,0-1-0.2c-0.6-0.3-0.9-1-0.8-1.6
		c0-0.1,0-0.1,0-0.2c0.3-1.9,1-3.7,2-5.5c1-1.7,2.3-3.2,3.7-4.5c0,0,0.1,0,0.1,0c0.5-0.4,1.3-0.5,1.9-0.1c0.3,0.2,0.6,0.4,0.7,0.8
		L29.3,37C29.5,37.2,29.5,37.6,29.4,37.9z M35.7,37.8c-0.2,0.3-0.6,0.6-1,0.6c-0.4,0-0.8-0.2-0.9-0.6l-7.1-12.3
		c-0.2-0.4-0.4-0.8-0.4-1.2c0-0.9,0.5-1.6,1.2-1.9c0-0.1,0.1-0.1,0.1-0.1c2.2-0.8,4.6-1.2,7.1-1.2c2.5,0,4.8,0.4,7,1.3
		c0.1,0,0.1,0,0.1,0c0.8,0.3,1.3,1.1,1.3,2c0,0.5-0.1,0.9-0.4,1.3L35.7,37.8z M54.2,36.5c0.1,0.6-0.2,1.3-0.8,1.6
		c-0.3,0.2-0.7,0.3-1,0.2l-11.5,0c-0.4,0-0.6-0.1-0.8-0.4c-0.2-0.3-0.2-0.6,0-0.9l5.7-10.1c0.1-0.3,0.4-0.6,0.7-0.8
		c0.6-0.4,1.4-0.3,1.9,0.1c0,0,0.1,0,0.1,0c1.5,1.2,2.8,2.8,3.7,4.5c1,1.8,1.7,3.6,2,5.5C54.2,36.4,54.3,36.4,54.2,36.5z"/>
	<polygon opacity="0.6" fill="#FFFFFF" points="108,34.2 99.6,16.7 86.7,16.7 86.7,51.7 99.6,51.7 99.6,34.2 108,51.7 116.5,34.2 
		116.5,51.7 129.3,51.7 129.3,16.7 116.5,16.7 	"/>
	<path opacity="0.6" fill="#FFFFFF" d="M143.4,16.7l-10,35h12.8l1.6-5.7h13.7l1.6,5.7H176l-10-35H143.4z M149.5,40.2l5.2-18.3
		l5.2,18.3H149.5z"/>
	<path opacity="0.6" fill="#FFFFFF" d="M204.1,16.7h-24v35h12.8V37.1h11.2c5.6,0,10.1-4.6,10.1-10.2
		C214.2,21.3,209.7,16.7,204.1,16.7z M195.9,31.2h-2.8V20.7h2.8c2.9,0,5.7,1.6,5.7,4.7C201.6,28.6,199.1,31.2,195.9,31.2z"/>
	<polygon opacity="0.6" fill="#FFFFFF" points="218.7,51.7 231.5,51.7 231.5,37 252.7,37 252.7,31.3 231.5,31.3 231.5,22.4 
		252.7,22.4 252.7,16.7 218.7,16.7 	"/>
	<polygon opacity="0.6" fill="#FFFFFF" points="296.1,51.7 330.2,51.7 330.2,45.9 308.9,45.9 308.9,37 330.2,37 330.2,31.3 
		308.9,31.3 308.9,22.4 330.2,22.4 330.2,16.7 296.1,16.7 	"/>
	<path opacity="0.6" fill="#FFFFFF" d="M291.3,25.4c0-4.8-3.9-8.7-8.6-8.7h-11.2h-14.2v17.5v17.5h13V37.2h2.8c3.1,0,5.7,2.5,5.7,5.7
		c0,0.1,0,0.2,0,0.3v8.5h3.9h8.6v-8.8c0,0,0-0.1,0-0.3c-0.2-4.7-4-8.4-8.6-8.4C287.4,34.2,291.3,30.3,291.3,25.4z M273,31.2h-2.8
		V20.7h2.8c2.8,0,5.7,1.6,5.7,4.7C278.7,28.6,276.2,31.2,273,31.2z"/>
</g>
</svg>
