<?xml version="1.0" encoding="utf-8"?>
<!-- Generator: Adobe Illustrator 17.1.0, SVG Export Plug-In . SVG Version: 6.00 Build 0)  -->
<!DOCTYPE svg PUBLIC "-//W3C//DTD SVG 1.1//EN" "http://www.w3.org/Graphics/SVG/1.1/DTD/svg11.dtd">
<svg version="1.1" id="Capa_1" xmlns="http://www.w3.org/2000/svg" xmlns:xlink="http://www.w3.org/1999/xlink" x="0px" y="0px"
	 viewBox="0 0 112.8 75" enable-background="new 0 0 112.8 75" xml:space="preserve">
<g>
	<rect x="34.3" y="31.4" opacity="0.6" fill="#221F1F" width="2.4" height="8.3"/>
	<polygon opacity="0.6" fill="#221F1F" points="47.1,38.1 42,31.4 38,31.4 38,39.6 40.4,39.6 40.4,32.9 45.6,39.6 49.5,39.6 
		49.5,31.4 47.1,31.4 	"/>
	<path opacity="0.6" fill="#221F1F" d="M59.1,35.4L59.1,35.4c1.5-0.3,1.8-0.9,1.8-1.9c0-1.8-1.3-2.2-3.8-2.2h-6.4v8.3h6.6
		c2.7,0,3.9-0.5,3.9-2.3C61.2,36.3,60.9,35.5,59.1,35.4z M53.2,32.7h3.5c1.2,0,1.8,0.1,1.8,1c0,0.9-0.3,1.2-1.7,1.2h-3.6V32.7z
		 M56.6,38.3h-3.4V36H57c1.5,0,1.8,0.3,1.8,1.2C58.7,38.2,58,38.3,56.6,38.3z"/>
	<path opacity="0.6" fill="#221F1F" d="M70.4,37.2c0,0.9-0.6,1.1-2.8,1.1c-2.3,0-2.8-0.2-2.8-1.1v-5.9h-2.4v5.9
		c0,2.3,2.2,2.4,5.2,2.4c3,0,5.2-0.1,5.2-2.4v-5.9h-2.4V37.2z"/>
	<path opacity="0.6" fill="#221F1F" d="M82.2,38.1v1.5h2.5v-1.5c0-1.2-0.4-1.8-2.2-1.9v0c2.2-0.2,2.3-1.1,2.3-2.3
		c0-1.9-1.1-2.4-3.9-2.5h-6.5v8.3h2.5v-2.7h3.8C81.8,36.9,82.2,37.4,82.2,38.1z M77.3,35.6v-2.8h3.4c1.8,0,2.1,0.2,2.1,1.4
		c0,1.2-0.4,1.4-2.2,1.4H77.3z"/>
	<path opacity="0.6" fill="#221F1F" d="M90.9,39.6c3.2,0,4.9-0.2,4.9-2.5c0-2.1-1.1-2.2-4.9-2.4c-2.4-0.1-2.7-0.1-2.7-1.1
		c0-0.9,0.4-1,2.8-1c1.7,0,2.2,0,2.2,0.9v0.3h2.4v-0.3c0-2.2-2.1-2.2-4.6-2.2c-3,0-5.2,0.1-5.2,2.3c0,2.4,2.1,2.3,4.8,2.4
		c1.9,0.1,2.8-0.1,2.8,1.1c0,1-0.3,1.2-2.5,1.2c-2.2,0-2.8-0.1-2.8-1V37h-2.4v0.4C85.7,39.7,88.1,39.6,90.9,39.6z"/>
	<path opacity="0.6" fill="#221F1F" d="M99.8,38.1h5.4l0.8,1.6h2.4l-4.2-8.3h-3.5l-4.1,8.3h2.5L99.8,38.1z M102.5,32.6L102.5,32.6
		l2.2,4.3h-4.3L102.5,32.6z"/>
	<path opacity="0.6" fill="#221F1F" d="M84,45c-0.2-0.1-0.6-0.2-1.2-0.3c-0.6-0.1-0.9-0.3-1.1-0.4c-0.1-0.1-0.2-0.3-0.2-0.5
		c0-0.2,0.1-0.4,0.3-0.6c0.2-0.2,0.5-0.2,1-0.2c0.4,0,0.7,0.1,0.9,0.3c0.2,0.2,0.3,0.4,0.4,0.8l0.7-0.1c0-0.3-0.1-0.6-0.3-0.8
		c-0.2-0.2-0.4-0.4-0.7-0.6c-0.3-0.1-0.7-0.2-1.1-0.2c-0.4,0-0.7,0.1-1,0.2c-0.3,0.1-0.5,0.3-0.7,0.5c-0.2,0.2-0.2,0.5-0.2,0.8
		c0,0.2,0.1,0.5,0.2,0.7c0.1,0.2,0.3,0.4,0.6,0.5c0.2,0.1,0.6,0.2,1,0.3c0.5,0.1,0.8,0.2,1,0.3c0.2,0.1,0.4,0.2,0.5,0.3
		c0.1,0.1,0.1,0.3,0.1,0.4c0,0.2-0.1,0.3-0.2,0.5c-0.1,0.1-0.3,0.3-0.5,0.3c-0.2,0.1-0.4,0.1-0.7,0.1c-0.3,0-0.6-0.1-0.8-0.2
		c-0.2-0.1-0.4-0.2-0.5-0.4c-0.1-0.2-0.2-0.4-0.2-0.6l-0.7,0.1c0,0.3,0.1,0.7,0.3,1c0.2,0.3,0.4,0.5,0.8,0.6
		c0.3,0.1,0.7,0.2,1.2,0.2c0.4,0,0.7-0.1,1.1-0.2c0.3-0.1,0.5-0.3,0.7-0.6c0.2-0.3,0.3-0.5,0.3-0.8c0-0.3-0.1-0.5-0.2-0.8
		C84.5,45.4,84.3,45.2,84,45z"/>
	<path opacity="0.6" fill="#221F1F" d="M87.4,43.9c-0.5,0-1,0.2-1.3,0.5c-0.3,0.4-0.5,0.9-0.5,1.5c0,0.6,0.2,1.1,0.5,1.5
		c0.3,0.4,0.8,0.5,1.4,0.5c0.5,0,0.8-0.1,1.1-0.3c0.3-0.2,0.5-0.5,0.6-0.9l-0.7-0.1c-0.1,0.3-0.2,0.5-0.4,0.6
		c-0.2,0.1-0.4,0.2-0.6,0.2c-0.3,0-0.6-0.1-0.8-0.3c-0.2-0.2-0.3-0.5-0.4-1h2.9c0-0.1,0-0.1,0-0.2c0-0.6-0.2-1.1-0.5-1.5
		C88.4,44.1,87.9,43.9,87.4,43.9z M86.3,45.5c0-0.3,0.1-0.6,0.3-0.8c0.2-0.2,0.5-0.3,0.8-0.3c0.3,0,0.6,0.1,0.8,0.4
		c0.1,0.2,0.2,0.4,0.3,0.7H86.3z"/>
	<path opacity="0.6" fill="#221F1F" d="M92.6,44.4c-0.3-0.4-0.7-0.5-1.2-0.5c-0.3,0-0.6,0.1-0.9,0.3c-0.3,0.2-0.5,0.4-0.6,0.7
		c-0.1,0.3-0.2,0.7-0.2,1c0,0.5,0.2,1,0.4,1.4c0.3,0.4,0.7,0.6,1.3,0.6c0.4,0,0.8-0.2,1.1-0.5c0,0.4,0,0.7-0.1,0.8
		c-0.1,0.2-0.2,0.4-0.3,0.5c-0.2,0.1-0.4,0.2-0.7,0.2c-0.3,0-0.5-0.1-0.7-0.2c-0.1-0.1-0.2-0.2-0.2-0.4l-0.6-0.1
		c0,0.4,0.1,0.7,0.4,0.9c0.3,0.2,0.7,0.3,1.1,0.3c0.4,0,0.7-0.1,1-0.2c0.3-0.1,0.5-0.3,0.6-0.6c0.1-0.3,0.2-0.7,0.2-1.3V44h-0.6
		V44.4z M92.3,47c-0.2,0.2-0.5,0.3-0.8,0.3c-0.3,0-0.6-0.1-0.8-0.3c-0.2-0.2-0.3-0.6-0.3-1.1c0-0.5,0.1-0.8,0.3-1.1
		c0.2-0.2,0.5-0.4,0.8-0.4c0.3,0,0.6,0.1,0.8,0.4c0.2,0.2,0.3,0.6,0.3,1.1C92.6,46.4,92.5,46.7,92.3,47z"/>
	<path opacity="0.6" fill="#221F1F" d="M96.7,46.1c0,0.3,0,0.6-0.1,0.8c-0.1,0.2-0.2,0.3-0.4,0.4c-0.2,0.1-0.4,0.2-0.6,0.2
		c-0.2,0-0.4-0.1-0.5-0.1c-0.1-0.1-0.2-0.2-0.3-0.4c0-0.1,0-0.3,0-0.7V44h-0.7v2.4c0,0.3,0,0.5,0,0.6c0,0.2,0.1,0.4,0.2,0.5
		c0.1,0.1,0.3,0.2,0.4,0.3c0.2,0.1,0.4,0.1,0.7,0.1c0.5,0,0.9-0.2,1.2-0.7v0.6h0.6V44h-0.7V46.1z"/>
	<path opacity="0.6" fill="#221F1F" d="M99.5,44c-0.1,0.1-0.3,0.3-0.4,0.5V44h-0.6v3.9h0.7v-2c0-0.3,0-0.5,0.1-0.8
		c0.1-0.2,0.1-0.3,0.2-0.4c0.1-0.1,0.2-0.1,0.4-0.1c0.2,0,0.3,0,0.5,0.1l0.2-0.6c-0.2-0.1-0.5-0.2-0.7-0.2
		C99.7,43.9,99.6,43.9,99.5,44z"/>
	<path opacity="0.6" fill="#221F1F" d="M102.6,43.9c-0.5,0-0.9,0.1-1.2,0.4c-0.4,0.3-0.6,0.9-0.6,1.6c0,0.6,0.2,1.1,0.5,1.5
		c0.3,0.3,0.8,0.5,1.3,0.5c0.3,0,0.7-0.1,0.9-0.2c0.3-0.2,0.5-0.4,0.7-0.7c0.1-0.3,0.2-0.7,0.2-1.2c0-0.6-0.2-1.1-0.5-1.4
		C103.6,44.1,103.1,43.9,102.6,43.9z M103.4,47c-0.2,0.2-0.5,0.4-0.8,0.4c-0.3,0-0.6-0.1-0.8-0.4c-0.2-0.3-0.3-0.6-0.3-1.1
		c0-0.5,0.1-0.9,0.3-1.1c0.2-0.3,0.5-0.4,0.8-0.4c0.3,0,0.6,0.1,0.8,0.4c0.2,0.2,0.3,0.6,0.3,1.1C103.7,46.4,103.6,46.8,103.4,47z"
		/>
	<path opacity="0.6" fill="#221F1F" d="M107.6,45.8c-0.2-0.1-0.5-0.2-1-0.3c-0.3-0.1-0.5-0.1-0.6-0.2c-0.1-0.1-0.2-0.1-0.3-0.2
		c0-0.1-0.1-0.1-0.1-0.2c0-0.1,0.1-0.3,0.2-0.4c0.1-0.1,0.4-0.1,0.6-0.1c0.3,0,0.5,0.1,0.6,0.2c0.1,0.1,0.2,0.3,0.3,0.5l0.7-0.1
		c-0.1-0.3-0.1-0.4-0.2-0.6c-0.1-0.1-0.3-0.3-0.5-0.4c-0.2-0.1-0.5-0.1-0.8-0.1c-0.2,0-0.4,0-0.6,0.1c-0.2,0-0.3,0.1-0.4,0.2
		c-0.1,0.1-0.2,0.2-0.3,0.4c-0.1,0.1-0.1,0.3-0.1,0.5c0,0.2,0,0.4,0.1,0.5c0.1,0.2,0.2,0.3,0.4,0.4c0.2,0.1,0.5,0.2,1,0.3
		c0.4,0.1,0.6,0.2,0.7,0.2c0.1,0.1,0.2,0.2,0.2,0.3c0,0.2-0.1,0.3-0.2,0.4c-0.2,0.1-0.4,0.2-0.7,0.2c-0.3,0-0.5-0.1-0.7-0.2
		c-0.2-0.1-0.3-0.3-0.3-0.6l-0.7,0.1c0.1,0.4,0.3,0.7,0.5,0.9c0.3,0.2,0.7,0.3,1.2,0.3c0.3,0,0.6-0.1,0.8-0.2
		c0.2-0.1,0.4-0.3,0.6-0.5c0.1-0.2,0.2-0.4,0.2-0.6c0-0.2-0.1-0.4-0.2-0.6C107.9,46,107.8,45.9,107.6,45.8z"/>
	<path opacity="0.6" fill="#221F1F" d="M17.2,30.4v-6.3c0,0-4.5-0.1-6.4,1.7l-0.1,9.2C11.7,32.4,14.2,30.5,17.2,30.4z"/>
	<path opacity="0.6" fill="#221F1F" d="M17.3,43.4v6.3c0,0,4.5,0.1,6.4-1.7l0-9.2C22.8,41.4,20.3,43.3,17.3,43.4z"/>
	<path opacity="0.6" fill="#221F1F" d="M19.2,30.4c2.6,1,4.5,3.4,4.6,6.4h6.3c0,0,0.1-4.5-1.7-6.4L19.2,30.4z"/>
	<path opacity="0.6" fill="#221F1F" d="M10.6,36.9H4.3c0,0-0.1,4.5,1.7,6.3l9.2,0.1C12.6,42.3,10.7,39.8,10.6,36.9z"/>
	<path opacity="0.6" fill="#221F1F" d="M22.7,36.9c0-3-2.4-5.5-5.4-5.5c-3,0-5.5,2.4-5.5,5.5c0,3,2.4,5.5,5.5,5.5
		C20.2,42.4,22.7,39.9,22.7,36.9z"/>
</g>
</svg>
