<?xml version="1.0" encoding="utf-8"?>
<!-- Generator: Adobe Illustrator 17.1.0, SVG Export Plug-In . SVG Version: 6.00 Build 0)  -->
<!DOCTYPE svg PUBLIC "-//W3C//DTD SVG 1.1//EN" "http://www.w3.org/Graphics/SVG/1.1/DTD/svg11.dtd">
<svg version="1.1" id="Capa_1" xmlns="http://www.w3.org/2000/svg" xmlns:xlink="http://www.w3.org/1999/xlink" x="0px" y="0px"
	 viewBox="0 0 43.4 75" enable-background="new 0 0 43.4 75" xml:space="preserve">
<g>
	<path opacity="0.6" fill="#221F1F" d="M7.9,60.8c0.8-0.3,1.4-1,1.9-1.9c0.5-1,0.8-2.1,0.8-3.3c0-1.6-0.4-2.9-1.1-3.9
		c-0.7-1-1.5-1.5-2.5-1.5c-1,0-1.9,0.5-2.6,1.5c-0.7,1-1.1,2.3-1.1,3.8c0,1,0.1,1.8,0.4,2.6c0.2,0.7,0.6,1.3,1,1.8
		c0.3,0.3,1,1.1,2.3,1.1c0.1,0,0.1,0,0.1,0c0.2,0.6,3.4,4.6,6.2,0.5c-0.1-0.1-0.1-0.2-0.3-0.4C10.9,62.9,8.2,61.7,7.9,60.8z M7,60.4
		c-0.7,0-1.2-0.4-1.6-1c-0.5-0.9-0.8-2.2-0.8-3.9c0-1.7,0.3-3,0.8-3.8c0.4-0.7,0.9-1,1.6-1c0.4,0,0.8,0.1,1.1,0.5
		c0.3,0.3,0.6,0.8,0.8,1.4c0.3,0.8,0.4,1.9,0.4,3.1c0,1.6-0.2,2.8-0.7,3.7C8.2,60.1,7.6,60.4,7,60.4z"/>
	<path opacity="0.6" fill="#221F1F" d="M16,59.9c-0.1,0-0.2,0-0.2-0.1c-0.1-0.1-0.1-0.2-0.1-0.4c0-0.2,0-0.7,0-1.5v-4.3h-1.7v0.3
		c0.3,0,0.6,0.1,0.6,0.2c0.1,0.1,0.2,0.4,0.2,0.8v4c-0.3,0.4-0.5,0.7-0.7,0.8c-0.2,0.1-0.4,0.2-0.5,0.2c-0.2,0-0.4-0.1-0.6-0.3
		c-0.2-0.2-0.2-0.6-0.2-1.3v-4.7H11v0.3c0.3,0,0.5,0,0.6,0.1c0.1,0.1,0.2,0.2,0.2,0.3c0.1,0.1,0.1,0.4,0.1,0.7v3.1
		c0,0.7,0,1.2,0.1,1.5c0.1,0.3,0.2,0.7,0.4,0.9c0.2,0.2,0.4,0.3,0.7,0.3c0.2,0,0.5-0.1,0.7-0.2c0.2-0.2,0.6-0.6,1-1.2v1.5H15
		l1.5-0.9l-0.1-0.3C16.3,59.9,16.1,59.9,16,59.9z"/>
	<path opacity="0.6" fill="#221F1F" d="M20.9,59.9c-0.1,0-0.1,0-0.1-0.1c0-0.1-0.1-0.2-0.1-0.3c0-0.1,0-0.6,0-1.2v-2.4
		c0-0.7,0-1.1-0.1-1.3c-0.1-0.3-0.3-0.6-0.5-0.7c-0.3-0.2-0.6-0.3-1.1-0.3c-0.6,0-1,0.2-1.3,0.6c-0.3,0.4-0.5,0.8-0.5,1.2
		c0,0.2,0,0.4,0.1,0.5c0.1,0.1,0.2,0.2,0.3,0.2s0.3-0.1,0.3-0.2c0.1-0.1,0.1-0.3,0.1-0.5l0-0.4c0-0.2,0.1-0.4,0.2-0.6
		c0.1-0.2,0.3-0.3,0.5-0.3c0.3,0,0.5,0.1,0.7,0.4c0.2,0.3,0.2,0.7,0.2,1.4v0.3c-0.8,0.4-1.4,0.8-1.8,1.1c-0.4,0.3-0.6,0.6-0.8,1
		c-0.1,0.3-0.2,0.6-0.2,0.9c0,0.5,0.1,1,0.3,1.3c0.2,0.3,0.5,0.5,0.8,0.5c0.2,0,0.4-0.1,0.6-0.2c0.1-0.1,0.5-0.4,1-1
		c0,0.4,0.1,0.7,0.2,0.9c0.1,0.2,0.2,0.3,0.4,0.3c0.4,0,0.8-0.4,1.2-1.1v-0.4c-0.2,0.3-0.4,0.5-0.4,0.6C21,59.8,20.9,59.9,20.9,59.9
		z M19.7,59.2c-0.4,0.5-0.8,0.8-1.1,0.8c-0.2,0-0.4-0.1-0.5-0.4c-0.1-0.2-0.2-0.5-0.2-0.9c0-0.3,0.1-0.6,0.2-0.8
		c0.1-0.3,0.3-0.5,0.6-0.7c0.2-0.1,0.5-0.3,1-0.6V59.2z"/>
	<path opacity="0.6" fill="#221F1F" d="M23.6,60c-0.1-0.1-0.1-0.4-0.1-0.9v-9.3h-0.2l-1.5,0.9l0.1,0.3c0.1-0.1,0.3-0.1,0.4-0.1
		c0.1,0,0.2,0,0.2,0.1c0.1,0.1,0.1,0.2,0.1,0.4c0,0.2,0,0.7,0,1.5v6.4c0,0.4,0,0.7-0.1,0.9c-0.1,0.1-0.1,0.2-0.2,0.3
		c-0.1,0.1-0.2,0.1-0.5,0.1v0.3h2.4v-0.3c-0.2,0-0.4,0-0.5-0.1C23.7,60.3,23.7,60.2,23.6,60z"/>
	<path opacity="0.6" fill="#221F1F" d="M25.8,50c-0.1,0.2-0.1,0.3-0.1,0.5c0,0.2,0,0.4,0.1,0.6c0.1,0.1,0.2,0.2,0.4,0.2
		c0.1,0,0.3-0.1,0.4-0.2c0.1-0.2,0.2-0.4,0.2-0.6c0-0.2-0.1-0.4-0.2-0.5c-0.1-0.1-0.2-0.2-0.4-0.2C26,49.8,25.9,49.9,25.8,50z"/>
	<path opacity="0.6" fill="#221F1F" d="M26.7,60c-0.1-0.2-0.1-0.5-0.1-0.9v-5.7h-0.2l-1.5,0.9l0.1,0.3c0.1-0.1,0.3-0.1,0.4-0.1
		c0.1,0,0.2,0,0.2,0.1c0.1,0.1,0.1,0.2,0.1,0.3c0,0.2,0,0.7,0,1.5v2.7c0,0.4,0,0.7-0.1,0.9c-0.1,0.1-0.1,0.2-0.2,0.3
		c-0.1,0.1-0.2,0.1-0.5,0.1v0.3h2.4v-0.3c-0.2,0-0.4,0-0.5-0.1C26.8,60.3,26.7,60.2,26.7,60z"/>
	<path opacity="0.6" fill="#221F1F" d="M30.3,59.8c-0.1,0.1-0.2,0.1-0.4,0.1c-0.1,0-0.3-0.1-0.3-0.2c-0.1-0.2-0.1-0.5-0.1-0.9v-4.6
		h1.2v-0.5h-1.2v-2.3h-0.2c-0.2,0.5-0.3,0.9-0.4,1.1c-0.2,0.4-0.4,0.7-0.5,1c-0.2,0.3-0.4,0.5-0.6,0.6v0.3h0.8v4.7
		c0,0.5,0,0.9,0.1,1.1c0.1,0.2,0.2,0.4,0.4,0.6c0.2,0.1,0.3,0.2,0.5,0.2c0.2,0,0.5-0.1,0.7-0.4c0.2-0.2,0.4-0.6,0.5-1.1h-0.2
		C30.4,59.5,30.4,59.7,30.3,59.8z"/>
	<path opacity="0.6" fill="#221F1F" d="M35,59.9c-0.1,0-0.1,0-0.1-0.1c0-0.1-0.1-0.2-0.1-0.3c0-0.1,0-0.6,0-1.2v-2.4
		c0-0.7,0-1.1-0.1-1.3c-0.1-0.3-0.3-0.6-0.5-0.7c-0.3-0.2-0.6-0.3-1.1-0.3c-0.6,0-1,0.2-1.3,0.6c-0.3,0.4-0.5,0.8-0.5,1.2
		c0,0.2,0,0.4,0.1,0.5c0.1,0.1,0.2,0.2,0.3,0.2c0.1,0,0.3-0.1,0.3-0.2c0.1-0.1,0.1-0.3,0.1-0.5l0-0.4c0-0.2,0.1-0.4,0.2-0.6
		c0.1-0.2,0.3-0.3,0.5-0.3c0.3,0,0.5,0.1,0.7,0.4c0.2,0.3,0.2,0.7,0.2,1.4v0.3c-0.8,0.4-1.4,0.8-1.8,1.1c-0.4,0.3-0.6,0.6-0.8,1
		c-0.1,0.3-0.2,0.6-0.2,0.9c0,0.5,0.1,1,0.3,1.3c0.2,0.3,0.5,0.5,0.8,0.5c0.2,0,0.4-0.1,0.6-0.2c0.1-0.1,0.5-0.4,0.9-1
		c0,0.4,0.1,0.7,0.2,0.9c0.1,0.2,0.3,0.3,0.4,0.3c0.4,0,0.8-0.4,1.2-1.1v-0.4c-0.2,0.3-0.4,0.5-0.4,0.6C35.2,59.8,35.1,59.9,35,59.9
		z M33.8,59.2c-0.4,0.5-0.8,0.8-1.1,0.8c-0.2,0-0.4-0.1-0.5-0.4c-0.2-0.2-0.2-0.5-0.2-0.9c0-0.3,0.1-0.6,0.2-0.8
		c0.1-0.3,0.3-0.5,0.6-0.7c0.2-0.1,0.5-0.3,1-0.6V59.2z"/>
	<path opacity="0.6" fill="#221F1F" d="M39.5,58.8c0-0.8-0.4-1.5-1.1-2l-0.8-0.5c-0.3-0.2-0.6-0.5-0.7-0.7c-0.1-0.2-0.2-0.4-0.2-0.7
		c0-0.2,0.1-0.4,0.2-0.6c0.1-0.2,0.4-0.3,0.6-0.3c0.3,0,0.6,0.1,0.8,0.4c0.2,0.3,0.4,0.8,0.5,1.5h0.2v-2.4H39c0,0.1-0.1,0.2-0.1,0.3
		c0,0-0.1,0-0.1,0c-0.1,0-0.2,0-0.4-0.1c-0.3-0.1-0.5-0.2-0.7-0.2c-0.5,0-0.8,0.2-1.1,0.6c-0.3,0.4-0.4,0.9-0.4,1.4
		c0,0.4,0.1,0.8,0.2,1.1c0.2,0.3,0.5,0.6,1,1c0.5,0.4,0.9,0.7,1,0.9c0.2,0.2,0.3,0.5,0.3,0.9c0,0.3-0.1,0.5-0.2,0.7
		c-0.1,0.2-0.4,0.3-0.6,0.3c-0.4,0-0.7-0.2-1-0.5c-0.3-0.4-0.5-0.9-0.6-1.6h-0.2v2.5h0.2c0-0.1,0.1-0.2,0.2-0.2c0.1,0,0.2,0,0.3,0.1
		c0.4,0.1,0.7,0.2,1,0.2c0.4,0,0.8-0.2,1.1-0.6C39.4,59.9,39.5,59.4,39.5,58.8z"/>
	<path opacity="0.6" fill="#221F1F" d="M20.5,51.3c0.3-0.2,0.3-0.4,0.3-0.6c0-0.3-0.3-0.6-0.5-0.5c-0.3,0-0.4,0.2-0.7,0.6L18.2,53
		l0.6-0.1L20.5,51.3z"/>
	<path opacity="0.6" fill="#221F1F" d="M40.1,61.6c0-0.2-0.1-0.4-0.4-0.4h-0.5v1.3h0.2v-0.6h0.3l0.3,0.6h0.2l-0.4-0.6
		C39.9,61.9,40.1,61.8,40.1,61.6z M39.3,61.8v-0.4h0.3c0.2,0,0.3,0,0.3,0.2c0,0.2-0.1,0.2-0.3,0.2H39.3z"/>
	<path opacity="0.6" fill="#221F1F" d="M39.6,60.8c-0.6,0-1.1,0.5-1.1,1.1c0,0.6,0.5,1.1,1.1,1.1c0.6,0,1.1-0.5,1.1-1.1
		C40.6,61.2,40.2,60.8,39.6,60.8z M39.6,62.8c-0.5,0-0.9-0.4-0.9-1c0-0.5,0.4-0.9,0.9-0.9c0.5,0,0.9,0.4,0.9,0.9
		C40.5,62.4,40.1,62.8,39.6,62.8z"/>
	<path opacity="0.6" fill="#221F1F" d="M21.8,34.2c6.8,0,12.3-3.9,12.3-10.5c0-6.6-5.5-10.5-12.3-10.5S9.5,17,9.5,23.7
		C9.5,30.3,15,34.2,21.8,34.2z M20.4,15.5c0.4-0.1,0.9-0.1,1.4-0.1c0.8,0,1.5,0.1,2.2,0.3c2.6,0.9,4.3,3.6,4.3,7.5
		c0,4.9-2,7.7-4.6,8.6c-0.6,0.1-1.3,0.2-1.9,0.2c-1.1,0-2.2-0.2-3.1-0.6c-1.9-1-3.2-3.3-3.2-7.4C15.5,19.8,17.3,16.3,20.4,15.5z"/>
	<path opacity="0.6" fill="#221F1F" d="M24.9,42.9c1.6,1.1,2.6-0.1,2.6-0.1s3.8-3.8,6.5-5.7c1.1-1.1,0.1-2-1.1-1.3
		c-0.9,0.5-4.4,2.5-11.1,1.1c-2.3-0.6-12.3-5-12.3-5l-0.8,1.8c0,0,5.4,2.2,7.5,3.7C18.5,38.9,23.3,41.9,24.9,42.9z"/>
	<path opacity="0.6" fill="#221F1F" d="M40,46.1V45V11.8v-1.2v-0.1H4.7H3.5v1.2V45v1.2v0L40,46.1L40,46.1z M38.8,45h-34V11.8h34V45z
		"/>
	<rect x="3.5" y="47.2" opacity="0.6" fill="#221F1F" width="1.1" height="1.1"/>
	<rect x="6.4" y="47.2" opacity="0.6" fill="#221F1F" width="1.1" height="1.1"/>
	<rect x="9.3" y="47.2" opacity="0.6" fill="#221F1F" width="1.1" height="1.1"/>
	<rect x="12.3" y="47.2" opacity="0.6" fill="#221F1F" width="1.1" height="1.1"/>
	<rect x="15.2" y="47.2" opacity="0.6" fill="#221F1F" width="1.1" height="1.1"/>
	<rect x="18.1" y="47.2" opacity="0.6" fill="#221F1F" width="1.1" height="1.1"/>
	<rect x="21" y="47.2" opacity="0.6" fill="#221F1F" width="1.1" height="1.1"/>
	<rect x="24" y="47.2" opacity="0.6" fill="#221F1F" width="1.1" height="1.1"/>
	<rect x="26.9" y="47.2" opacity="0.6" fill="#221F1F" width="1.1" height="1.1"/>
	<rect x="29.8" y="47.2" opacity="0.6" fill="#221F1F" width="1.1" height="1.1"/>
	<rect x="32.8" y="47.2" opacity="0.6" fill="#221F1F" width="1.1" height="1.1"/>
	<rect x="35.7" y="47.2" opacity="0.6" fill="#221F1F" width="1.1" height="1.1"/>
	<rect x="38.6" y="47.2" opacity="0.6" fill="#221F1F" width="1.1" height="1.1"/>
</g>
</svg>
