<?xml version="1.0" encoding="utf-8"?>
<!-- Generator: Adobe Illustrator 17.1.0, SVG Export Plug-In . SVG Version: 6.00 Build 0)  -->
<!DOCTYPE svg PUBLIC "-//W3C//DTD SVG 1.1//EN" "http://www.w3.org/Graphics/SVG/1.1/DTD/svg11.dtd">
<svg version="1.1" id="Capa_1" xmlns="http://www.w3.org/2000/svg" xmlns:xlink="http://www.w3.org/1999/xlink" x="0px" y="0px"
	 viewBox="0 0 112.8 75" enable-background="new 0 0 112.8 75" xml:space="preserve">
<g>
	<path opacity="0.6" fill="#221F1F" d="M11.9,25C5.3,25,0,30.3,0,36.9c0,6.6,5.3,12,11.9,12c6.6,0,11.9-5.4,11.9-12
		C23.7,30.3,18.4,25,11.9,25z M11.9,47.7c-5.9,0-10.7-4.8-10.7-10.8c0-6,4.8-10.8,10.7-10.8c5.9,0,10.7,4.8,10.7,10.8
		C22.6,42.9,17.8,47.7,11.9,47.7z"/>
	<path opacity="0.6" fill="#221F1F" d="M17.2,33c-0.4-0.3-0.9-0.4-1.4-0.3c-0.2-0.6-0.6-1-1.1-1.2c-0.9-0.3-1.8-0.5-2.8-0.5
		c-1,0-1.9,0.2-2.8,0.5c-0.1,0-0.1,0.1-0.2,0.1c-0.5,0.2-0.8,0.6-0.9,1.1c-0.5-0.1-1.1,0.1-1.5,0.4c-0.6,0.5-1.1,1.1-1.5,1.9
		c-0.4,0.7-0.7,1.5-0.8,2.3c0,0.1,0,0.2,0,0.2C4,38,4.3,38.7,4.9,39c0.3,0.2,0.6,0.2,1,0.2l3.9,0c0.3,0,1,0,1.6,0v3.7h1.2v-3.7
		c0.6,0,1.3,0,1.6,0l3.9,0c0.3,0,0.7-0.1,1-0.2c0.6-0.3,0.9-1,0.9-1.6c0-0.1,0-0.2,0-0.2c-0.1-0.8-0.4-1.5-0.8-2.3
		C18.4,34.2,17.8,33.5,17.2,33z M10,37.9C10,38,9.9,38.1,9.7,38.1l-3.9,0c-0.1,0-0.2,0-0.3-0.1c-0.2-0.1-0.3-0.3-0.3-0.6
		c0,0,0,0,0-0.1c0.1-0.7,0.3-1.3,0.7-1.9c0.3-0.6,0.8-1.1,1.3-1.5c0,0,0,0,0,0c0.2-0.1,0.4-0.2,0.6,0C7.9,34,8,34,8.1,34.2l2,3.4
		C10.1,37.7,10.1,37.8,10,37.9z M12.2,37.9c-0.1,0.1-0.2,0.2-0.3,0.2c-0.1,0-0.3-0.1-0.3-0.2l-2.4-4.2C9,33.5,9,33.4,9,33.2
		c0-0.3,0.2-0.6,0.4-0.7c0,0,0,0,0.1,0c0.8-0.3,1.6-0.4,2.4-0.4c0.8,0,1.7,0.2,2.4,0.4c0,0,0,0,0,0c0.3,0.1,0.4,0.4,0.4,0.7
		c0,0.2-0.1,0.3-0.1,0.4L12.2,37.9z M18.5,37.4c0,0.2-0.1,0.4-0.3,0.6c-0.1,0.1-0.2,0.1-0.3,0.1l-3.9,0c-0.1,0-0.2,0-0.3-0.1
		c-0.1-0.1-0.1-0.2,0-0.3l2-3.4c0-0.1,0.1-0.2,0.2-0.3c0.2-0.1,0.5-0.1,0.7,0c0,0,0,0,0,0c0.5,0.4,0.9,0.9,1.3,1.5
		C18.2,36.1,18.4,36.7,18.5,37.4C18.5,37.4,18.5,37.4,18.5,37.4z"/>
	<polygon opacity="0.6" fill="#221F1F" points="36.9,36.6 34,30.7 29.6,30.7 29.6,42.6 34,42.6 34,36.6 36.9,42.6 39.8,36.6 
		39.8,42.6 44.2,42.6 44.2,30.7 39.8,30.7 	"/>
	<path opacity="0.6" fill="#221F1F" d="M49,30.7l-3.4,12H50l0.6-1.9h4.7l0.6,1.9h4.4l-3.4-12H49z M51.1,38.7l1.8-6.2l1.8,6.2H51.1z"
		/>
	<path opacity="0.6" fill="#221F1F" d="M69.7,30.7h-8.2v12h4.4v-5h3.8c1.9,0,3.5-1.6,3.5-3.5C73.2,32.2,71.7,30.7,69.7,30.7z
		 M67,35.6H66V32H67c1,0,1.9,0.5,1.9,1.6C68.9,34.7,68.1,35.6,67,35.6z"/>
	<polygon opacity="0.6" fill="#221F1F" points="74.7,42.6 79.1,42.6 79.1,37.6 86.4,37.6 86.4,35.7 79.1,35.7 79.1,32.6 86.4,32.6 
		86.4,30.7 74.7,30.7 	"/>
	<polygon opacity="0.6" fill="#221F1F" points="101.2,42.6 112.8,42.6 112.8,40.7 105.6,40.7 105.6,37.6 112.8,37.6 112.8,35.7 
		105.6,35.7 105.6,32.6 112.8,32.6 112.8,30.7 101.2,30.7 	"/>
	<path opacity="0.6" fill="#221F1F" d="M99.5,33.7c0-1.6-1.3-3-3-3h-3.8h-4.9v6v6h4.4v-4.9h1c1.1,0,1.9,0.9,1.9,1.9c0,0,0,0.1,0,0.1
		v2.9h1.3h3v-3c0,0,0,0,0-0.1c-0.1-1.6-1.4-2.9-3-2.9C98.2,36.6,99.5,35.3,99.5,33.7z M93.3,35.6h-1V32h1c1,0,1.9,0.5,1.9,1.6
		C95.2,34.7,94.4,35.6,93.3,35.6z"/>
</g>
</svg>
