<?xml version="1.0" encoding="utf-8"?>
<!-- Generator: Adobe Illustrator 17.1.0, SVG Export Plug-In . SVG Version: 6.00 Build 0)  -->
<!DOCTYPE svg PUBLIC "-//W3C//DTD SVG 1.1//EN" "http://www.w3.org/Graphics/SVG/1.1/DTD/svg11.dtd">
<svg version="1.1" id="Capa_1" xmlns="http://www.w3.org/2000/svg" xmlns:xlink="http://www.w3.org/1999/xlink" x="0px" y="0px"
	 viewBox="0 0 133.7 75" enable-background="new 0 0 133.7 75" xml:space="preserve">
<g>
	<path opacity="0.6" fill="#221F1F" d="M16.2,25.4c-5.5,0-9.9,4.4-9.9,9.9c0,2.4,0.8,4.5,2.2,6.2l7.5-9.7l7.6,9.9
		c-0.4,0.5-0.9,0.9-1.2,1.2c-0.7,0.6-1.4,1-2.2,1.4c-0.1,0-0.2,0-0.2,0l-4-5.7l-3.9,5.7c-1.4-0.6-2.7-1.6-3.7-2.8l0,0l-2.1,2.8
		c3.7,4,7.3,4,7.3,4l2.4-3.2c0,0,0.1,0,0.1,0c0,0,0.1,0,0.1,0l2.4,3.3c4.9-0.6,7.2-4.1,7.2-4.1l-2.1-2.6c1.5-1.7,2.4-4,2.4-6.4
		C26.1,29.8,21.7,25.4,16.2,25.4z"/>
	<path opacity="0.6" fill="#221F1F" d="M35.9,39l-1-0.5c-0.8-0.4-1.3-0.7-1.6-0.9c-0.2-0.2-0.4-0.5-0.4-0.9c0-0.3,0.1-0.6,0.4-0.8
		c0.2-0.2,0.6-0.3,1-0.3c0.6,0,1.1,0.2,1.6,0.7c0.4,0.5,0.7,1,0.9,1.6h0.4v-2.7h-0.4c0,0.1-0.1,0.2-0.1,0.3
		c-0.1,0.1-0.2,0.1-0.3,0.1c-0.1,0-0.3-0.1-0.8-0.2c-0.4-0.1-0.9-0.2-1.4-0.2c-0.9,0-1.6,0.3-2.1,0.8c-0.5,0.5-0.7,1.1-0.7,1.7
		c0,0.6,0.2,1.1,0.5,1.5c0.3,0.4,0.9,0.8,1.8,1.2l0.8,0.4c0.5,0.2,0.9,0.5,1,0.6c0.3,0.2,0.4,0.5,0.4,0.9c0,0.3-0.1,0.6-0.4,0.9
		c-0.2,0.3-0.7,0.4-1.2,0.4c-0.6,0-1.1-0.2-1.6-0.6c-0.5-0.4-0.8-1.1-1-2h-0.4V44h0.4c0-0.1,0.1-0.2,0.1-0.3
		c0.1-0.1,0.2-0.1,0.3-0.1c0,0,0.1,0,0.1,0c0,0,0.1,0,0.2,0l0.3,0.1c0.3,0.1,0.5,0.2,0.8,0.2c0.3,0,0.5,0.1,0.8,0.1
		c1.1,0,2-0.3,2.5-0.8c0.5-0.6,0.8-1.2,0.8-1.8c0-0.7-0.2-1.3-0.7-1.7C36.7,39.4,36.3,39.2,35.9,39z"/>
	<path opacity="0.6" fill="#221F1F" d="M43,42.8c-0.3,0.2-0.6,0.3-0.8,0.3c-0.6,0-1.1-0.3-1.3-1c-0.1-0.4-0.2-0.8-0.3-1.3h3.3
		c0-0.1,0-0.3,0-0.5c-0.1-0.5-0.2-0.8-0.3-1.1c-0.2-0.4-0.5-0.7-0.9-0.9c-0.4-0.2-0.8-0.3-1.2-0.3c-0.7,0-1.4,0.3-1.9,0.8
		C39,39.3,38.8,40,38.8,41c0,1.1,0.3,1.8,0.8,2.3c0.5,0.5,1.1,0.7,1.8,0.7c0.4,0,0.8-0.1,1.2-0.2c0.5-0.3,1-0.7,1.4-1.3l-0.3-0.2
		C43.4,42.5,43.2,42.7,43,42.8z M40.8,38.8c0.1-0.3,0.4-0.5,0.7-0.5c0.3,0,0.5,0.1,0.7,0.4c0.1,0.3,0.2,0.8,0.2,1.5h-1.7
		C40.6,39.7,40.6,39.2,40.8,38.8z"/>
	<path opacity="0.6" fill="#221F1F" d="M50.5,43.7c-0.4-0.1-0.8-0.2-1.3-0.2l-0.9,0c-0.1,0-0.3,0-0.5,0c-0.2,0-0.4,0-0.5,0
		c-0.1,0-0.3-0.1-0.3-0.1c-0.1-0.1-0.1-0.2-0.1-0.3c0-0.2,0.1-0.3,0.2-0.4c0.1-0.1,0.3-0.2,0.4-0.2c0.1,0,0.2,0,0.2,0
		c0,0,0.1,0,0.3,0c0.7,0,1.2-0.1,1.7-0.3c0.9-0.3,1.3-0.9,1.3-1.8c0-0.3-0.1-0.5-0.1-0.8c-0.1-0.2,0-0.5-0.2-0.7l-0.4-0.6l0.2-0.4
		l1,0c0,0,0.6,0,0.5-0.9c0-0.4-1.1,0.1-1.1,0.1c-0.7,0.7-0.9,1.1-0.9,1.1c-0.1-0.1-0.6,0-0.9-0.1c-0.3-0.1-0.6-0.1-0.9-0.1
		c-0.9,0-1.6,0.2-2.1,0.6c-0.5,0.4-0.8,0.9-0.8,1.6c0,0.5,0.1,0.9,0.4,1.3c0.3,0.3,0.7,0.6,1.2,0.8v0.1c-0.3,0.1-0.7,0.3-1,0.6
		c-0.4,0.3-0.5,0.6-0.5,1c0,0.3,0.1,0.6,0.3,0.8c0.1,0.1,0.3,0.2,0.6,0.3V45c-0.4,0.1-0.7,0.2-0.9,0.4C45.1,45.6,45,45.8,45,46
		c0,0.5,0.4,0.9,1.2,1.1c0.5,0.1,1.1,0.2,1.7,0.2c0.8,0,1.5-0.1,2.1-0.3c1-0.3,1.5-1,1.5-1.8C51.5,44.5,51.2,44,50.5,43.7z
		 M47.3,38.8c0.1-0.3,0.4-0.5,0.8-0.5c0.3,0,0.6,0.1,0.7,0.4c0.1,0.3,0.2,0.7,0.2,1.4c0,0.6-0.1,1-0.2,1.3c-0.1,0.3-0.4,0.4-0.8,0.4
		c-0.4,0-0.7-0.2-0.8-0.6c-0.1-0.3-0.1-0.7-0.1-1.2C47.1,39.6,47.1,39.1,47.3,38.8z M49.4,46.7c-0.3,0.1-0.8,0.1-1.3,0.1
		c-0.6,0-1.1-0.1-1.4-0.2c-0.3-0.2-0.5-0.4-0.5-0.7c0-0.2,0.1-0.3,0.2-0.5c0.1-0.1,0.2-0.2,0.3-0.3h2.4c0.5,0,0.8,0.1,1,0.2
		c0.2,0.1,0.3,0.3,0.3,0.5C50.4,46.3,50.1,46.6,49.4,46.7z"/>
	<path opacity="0.6" fill="#221F1F" d="M57.3,42.6v-4.5h-2.6v0.3c0.3,0,0.5,0.1,0.6,0.2c0.1,0.1,0.2,0.3,0.2,0.5v3.6
		c-0.2,0.2-0.3,0.3-0.4,0.3c-0.2,0.1-0.4,0.2-0.6,0.2c-0.3,0-0.5-0.1-0.6-0.3c-0.1-0.1-0.1-0.3-0.1-0.5v-4.3h-2.4v0.3
		c0.2,0,0.4,0.1,0.5,0.2c0.1,0.1,0.1,0.3,0.1,0.5v3.2c0,0.7,0.2,1.1,0.5,1.4c0.4,0.3,0.7,0.4,1.1,0.4c0.4,0,0.8-0.1,1.1-0.3
		c0.2-0.1,0.4-0.3,0.8-0.6V44c0.5-0.1,0.8-0.2,1-0.3c0.2,0,0.7-0.1,1.5-0.2v-0.3c-0.3,0-0.5-0.1-0.6-0.2
		C57.4,43,57.3,42.9,57.3,42.6z"/>
	<path opacity="0.6" fill="#221F1F" d="M63.2,38.2c-0.2-0.2-0.4-0.3-0.7-0.3c-0.4,0-0.7,0.1-0.9,0.3c-0.3,0.2-0.5,0.5-0.8,0.8v-1
		h-2.4v0.3c0.3,0,0.4,0.1,0.5,0.2c0.1,0.1,0.1,0.3,0.1,0.5v3.4l0,0.4c0,0.3-0.1,0.4-0.2,0.5c-0.1,0.1-0.3,0.1-0.5,0.2v0.3h3.4v-0.3
		c-0.4,0-0.6-0.1-0.8-0.2c-0.1-0.1-0.2-0.4-0.2-0.8v-2.4c0-0.4,0.1-0.7,0.3-0.9c0.2-0.2,0.3-0.3,0.5-0.3c0.1,0,0.2,0.1,0.4,0.4
		c0.2,0.3,0.4,0.4,0.7,0.4c0.2,0,0.4-0.1,0.6-0.2c0.1-0.2,0.2-0.4,0.2-0.6C63.5,38.6,63.4,38.4,63.2,38.2z"/>
	<path opacity="0.6" fill="#221F1F" d="M66.3,37.9c-0.8,0-1.5,0.3-2.1,0.9c-0.6,0.6-0.8,1.3-0.8,2.2c0,0.9,0.3,1.6,0.8,2.2
		c0.5,0.6,1.2,0.9,2.1,0.9c0.9,0,1.6-0.3,2.1-0.9c0.5-0.6,0.8-1.3,0.8-2.2c0-0.8-0.3-1.6-0.8-2.2C67.8,38.2,67.1,37.9,66.3,37.9z
		 M67.1,43c-0.1,0.4-0.4,0.6-0.8,0.6c-0.4,0-0.7-0.3-0.9-0.8c-0.1-0.4-0.1-1-0.1-1.9c0-0.9,0.1-1.5,0.2-1.8c0.1-0.6,0.4-0.8,0.9-0.8
		c0.4,0,0.7,0.2,0.8,0.6c0.1,0.4,0.2,1.1,0.2,2C67.3,41.9,67.2,42.6,67.1,43z"/>
	<path opacity="0.6" fill="#221F1F" d="M73.5,40.4l-0.7-0.3c-0.3-0.2-0.6-0.3-0.7-0.5c-0.1-0.1-0.2-0.3-0.2-0.4
		c0-0.2,0.1-0.4,0.2-0.5c0.1-0.1,0.4-0.2,0.6-0.2c0.4,0,0.7,0.1,1,0.4c0.3,0.3,0.5,0.6,0.6,1h0.3V38h-0.3c0,0.1-0.1,0.1-0.1,0.2
		c-0.1,0-0.1,0.1-0.2,0.1c-0.1,0-0.3,0-0.6-0.1C73.1,38,72.9,38,72.6,38c-0.6,0-1.1,0.2-1.5,0.5c-0.4,0.4-0.5,0.8-0.5,1.3
		c0,0.4,0.1,0.7,0.3,1c0.2,0.3,0.6,0.6,1.1,0.8l1,0.5c0.2,0.1,0.4,0.2,0.4,0.3c0.2,0.2,0.2,0.4,0.2,0.6c0,0.2-0.1,0.4-0.2,0.6
		c-0.1,0.2-0.4,0.2-0.7,0.2c-0.4,0-0.7-0.1-1-0.4C71.3,43,71.1,42.6,71,42h-0.4v2.1h0.3c0.1-0.1,0.1-0.2,0.2-0.3
		c0.1-0.1,0.1-0.1,0.2-0.1c0,0,0.1,0,0.1,0c0,0,0.1,0,0.1,0.1l0.2,0.1C72,44,72.2,44,72.3,44c0.2,0,0.4,0.1,0.5,0.1
		c0.7,0,1.2-0.2,1.6-0.6c0.3-0.4,0.5-0.8,0.5-1.3c0-0.5-0.2-0.9-0.5-1.2C74.2,40.8,73.9,40.6,73.5,40.4z"/>
	<path opacity="0.6" fill="#221F1F" d="M85.2,41.8l-2.9-6.6H82l-2.9,6.9c-0.2,0.5-0.4,0.9-0.5,1c-0.2,0.2-0.4,0.4-0.8,0.4v0.3h2.6
		v-0.3c-0.3,0-0.5,0-0.7-0.1c-0.2-0.1-0.4-0.2-0.4-0.4c0-0.1,0.1-0.4,0.2-0.7c0.1-0.2,0.2-0.5,0.4-1h2.9l0.3,0.8
		c0.1,0.2,0.1,0.3,0.2,0.4c0.1,0.2,0.1,0.3,0.1,0.4c0,0.2-0.1,0.3-0.2,0.4c-0.1,0.1-0.4,0.1-0.8,0.1v0.3h4.2v-0.3
		c-0.3,0-0.5-0.1-0.7-0.3C85.7,43,85.5,42.6,85.2,41.8z M80.2,40.9l1.2-2.9h0.1l1.2,2.9H80.2z"/>
	<path opacity="0.6" fill="#221F1F" d="M89.8,42.7c-0.1,0.2-0.2,0.4-0.4,0.5c-0.1,0.1-0.2,0.2-0.4,0.2c-0.2,0-0.3-0.1-0.4-0.3
		c-0.1-0.1-0.1-0.3-0.1-0.4v-3.8h1.2v-0.6h-1.2v-2.1h-0.3c-0.3,0.5-0.7,0.9-1.1,1.3c-0.2,0.2-0.4,0.4-0.6,0.6
		c-0.2,0.1-0.3,0.3-0.4,0.4v0.4h0.7v4.1c0,0.6,0.2,0.9,0.7,1.2c0.2,0.1,0.5,0.2,0.8,0.2c0.5,0,1-0.2,1.4-0.6
		c0.2-0.2,0.4-0.5,0.5-0.8L89.8,42.7z"/>
	<path opacity="0.6" fill="#221F1F" d="M92.4,43v-7.4H90v0.3c0.2,0.1,0.4,0.1,0.5,0.2c0.1,0.1,0.1,0.3,0.1,0.5V43
		c0,0.3-0.1,0.5-0.1,0.6c-0.1,0.1-0.3,0.2-0.5,0.2v0.3h3.1v-0.3c-0.2-0.1-0.4-0.1-0.5-0.2C92.5,43.5,92.4,43.3,92.4,43z"/>
	<path opacity="0.6" fill="#221F1F" d="M99,43c0,0-0.1,0-0.1,0c-0.1,0-0.1,0-0.2-0.1c-0.1-0.1-0.1-0.1-0.1-0.2v-3
		c0-0.7-0.2-1.3-0.7-1.5c-0.5-0.3-1.1-0.4-1.8-0.4c-0.7,0-1.3,0.1-1.7,0.4c-0.5,0.3-0.7,0.7-0.7,1.1c0,0.3,0.1,0.5,0.2,0.6
		c0.2,0.1,0.4,0.2,0.6,0.2c0.2,0,0.4-0.1,0.6-0.2c0.2-0.1,0.2-0.3,0.2-0.5c0-0.1,0-0.2-0.1-0.3c0-0.1-0.1-0.2-0.1-0.2l-0.1-0.1
		c0,0-0.1-0.1-0.1-0.1c0-0.1,0-0.1,0-0.1c0-0.1,0.1-0.2,0.2-0.3c0.2-0.1,0.3-0.1,0.6-0.1c0.4,0,0.7,0.1,0.8,0.3
		c0.2,0.2,0.2,0.5,0.2,0.8v0.9c-1.2,0.3-2.1,0.7-2.6,1c-0.6,0.3-0.8,0.8-0.8,1.3c0,0.5,0.1,0.8,0.4,1c0.3,0.2,0.6,0.3,1,0.3
		c0.3,0,0.5,0,0.8-0.1c0.5-0.1,0.9-0.4,1.2-0.7c0.1,0.2,0.1,0.4,0.2,0.6c0.2,0.2,0.5,0.3,0.8,0.3c0.2,0,0.4,0,0.6-0.1
		c0.3-0.1,0.6-0.3,0.8-0.6l-0.2-0.3C99.1,42.9,99,43,99,43z M96.4,42.4c-0.1,0.2-0.3,0.3-0.4,0.3c-0.2,0.1-0.4,0.2-0.6,0.2
		c-0.2,0-0.3-0.1-0.4-0.2c-0.1-0.1-0.2-0.3-0.2-0.6c0-0.5,0.2-0.9,0.7-1.1c0.3-0.2,0.6-0.3,0.9-0.4V42.4z"/>
	<path opacity="0.6" fill="#221F1F" d="M102.6,40.4l-0.7-0.3c-0.3-0.2-0.6-0.3-0.7-0.5c-0.1-0.1-0.2-0.3-0.2-0.4
		c0-0.2,0.1-0.3,0.2-0.5c0.1-0.2,0.3-0.2,0.6-0.2c0.4,0,0.7,0.1,1,0.4c0.3,0.3,0.5,0.6,0.6,1h0.3V38h-0.3c0,0.1-0.1,0.1-0.1,0.2
		c0,0-0.1,0.1-0.2,0.1c-0.1,0-0.3,0-0.6-0.1c-0.3-0.1-0.6-0.1-0.9-0.1c-0.6,0-1.1,0.2-1.5,0.5c-0.3,0.4-0.5,0.8-0.5,1.3
		c0,0.4,0.1,0.7,0.3,1c0.2,0.3,0.6,0.6,1.1,0.8l0.9,0.4c0.2,0.1,0.4,0.2,0.5,0.3c0.2,0.2,0.3,0.4,0.3,0.6c0,0.2-0.1,0.4-0.2,0.6
		c-0.2,0.2-0.4,0.2-0.7,0.2c-0.4,0-0.7-0.1-1-0.4c-0.3-0.3-0.6-0.7-0.7-1.3h-0.4v2.1h0.3c0.1-0.1,0.1-0.2,0.2-0.3
		c0.1-0.1,0.1-0.1,0.2-0.1c0,0,0,0,0.1,0c0,0,0.1,0,0.1,0.1l0.2,0.1c0.3,0.1,0.5,0.2,0.6,0.2c0.2,0,0.3,0.1,0.5,0.1
		c0.7,0,1.2-0.2,1.6-0.6c0.3-0.4,0.5-0.8,0.5-1.3c0-0.5-0.2-0.9-0.5-1.2C103.4,40.8,103.1,40.6,102.6,40.4z"/>
	<path opacity="0.6" fill="#221F1F" d="M105.7,41.9c-0.3,0-0.6,0.1-0.8,0.3c-0.2,0.2-0.3,0.5-0.3,0.8c0,0.3,0.1,0.5,0.3,0.7
		c0.2,0.2,0.4,0.3,0.7,0.3c0,0,0.1,0,0.1,0c0.1,0,0.1,0,0.2,0c0.1,0,0.1,0,0.2,0.1c0,0.1,0.1,0.1,0.1,0.2c0,0.3-0.2,0.6-0.5,1
		c-0.2,0.2-0.5,0.4-0.9,0.7l0.1,0.3c0.6-0.3,1-0.6,1.3-0.9c0.6-0.6,0.8-1.2,0.8-1.8c0-0.4-0.1-0.8-0.4-1
		C106.4,42.1,106.1,41.9,105.7,41.9z"/>
	<path opacity="0.6" fill="#221F1F" d="M112.4,39l-1-0.5c-0.8-0.4-1.3-0.7-1.6-0.9c-0.2-0.2-0.4-0.5-0.4-0.9c0-0.3,0.1-0.6,0.4-0.8
		c0.3-0.2,0.6-0.3,1-0.3c0.6,0,1.2,0.2,1.6,0.7c0.4,0.5,0.7,1,0.9,1.6h0.3v-2.7h-0.4c0,0.1-0.1,0.2-0.1,0.3
		c-0.1,0.1-0.2,0.1-0.3,0.1c-0.1,0-0.3-0.1-0.8-0.2c-0.4-0.1-0.9-0.2-1.4-0.2c-0.9,0-1.6,0.3-2.1,0.8c-0.5,0.5-0.7,1.1-0.7,1.7
		c0,0.6,0.2,1,0.5,1.4c0.3,0.4,0.9,0.8,1.8,1.2l0.8,0.4c0.5,0.3,0.9,0.5,1,0.6c0.3,0.2,0.4,0.5,0.4,0.9c0,0.3-0.1,0.6-0.4,0.9
		c-0.2,0.3-0.7,0.4-1.2,0.4c-0.6,0-1.1-0.2-1.6-0.6c-0.5-0.4-0.8-1.1-1-2.1H108v3.1h0.4c0-0.1,0.1-0.3,0.1-0.3
		c0-0.1,0.1-0.1,0.3-0.1c0,0,0.1,0,0.1,0c0.1,0,0.1,0,0.2,0l0.3,0.1c0.3,0.1,0.5,0.2,0.8,0.2c0.3,0,0.5,0.1,0.8,0.1
		c1.1,0,1.9-0.3,2.5-0.8c0.5-0.6,0.8-1.1,0.8-1.8c0-0.7-0.2-1.2-0.7-1.7C113.2,39.5,112.8,39.3,112.4,39z"/>
	<path opacity="0.6" fill="#221F1F" d="M124.6,41.8l-2.9-6.6h-0.4l-2.9,6.9c-0.2,0.5-0.4,0.9-0.5,1c-0.2,0.2-0.4,0.4-0.8,0.4l-1,0.3
		c0.1,0,0.1-0.1,0.2-0.1c0.2-0.2,0.3-0.5,0.3-0.8c0-0.3-0.1-0.6-0.3-0.7c-0.2-0.2-0.5-0.3-0.8-0.3c-0.3,0-0.6,0.1-0.8,0.3
		c-0.2,0.2-0.3,0.4-0.3,0.7c0,0.3,0.1,0.5,0.3,0.8c0.2,0.2,0.5,0.3,0.8,0.3c0.2,0,0.4-0.1,0.6-0.2h3.7v-0.3c-0.3,0-0.5,0-0.7-0.1
		c-0.2-0.1-0.4-0.2-0.4-0.4c0-0.1,0-0.4,0.2-0.7c0.1-0.2,0.2-0.5,0.4-1h2.9l0.3,0.8c0.1,0.2,0.1,0.3,0.2,0.4
		c0.1,0.2,0.1,0.3,0.1,0.4c0,0.2-0.1,0.3-0.2,0.4c-0.1,0.1-0.4,0.1-0.8,0.1v0.3h4.2v-0.3c-0.3,0-0.5-0.1-0.7-0.3
		C125.2,43,124.9,42.6,124.6,41.8z M119.6,40.9l1.2-2.9h0.1l1.2,2.9H119.6z"/>
	<path opacity="0.6" fill="#221F1F" d="M128.4,42.2c-0.2-0.2-0.5-0.3-0.8-0.3c-0.3,0-0.6,0.1-0.8,0.3c-0.2,0.2-0.3,0.4-0.3,0.7
		c0,0.3,0.1,0.5,0.3,0.8c0.2,0.2,0.5,0.3,0.8,0.3c0.3,0,0.5-0.1,0.8-0.3c0.2-0.2,0.3-0.5,0.3-0.8C128.7,42.7,128.6,42.4,128.4,42.2z
		"/>
</g>
</svg>
