<?xml version="1.0" encoding="utf-8"?>
<!-- Generator: Adobe Illustrator 17.1.0, SVG Export Plug-In . SVG Version: 6.00 Build 0)  -->
<!DOCTYPE svg PUBLIC "-//W3C//DTD SVG 1.1//EN" "http://www.w3.org/Graphics/SVG/1.1/DTD/svg11.dtd">
<svg version="1.1" id="Capa_1" xmlns="http://www.w3.org/2000/svg" xmlns:xlink="http://www.w3.org/1999/xlink" x="0px" y="0px"
	 viewBox="0 0 78.2 75" enable-background="new 0 0 78.2 75" xml:space="preserve">
<g>
	<path opacity="0.6" fill="#221F1F" d="M32.9,41.8c2.2,0,4.6-0.7,5.6-0.9l0.2-0.2l0-4.4c0-1.1,0-1.2,0.9-1.6l0.6-0.2V34h-6v0.5
		l0.6,0.3c0.9,0.5,0.7,0.7,0.7,1.5c0,0.4,0,2.7,0,2.7c0,0.9-0.3,1.6-1.7,1.6c-4.5,0-4.9-3.5-4.9-7.3c0-4.4,0.2-7,3.9-7
		c3.2,0,4.5,2.8,4.5,3.9h0.4l1.1-2.2c0.1-0.1,0.1-0.2,0.1-0.6c0-0.2,0-0.7-0.6-1.1c-1.6-1.3-3.8-1.3-5-1.3c-4.6,0-8.1,2.6-8.1,8.7
		C25.4,39.3,27.9,41.8,32.9,41.8z"/>
	<path opacity="0.6" fill="#221F1F" d="M47.4,41L46,40.5c-1-0.3-1-0.7-1-1.9v-8.7c0-0.3,0-0.6,0.2-0.6c0.1,0,0.3,0.2,0.6,0.6
		l5.7,7.6c1.3,1.7,2.5,3.5,2.8,3.8l0.3,0.2h1.4l0.2-0.2c0-0.5,0-2,0-3.4v-9.6c0-1.6,0.2-1.8,1.2-2.3l0.7-0.3v-0.5h-5.6v0.5l1.4,0.5
		c0.9,0.4,1,0.6,1,1.7v7.7c0,0.4,0,0.7-0.2,0.7c-0.1,0-0.2-0.1-0.4-0.4l-4.7-6.4c-1.4-1.8-2.4-3.6-2.9-4.2l-0.3-0.2h-4.4v0.5l1,0.7
		c0.6,0.4,0.8,0.8,0.8,1.6v10.1c0,1.4,0,2-0.9,2.4L41.7,41v0.5h5.6V41z"/>
	<path opacity="0.6" fill="#221F1F" d="M66.8,41l-1.3-0.4c-1-0.3-0.9-0.6-0.9-2.2v-11c0-0.6,0.1-0.8,1.6-0.8c2.2,0,3,0.5,3.2,3.2
		c0.3,3.4-1.8,4.1-3.6,4.2l-0.2,0.2l0.4,0.9c0.1,0,0.4,0,0.5,0c3.9,0,6.4-2.1,6.4-5.5c0-3.7-2.8-4.3-5.6-4.3h-8v0.5l1.1,0.4
		c0.8,0.3,0.8,0.6,0.8,1.7v10.5c0,1.5,0,2-0.8,2.2L59.3,41v0.5h7.5V41z"/>
	<rect x="25.4" y="43.7" opacity="0.6" fill="#221F1F" width="51.1" height="0.3"/>
	<path opacity="0.6" fill="#221F1F" d="M15.4,33.3c0-1.5-1.2-2.7-2.7-2.7c-1.5,0-2.7,1.2-2.7,2.7c0,1.5,1.2,2.7,2.7,2.7
		C14.2,36,15.4,34.8,15.4,33.3z"/>
	<path opacity="0.6" fill="#221F1F" d="M6.5,32.4L6.5,32.4c3,0,5.4-2.4,5.4-5.4v-2.9L8.2,23v5.8H2.3l1.2,3.6H6.5z"/>
	<path opacity="0.6" fill="#221F1F" d="M6.4,34.2H3.5l-1.2,3.6h5.8v5.9l3.6-1.2v-2.9h0C11.8,36.6,9.4,34.2,6.4,34.2z"/>
	<path opacity="0.6" fill="#221F1F" d="M19,34.2L19,34.2c-3,0-5.4,2.4-5.4,5.4v0v2.9l3.6,1.2v-5.8h5.9l-1.2-3.6H19z"/>
	<path opacity="0.6" fill="#221F1F" d="M17.2,23l-3.6,1.2v2.9c0,3,2.4,5.4,5.4,5.4h0h2.9l1.2-3.6h-5.9V23z"/>
	<path opacity="0.6" fill="#221F1F" d="M75.2,28c0.7,0,1.4-0.6,1.4-1.3c0-0.8-0.6-1.4-1.4-1.4c-0.7,0-1.4,0.6-1.4,1.4
		C73.8,27.4,74.4,28,75.2,28z M75.2,25.6c0.6,0,1,0.4,1,1.1c0,0.6-0.5,1.1-1,1.1c-0.6,0-1-0.5-1-1.1C74.1,26,74.6,25.6,75.2,25.6z"
		/>
	<path opacity="0.6" fill="#221F1F" d="M74.9,26.7h0.2l0.1,0.1l0.3,0.6h0.3l-0.4-0.7c0.3,0,0.4-0.1,0.4-0.4c0-0.3-0.2-0.4-0.6-0.4h0
		h-0.5v1.5h0.3V26.7z M74.9,26.1h0.2h0c0.1,0,0.3,0,0.3,0.2c0,0.2-0.1,0.2-0.3,0.2h0h-0.2V26.1z"/>
	<path opacity="0.6" fill="#221F1F" d="M27.3,48.4l-0.4-0.2c-0.3-0.2-0.6-0.4-0.6-0.7c0-0.3,0.2-0.6,0.6-0.6c0.4,0,0.7,0.5,0.8,0.8
		c0.1,0.1,0.2,0.1,0.2,0c0-0.4-0.1-0.8-0.1-0.9c-0.1,0-0.1,0-0.2-0.1c-0.2-0.1-0.5-0.1-0.7-0.1c-0.9,0-1.5,0.5-1.4,1.2
		c0,0.6,0.5,1,0.9,1.2c0.4,0.2,0.8,0.5,0.8,1c0,0.3-0.2,0.6-0.7,0.6c-0.5,0-1-0.6-1.1-1c-0.1-0.1-0.2-0.1-0.2,0c0,0.4,0.1,0.9,0.2,1
		c0.1,0.1,0.5,0.2,1.1,0.2c0.9,0,1.6-0.5,1.6-1.3C28.2,48.9,27.7,48.6,27.3,48.4z"/>
	<path opacity="0.6" fill="#221F1F" d="M35.2,49.8c-0.3,0.7-0.6,0.7-1.1,0.7c-0.5,0-0.6-0.1-0.7-0.2c-0.1-0.1-0.1-0.3-0.1-0.6V49
		c0-0.2,0-0.2,0.2-0.2h0.4c0.3,0,0.4,0,0.5,0.3l0,0.2c0,0.1,0.2,0.1,0.2,0c0-0.2,0-0.4,0-0.7c0-0.2,0-0.5,0-0.7c0-0.1-0.2-0.1-0.2,0
		l0,0.2c-0.1,0.3-0.1,0.3-0.5,0.3h-0.4c-0.2,0-0.2,0-0.2-0.2v-1.1c0-0.2,0-0.2,0.2-0.2H34c0.3,0,0.5,0.1,0.6,0.2
		c0.1,0.1,0.2,0.3,0.2,0.5c0.1,0.1,0.2,0,0.2,0c0-0.4-0.1-0.9-0.1-1c-0.1,0-0.4,0-0.8,0h-1.3c-0.3,0-0.6,0-0.9,0
		c-0.1,0-0.1,0.2,0,0.2l0.2,0c0.3,0.1,0.3,0.1,0.3,0.7v2.3c0,0.6,0,0.6-0.3,0.7l-0.3,0c0,0,0,0.2,0,0.2c0.5,0,0.8,0,1.1,0h0.8
		c0.5,0,1.1,0,1.4,0c0.1-0.2,0.2-0.7,0.3-1C35.4,49.7,35.2,49.7,35.2,49.8z"/>
	<path opacity="0.6" fill="#221F1F" d="M42.4,49.1c-0.3,0-0.6,0-1.1,0c-0.1,0-0.1,0.2,0,0.2l0.3,0c0.3,0,0.3,0.1,0.3,0.4v0.4
		c0,0.4-0.1,0.5-0.4,0.5c-0.2,0-0.6,0-0.9-0.2c-0.4-0.3-0.7-0.8-0.7-1.7c0-1,0.5-1.8,1.5-1.8c0.6,0,1,0.3,1.2,0.9
		c0,0.1,0.2,0.1,0.2,0c-0.1-0.4-0.1-0.8-0.1-1c-0.2,0-0.5-0.1-1.2-0.1c-0.5,0-1,0.1-1.5,0.3C39.3,47.3,39,48,39,48.8
		c0,0.9,0.5,1.6,1.2,1.9c0.4,0.2,0.8,0.2,1.2,0.2c0.3,0,0.9-0.1,1.1-0.1c0.2-0.1,0.3-0.1,0.4-0.1c0,0,0-0.1,0-0.2
		c-0.1,0-0.1-0.1-0.1-0.4v-0.3c0-0.3,0-0.4,0.2-0.4l0.1,0c0.1,0,0.1-0.2,0-0.2C43,49.1,42.7,49.1,42.4,49.1z"/>
	<path opacity="0.6" fill="#221F1F" d="M50.5,46.7c-0.3,0-0.5,0-0.8,0c0,0-0.1,0.2,0,0.2l0.2,0c0.2,0,0.3,0.1,0.4,0.2
		c0.1,0.2,0.1,0.6,0.1,1.1V49c0,0.9-0.2,1.6-1,1.6c-0.9,0-1-0.8-1-1.5v-1.4c0-0.6,0-0.6,0.3-0.7l0.2,0c0,0,0-0.2,0-0.2
		c-0.3,0-0.6,0-0.9,0c-0.3,0-0.6,0-0.9,0c-0.1,0-0.1,0.2,0,0.2l0.2,0c0.3,0.1,0.3,0.1,0.3,0.7v1.6c0,0.7,0.1,1.1,0.5,1.4
		c0.3,0.3,0.8,0.4,1.2,0.4c0.5,0,1-0.2,1.2-0.4c0.3-0.4,0.4-0.9,0.4-1.5v-0.7c0-0.5,0-1,0.1-1.1c0.1-0.1,0.2-0.2,0.3-0.2l0.1,0
		c0.1-0.1,0-0.2,0-0.2C50.9,46.7,50.7,46.7,50.5,46.7z"/>
	<path opacity="0.6" fill="#221F1F" d="M58.4,50.4c-0.3-0.3-0.6-0.7-1-1.6c0-0.1,0-0.1,0-0.1c0.3-0.1,0.7-0.4,0.7-0.9
		c0-0.4-0.2-0.7-0.5-0.9c-0.2-0.1-0.7-0.2-1.2-0.2c-0.6,0-1.1,0-1.5,0.1c-0.1,0-0.1,0.2,0,0.2l0.2,0c0.3,0,0.3,0.1,0.3,0.7v2.2
		c0,0.6,0,0.6-0.3,0.7l-0.2,0c0,0,0,0.2,0,0.2c0.3,0,0.6,0,0.9,0c0.3,0,0.6,0,0.9,0c0,0,0-0.2,0-0.2l-0.2,0
		c-0.3-0.1-0.3-0.1-0.3-0.7v-0.8c0-0.1,0-0.1,0.2-0.1c0.2,0,0.3,0,0.3,0.2c0.1,0.3,0.3,0.6,0.5,1c0.3,0.4,0.6,0.7,1.2,0.7
		c0.2,0,0.4,0,0.5-0.1c0,0,0-0.1,0-0.2C58.7,50.6,58.6,50.6,58.4,50.4z M57,48.5c-0.1,0.1-0.3,0.2-0.5,0.2c-0.4,0-0.4,0-0.4-0.2
		v-1.2c0-0.3,0-0.3,0.3-0.3c0.5,0,0.8,0.4,0.8,0.9C57.2,48.2,57.1,48.4,57,48.5z"/>
	<path opacity="0.6" fill="#221F1F" d="M64.3,46.6c-1.3,0-2.2,1-2.2,2.2c0,1.3,0.9,2.1,2.2,2.1c1.3,0,2.3-0.8,2.3-2.2
		C66.5,47.5,65.6,46.6,64.3,46.6z M64.3,50.6c-1,0-1.3-1.2-1.3-2c0-1,0.4-1.8,1.2-1.8c0.8,0,1.2,0.9,1.2,1.9
		C65.5,49.8,65.1,50.6,64.3,50.6z"/>
	<path opacity="0.6" fill="#221F1F" d="M72.1,48.4l-0.4-0.2c-0.3-0.2-0.6-0.4-0.6-0.7c0-0.3,0.2-0.6,0.6-0.6c0.4,0,0.7,0.5,0.8,0.8
		c0.1,0.1,0.2,0.1,0.2,0c0-0.4-0.1-0.8-0.1-0.9c-0.1,0-0.1,0-0.2-0.1c-0.3-0.1-0.5-0.1-0.7-0.1c-0.9,0-1.5,0.5-1.4,1.2
		c0,0.6,0.5,1,0.9,1.2c0.4,0.2,0.8,0.5,0.8,1c0,0.3-0.2,0.6-0.7,0.6c-0.5,0-1-0.6-1.1-1c-0.1-0.1-0.2-0.1-0.2,0c0,0.4,0.1,0.9,0.2,1
		c0.1,0.1,0.5,0.2,1.1,0.2c0.9,0,1.6-0.5,1.6-1.3C73,48.9,72.5,48.6,72.1,48.4z"/>
</g>
</svg>
