<?xml version="1.0" encoding="utf-8"?>
<!-- Generator: Adobe Illustrator 17.1.0, SVG Export Plug-In . SVG Version: 6.00 Build 0)  -->
<!DOCTYPE svg PUBLIC "-//W3C//DTD SVG 1.1//EN" "http://www.w3.org/Graphics/SVG/1.1/DTD/svg11.dtd">
<svg version="1.1" id="Capa_1" xmlns="http://www.w3.org/2000/svg" xmlns:xlink="http://www.w3.org/1999/xlink" x="0px" y="0px"
	 viewBox="0 0 191.9 75" enable-background="new 0 0 191.9 75" xml:space="preserve">
<g>
	<polygon opacity="0.6" fill="#221F1F" points="11,41.3 14,41.3 13.1,38.2 	"/>
	<polygon opacity="0.6" fill="#221F1F" points="36.8,18.9 24.8,34.8 22.7,34.7 34.9,18.9 4.7,18.9 4.7,46.8 13,35.7 15.1,35.7 
		17,41.9 17.7,41 16.2,35.7 18.7,35.7 19.8,39 22.2,35.7 24.5,35.7 20.5,40.8 20.9,42.1 25.6,35.8 27.8,35.7 31.5,47.7 28.7,47.7 
		27.2,42.7 22.5,42.7 21.5,44.1 22.5,47.7 20.1,47.7 19.7,46.6 18.8,47.7 16.1,47.8 15.7,46.6 14.8,47.8 12.5,47.7 15,44.4 
		14.5,42.7 9.8,42.7 6.1,47.8 4.7,47.8 4.7,50.9 36.8,50.9 36.8,36.6 36.8,36.6 36.8,36.6 	"/>
	<polygon opacity="0.6" fill="#221F1F" points="18.4,42.8 17.6,43.8 18.2,45.7 19,44.6 	"/>
	<polygon opacity="0.6" fill="#221F1F" points="23.3,41.3 26.4,41.3 25.5,38.2 	"/>
	<path opacity="0.6" fill="#221F1F" d="M46.7,43v-1.2h-1.9v5.8H47v-2.5c0-0.5,0.1-0.8,0.2-1c0.1-0.3,0.5-0.4,0.9-0.4
		c0.1,0,0.3,0,0.4,0.1v-2l-0.3,0C47.5,41.7,46.9,42.1,46.7,43z"/>
	<path opacity="0.6" fill="#221F1F" d="M52.1,41.7c-1,0-1.7,0.3-2.3,0.9c-0.6,0.6-0.9,1.3-0.9,2.2c0,0.9,0.3,1.6,1,2.2
		c0.6,0.5,1.4,0.8,2.4,0.8c0.7,0,1.4-0.2,1.9-0.5c0.6-0.4,0.9-0.9,1.1-1.6l-2.1-0.1c-0.1,0.5-0.4,0.7-0.9,0.7
		c-0.6,0-0.9-0.4-0.9-1.1h3.9v-0.3c0-1-0.3-1.7-0.8-2.3C53.9,42,53.1,41.7,52.1,41.7z M51.3,44.1c0-0.3,0-0.5,0.2-0.7
		c0.1-0.2,0.3-0.3,0.6-0.3c0.5,0,0.8,0.3,0.8,1H51.3z"/>
	<rect x="56.1" y="39.8" opacity="0.6" fill="#221F1F" width="2.3" height="1.5"/>
	<rect x="56.1" y="41.8" opacity="0.6" fill="#221F1F" width="2.3" height="5.8"/>
	<path opacity="0.6" fill="#221F1F" d="M63.2,41.7c-0.8,0-1.4,0.3-1.7,0.9v-0.8h-2.1v5.8h2.3v-3.3c0-0.7,0.2-1,0.7-1
		c0.3,0,0.5,0.3,0.5,0.8v3.5h2.3v-3.6c0-0.8-0.1-1.4-0.4-1.7C64.4,41.9,63.9,41.7,63.2,41.7z"/>
	<polygon opacity="0.6" fill="#221F1F" points="69.1,44.9 68.1,41.8 65.7,41.8 67.9,47.6 69.6,47.6 71.7,41.8 70.1,41.8 	"/>
	<path opacity="0.6" fill="#221F1F" d="M75.2,41.7c-1,0-1.7,0.3-2.3,0.9c-0.6,0.6-0.9,1.3-0.9,2.2c0,0.9,0.3,1.6,1,2.2
		c0.6,0.5,1.4,0.8,2.4,0.8c0.7,0,1.4-0.2,1.9-0.5c0.6-0.4,0.9-0.9,1.1-1.6l-2.1-0.1c-0.1,0.5-0.4,0.7-0.9,0.7
		c-0.6,0-0.9-0.4-0.9-1.1h3.9v-0.3c0-1-0.3-1.7-0.8-2.3C76.9,42,76.2,41.7,75.2,41.7z M74.4,44.1c0-0.3,0-0.5,0.2-0.7
		c0.1-0.2,0.3-0.3,0.6-0.3c0.5,0,0.8,0.3,0.8,1H74.4z"/>
	<path opacity="0.6" fill="#221F1F" d="M82.9,41.7c-0.9,0-1.4,0.3-1.7,0.9v-0.8h-2.1v5.8h2.3v-3.3c0-0.7,0.2-1,0.7-1
		c0.3,0,0.5,0.3,0.5,0.8v3.5h2.3v-3.6c0-0.8-0.1-1.4-0.4-1.7C84.1,41.9,83.6,41.7,82.9,41.7z"/>
	<path opacity="0.6" fill="#221F1F" d="M88.4,39.9l-2,0.1l-0.2,1.8h-1v1.5h0.8v2.2c0,0.4,0,0.7,0,0.9c0.1,0.3,0.2,0.6,0.4,0.8
		c0.4,0.4,0.8,0.6,1.4,0.6c0.1,0,0.2,0,0.3,0l1.3-0.2V46c-0.3,0.1-0.5,0.1-0.7,0.1c-0.2,0-0.4-0.1-0.4-0.2c0-0.1,0-0.3,0-0.5v-2h1.1
		v-1.5h-1.1V39.9z"/>
	<path opacity="0.6" fill="#221F1F" d="M96,44.3c0-0.6,0-1,0-1.2c-0.1-0.4-0.3-0.7-0.6-0.9c-0.5-0.3-1.2-0.5-2.1-0.5
		c-1.7,0-2.8,0.6-3,1.8l2.1,0.2c0.1-0.4,0.4-0.6,0.9-0.6c0.3,0,0.4,0.1,0.5,0.2c0.1,0.1,0.1,0.3,0.1,0.6v0c-0.9,0.1-1.7,0.2-2.3,0.4
		c-0.4,0.1-0.8,0.4-1.1,0.6C90.2,45.2,90,45.6,90,46c0,0.6,0.2,1,0.6,1.3c0.4,0.3,0.8,0.4,1.4,0.4c0.9,0,1.5-0.3,1.9-0.9
		c0,0.3,0,0.6,0.1,0.8h2.2c-0.1-0.3-0.2-0.7-0.2-1.3V44.3z M93.9,45c0,0.4,0,0.7-0.1,0.9c-0.1,0.3-0.4,0.4-0.8,0.4
		c-0.4,0-0.6-0.2-0.6-0.5c0-0.5,0.5-0.8,1.5-0.9V45z"/>
	<path opacity="0.6" fill="#221F1F" d="M100.7,41.7c-0.8,0-1.4,0.3-1.7,0.9v-0.8h-2.1v5.8h2.3v-3.3c0-0.7,0.2-1,0.7-1
		c0.3,0,0.5,0.3,0.5,0.8v3.5h2.3v-3.6c0-0.8-0.1-1.4-0.4-1.7C101.9,41.9,101.4,41.7,100.7,41.7z"/>
	<path opacity="0.6" fill="#221F1F" d="M107,42.3c-0.4-0.4-0.9-0.6-1.4-0.6c-0.8,0-1.4,0.3-1.8,1c-0.3,0.5-0.5,1.2-0.5,2.1
		c0,0.8,0.2,1.5,0.5,2c0.4,0.6,1,1,1.8,1c0.7,0,1.3-0.3,1.6-0.9v0.8h2.1v-7.8H107V42.3z M107,45.2c0,0.3,0,0.6-0.1,0.7
		c-0.1,0.2-0.3,0.3-0.5,0.3c-0.5,0-0.7-0.5-0.7-1.4c0-0.3,0-0.7,0.1-1.1c0.1-0.4,0.3-0.6,0.6-0.6c0.2,0,0.4,0.1,0.5,0.2
		c0.1,0.1,0.1,0.3,0.1,0.7V45.2z"/>
	<path opacity="0.6" fill="#221F1F" d="M113.1,41.7c-0.9,0-1.7,0.3-2.3,0.8c-0.6,0.6-0.9,1.3-0.9,2.2c0,0.9,0.3,1.6,0.9,2.1
		c0.6,0.6,1.4,0.8,2.3,0.8c0.9,0,1.7-0.3,2.3-0.8c0.6-0.6,0.9-1.3,0.9-2.1c0-0.9-0.3-1.7-0.9-2.2C114.8,42,114,41.7,113.1,41.7z
		 M113.7,46.1c-0.1,0.2-0.3,0.3-0.5,0.3c-0.3,0-0.4-0.1-0.6-0.3c-0.2-0.2-0.2-0.7-0.2-1.4c0-1,0.3-1.6,0.8-1.6
		c0.5,0,0.8,0.5,0.8,1.6C113.9,45.4,113.8,45.9,113.7,46.1z"/>
	<rect x="129.5" y="39.8" opacity="0.6" fill="#221F1F" width="0.9" height="7.9"/>
	<path opacity="0.6" fill="#221F1F" d="M134.7,41.7c-0.9,0-1.6,0.3-2.1,0.9c-0.5,0.6-0.7,1.3-0.7,2.1c0,0.8,0.2,1.5,0.6,2.1
		c0.5,0.6,1.2,1,2,1c0.9,0,1.6-0.3,2.1-0.9c0.5-0.6,0.7-1.3,0.7-2.1c0-0.8-0.2-1.5-0.7-2.1C136.2,42,135.6,41.7,134.7,41.7z
		 M136.1,46.2c-0.3,0.6-0.8,0.8-1.4,0.8c-0.6,0-1.1-0.2-1.4-0.7c-0.2-0.4-0.3-0.9-0.3-1.6c0-0.6,0.1-1.1,0.3-1.5
		c0.3-0.5,0.8-0.8,1.4-0.8c0.6,0,1,0.2,1.3,0.7c0.3,0.4,0.4,0.9,0.4,1.6C136.4,45.3,136.3,45.8,136.1,46.2z"/>
	<path opacity="0.6" fill="#221F1F" d="M143,44.6c-0.3-0.2-0.7-0.3-1.3-0.4l-0.9-0.1c-0.3-0.1-0.6-0.1-0.8-0.2
		c-0.2-0.1-0.3-0.3-0.3-0.6c0-0.3,0.1-0.5,0.4-0.7c0.2-0.1,0.5-0.2,0.9-0.2c0.8,0,1.3,0.3,1.6,0.9l0.9-0.2c-0.3-1-1.1-1.5-2.4-1.5
		c-0.6,0-1.2,0.1-1.6,0.4c-0.5,0.3-0.7,0.8-0.7,1.3c0,0.9,0.6,1.4,1.8,1.6l1,0.2c0.8,0.1,1.2,0.4,1.2,0.9c0,0.3-0.2,0.6-0.5,0.8
		c-0.3,0.1-0.6,0.2-1,0.2c-0.4,0-0.8-0.1-1.2-0.3c-0.4-0.2-0.6-0.5-0.7-0.8l-0.9,0.2c0.1,0.6,0.5,1,1,1.3c0.5,0.3,1,0.4,1.7,0.4
		c0.7,0,1.3-0.1,1.7-0.4c0.6-0.3,0.8-0.8,0.8-1.4C143.7,45.4,143.5,44.9,143,44.6z"/>
	<path opacity="0.6" fill="#221F1F" d="M152.9,44.6c-0.3-0.2-0.7-0.3-1.3-0.4l-0.9-0.1c-0.3-0.1-0.6-0.1-0.8-0.2
		c-0.2-0.1-0.4-0.3-0.4-0.6c0-0.3,0.1-0.5,0.4-0.7c0.2-0.1,0.5-0.2,0.9-0.2c0.8,0,1.3,0.3,1.6,0.9l0.9-0.2c-0.3-1-1.1-1.5-2.4-1.5
		c-0.6,0-1.2,0.1-1.6,0.4c-0.5,0.3-0.7,0.8-0.7,1.3c0,0.9,0.6,1.4,1.8,1.6l1,0.2c0.8,0.1,1.2,0.4,1.2,0.9c0,0.3-0.2,0.6-0.5,0.8
		c-0.3,0.1-0.6,0.2-1,0.2c-0.4,0-0.8-0.1-1.2-0.3c-0.4-0.2-0.6-0.5-0.7-0.8l-0.9,0.2c0.1,0.6,0.5,1,1,1.3c0.5,0.3,1,0.4,1.7,0.4
		c0.7,0,1.3-0.1,1.7-0.4c0.6-0.3,0.8-0.8,0.8-1.4C153.6,45.4,153.4,44.9,152.9,44.6z"/>
	<path opacity="0.6" fill="#221F1F" d="M159.6,42.6c-0.5-0.6-1.2-1-2.1-1c-0.9,0-1.6,0.3-2.1,0.9c-0.5,0.6-0.7,1.3-0.7,2.1
		c0,0.9,0.2,1.6,0.7,2.1c0.5,0.6,1.2,0.9,2.1,0.9c0.6,0,1.1-0.2,1.6-0.5c0.5-0.3,0.8-0.7,1-1.3l-0.9-0.2c-0.3,0.8-0.8,1.1-1.6,1.1
		c-0.3,0-0.6-0.1-0.9-0.2c-0.3-0.2-0.5-0.4-0.7-0.6c-0.2-0.3-0.3-0.8-0.3-1.3h4.5C160.2,43.9,160,43.2,159.6,42.6z M155.8,44.1
		c0-0.5,0.2-0.9,0.5-1.3c0.3-0.4,0.7-0.5,1.2-0.5c0.5,0,0.9,0.2,1.2,0.5c0.3,0.3,0.4,0.8,0.4,1.3H155.8z"/>
	<path opacity="0.6" fill="#221F1F" d="M165.8,46.9c-0.2-0.1-0.5-0.1-0.9-0.2c-0.2,0-0.5,0-0.9,0c-0.8,0-1.3-0.1-1.5-0.1
		c-0.3-0.1-0.5-0.2-0.5-0.5c0-0.1,0.1-0.3,0.2-0.4c0.1-0.1,0.3-0.2,0.4-0.2c-0.1,0,0.1,0,0.4,0.1c0.1,0,0.2,0,0.4,0
		c0.6,0,1.2-0.2,1.6-0.4c0.5-0.4,0.8-0.9,0.8-1.5c0-0.5-0.2-1-0.6-1.4c0-0.3,0.2-0.5,0.4-0.6c0.1-0.1,0.4-0.1,0.7-0.1l0.1,0l0-0.7
		l-0.2,0c-0.4,0-0.7,0-1,0.2c-0.2,0.2-0.4,0.4-0.5,0.8c-0.4-0.2-0.8-0.3-1.2-0.3c-0.7,0-1.2,0.2-1.7,0.5c-0.5,0.4-0.7,0.9-0.7,1.5
		c0,0.6,0.3,1.1,0.8,1.5c-0.6,0.2-0.9,0.6-0.9,1c0,0.4,0.2,0.7,0.6,0.9c-0.6,0.2-0.9,0.6-0.9,1.2c0,0.6,0.4,1,1.1,1.3
		c0.4,0.2,1,0.2,1.8,0.2c2,0,3-0.6,3-1.7c0-0.3-0.1-0.5-0.3-0.8C166.3,47.1,166.1,47,165.8,46.9z M162.6,42.7c0.3-0.2,0.6-0.4,1-0.4
		c0.4,0,0.7,0.1,1,0.4c0.3,0.2,0.4,0.5,0.4,0.9c0,0.4-0.1,0.7-0.4,0.9c-0.2,0.2-0.6,0.4-1,0.4c-0.4,0-0.8-0.1-1-0.3
		c-0.3-0.2-0.4-0.5-0.4-0.9C162.2,43.3,162.4,43,162.6,42.7z M165.3,48.9c-0.4,0.2-0.9,0.3-1.6,0.3c-0.5,0-0.9-0.1-1.2-0.2
		c-0.5-0.2-0.7-0.4-0.7-0.8c0-0.3,0.2-0.6,0.7-0.8l1.5,0.1l0.6,0c0.9,0,1.3,0.2,1.3,0.7C165.9,48.5,165.7,48.7,165.3,48.9z"/>
	<path opacity="0.6" fill="#221F1F" d="M171.5,44.9c0,0.4,0,0.7-0.1,0.9c-0.1,0.3-0.3,0.6-0.6,0.8c-0.3,0.2-0.6,0.3-1,0.3
		c-0.4,0-0.8-0.2-1-0.5c-0.1-0.2-0.2-0.6-0.2-1.1v-3.5h-0.9v3.5c0,0.8,0.2,1.4,0.5,1.7c0.4,0.4,0.9,0.7,1.6,0.7
		c0.4,0,0.8-0.1,1.1-0.4c0.4-0.2,0.6-0.5,0.8-0.9v1.2h0.9v-5.8h-0.9V44.9z"/>
	<path opacity="0.6" fill="#221F1F" d="M175,43.2v-1.4h-0.8v5.8h0.9v-2.9c0-0.2,0-0.3,0-0.4c0.1-0.5,0.3-0.9,0.6-1.2
		c0.3-0.3,0.8-0.5,1.3-0.5h0.2v-0.9l-0.4,0C176.1,41.6,175.4,42.1,175,43.2z"/>
	<path opacity="0.6" fill="#221F1F" d="M180.5,41.7c-0.9,0-1.6,0.3-2.1,0.9c-0.5,0.6-0.7,1.3-0.7,2.1c0,0.8,0.2,1.5,0.6,2.1
		c0.5,0.6,1.2,1,2,1c0.9,0,1.6-0.3,2.1-0.9c0.5-0.6,0.7-1.3,0.7-2.1c0-0.8-0.2-1.5-0.7-2.1C182,42,181.4,41.7,180.5,41.7z
		 M181.9,46.2c-0.3,0.6-0.8,0.8-1.4,0.8c-0.6,0-1.1-0.2-1.4-0.7c-0.2-0.4-0.4-0.9-0.4-1.6c0-0.6,0.1-1.1,0.3-1.5
		c0.3-0.5,0.8-0.8,1.4-0.8c0.6,0,1,0.2,1.3,0.7c0.3,0.4,0.4,0.9,0.4,1.6C182.2,45.3,182.1,45.8,181.9,46.2z"/>
	<path opacity="0.6" fill="#221F1F" d="M188.8,44.6c-0.3-0.2-0.7-0.3-1.3-0.4l-0.9-0.1c-0.3-0.1-0.6-0.1-0.8-0.2
		c-0.2-0.1-0.3-0.3-0.3-0.6c0-0.3,0.1-0.5,0.4-0.7c0.2-0.1,0.5-0.2,0.9-0.2c0.8,0,1.3,0.3,1.6,0.9l0.9-0.2c-0.3-1-1.1-1.5-2.4-1.5
		c-0.6,0-1.2,0.1-1.6,0.4c-0.5,0.3-0.7,0.8-0.7,1.3c0,0.9,0.6,1.4,1.8,1.6l1,0.2c0.8,0.1,1.2,0.4,1.2,0.9c0,0.3-0.2,0.6-0.5,0.8
		c-0.3,0.1-0.6,0.2-1,0.2c-0.4,0-0.8-0.1-1.2-0.3c-0.4-0.2-0.6-0.5-0.7-0.8l-0.9,0.2c0.1,0.6,0.5,1,1,1.3c0.5,0.3,1,0.4,1.7,0.4
		c0.7,0,1.3-0.1,1.7-0.4c0.6-0.3,0.8-0.8,0.8-1.4C189.5,45.4,189.3,44.9,188.8,44.6z"/>
	<polygon opacity="0.6" fill="#221F1F" points="118.1,49.4 119.9,49.4 127.8,39.5 125.8,39.5 	"/>
</g>
</svg>
