<?xml version="1.0" encoding="utf-8"?>
<!-- Generator: Adobe Illustrator 18.1.1, SVG Export Plug-In . SVG Version: 6.00 Build 0)  -->
<svg version="1.1" id="Capa_1" xmlns="http://www.w3.org/2000/svg" xmlns:xlink="http://www.w3.org/1999/xlink" x="0px" y="0px"
	 viewBox="0 0 112.6 232.4" enable-background="new 0 0 112.6 232.4" xml:space="preserve">
<g>
	<g>
		<g>
			<path fill="#002F87" d="M95.6,78.6v-0.7c-0.7,1.9-1.5,3.7-2.3,5.5c0.2,1.1,0.5,2.6,0.9,4.3c2.4,3.7,9.1,8.4,13.7,9.6
				c-2.5,1.1-5.5,1.5-8.4,1c2.7,3.3,6.4,6.4,11.7,8.2c-12.4,11.1-32.7,11.4-47,2.7c-2.8,0.8-5.5,1.2-8,1.2c-2.5,0-5.2-0.4-8-1.2
				c-14.2,8.7-34.6,8.4-47-2.7c5.4-1.8,9.2-5,11.8-8.4c-2.4,0.1-4.7-0.3-6.7-1.2c3.4-0.9,7.9-3.6,11-6.5c1.1-2.9,1.6-5.4,1.8-7.1
				c-0.9-1.8-1.7-3.6-2.3-5.5v0.7h-7c-5.5,0-10-4.5-10-10v-11c0-3.8,2.1-7.1,5.2-8.8C5.3,33.2,9.9,21,18.8,12.6
				C27.6,4.2,40.2,0,56.3,0C72.4,0,85,4.2,93.8,12.6c8.9,8.4,13.4,20.6,13.5,36.2c3.1,1.7,5.2,5,5.2,8.8v11c0,5.5-4.5,10-10,10H95.6
				z M91.5,60.8c0-2.6-0.1-5-0.3-7.3c-4.5-4.1-12.8-7.2-23.1-8.3c1.6,1.5,3.1,3.4,3.8,6.3c-6-4.4-18.7-5.8-22.9-10.5h0
				c-6.7-4.4-8.5-10.8-8.5-8.2c-0.3,12.6-9.2,22.4-19.1,23.8c-0.1,1.4-0.1,2.8-0.1,4.2c0,5.3,0.9,10.2,2.3,14.6
				c5.6,6.7,14.8,8.6,22.9,9.1c1.5-2.4,4.9-4.1,8.9-4.1c5.4,0,9.7,3.1,9.7,6.9c0,3.8-4.3,6.9-9.7,6.9c-4.1,0-7.6-1.8-9-4.4
				c-5.7-0.3-12-1.3-17.5-3.9c7.8,11.6,20,17.7,27.6,17.7C68.2,103.5,91.5,88.5,91.5,60.8L91.5,60.8z M97.5,47.6h3.8
				C100.7,20.4,85.2,6,56.3,6c-28.9,0-44.4,14.4-45,41.6h3.8c1.4-9.2,4.4-16.7,8.9-22.5c7.2-9.2,18.1-13.9,32.3-13.9
				c14.3,0,25.1,4.7,32.3,13.9C93.1,30.9,96.1,38.4,97.5,47.6L97.5,47.6z M97.5,47.6"/>
		</g>
	</g>
</g>
</svg>
