<?xml version="1.0" encoding="utf-8"?>
<!-- Generator: Adobe Illustrator 17.1.0, SVG Export Plug-In . SVG Version: 6.00 Build 0)  -->
<!DOCTYPE svg PUBLIC "-//W3C//DTD SVG 1.1//EN" "http://www.w3.org/Graphics/SVG/1.1/DTD/svg11.dtd">
<svg version="1.1" id="Capa_1" xmlns="http://www.w3.org/2000/svg" xmlns:xlink="http://www.w3.org/1999/xlink" x="0px" y="0px"
	 viewBox="0 0 205.1 87.2" enable-background="new 0 0 205.1 87.2" xml:space="preserve">
<g>
	<g>
		<path fill="#231F20" d="M15.7,80.3c-0.3-0.9-0.7-1.5-1.5-1.5c-0.5,0-0.9,0.2-1.2,0.7c-0.3,0.5-0.6,1.3-0.6,2.2
			c0,0.8,0.2,1.7,0.6,2.2c0.3,0.5,0.8,0.7,1.2,0.7c0.8,0,1.4-0.6,1.7-2h0.8c-0.2,1.6-1.1,2.8-2.4,2.8c-0.7,0-1.3-0.4-1.6-0.7
			c-0.7-0.8-0.9-1.9-0.9-2.9c0-1,0.2-2.2,0.9-2.9c0.2-0.3,0.9-0.7,1.6-0.7c1.2,0,2,0.8,2.3,2.3H15.7z"/>
		<path fill="#231F20" d="M18,82.9c0,0.4,0,0.6,0.2,1.1c0.2,0.3,0.4,0.6,0.9,0.6c0.8,0,1-0.8,1.1-1h0.7c-0.1,0.3-0.1,0.6-0.4,1
			c-0.3,0.5-0.8,0.7-1.4,0.7c-0.5,0-1.1-0.3-1.5-0.8c-0.3-0.4-0.4-1.2-0.4-1.9c0-0.7,0.2-1.5,0.5-1.9c0.4-0.6,1-0.8,1.5-0.8
			c0.5,0,1,0.3,1.2,0.7C21,81.4,21,82,21,82.9H18z M20.3,82.2c0-0.5-0.2-1-0.3-1.2c-0.1-0.2-0.4-0.4-0.7-0.4c-0.3,0-0.7,0.1-0.9,0.4
			c-0.1,0.1-0.3,0.7-0.4,1.2H20.3z"/>
		<path fill="#231F20" d="M22.6,80.1v0.6h0c0.1-0.2,0.3-0.4,0.5-0.5c0.2-0.2,0.5-0.2,0.8-0.2c0.3,0,0.6,0.1,0.7,0.1
			c0.2,0.1,0.6,0.4,0.7,1.1v3.9h-0.7v-3.5c0-0.6-0.4-0.9-0.8-0.9c-0.6,0-1.2,0.4-1.1,1.8v2.7h-0.7v-5H22.6z"/>
		<path fill="#231F20" d="M27.1,80.1h0.7v0.7h-0.7v3.5c0,0.3,0.3,0.3,0.7,0.3v0.7c-0.3,0.1-0.5,0.1-0.7,0.1
			c-0.5-0.1-0.6-0.5-0.6-0.7v-3.8h-0.6v-0.7h0.6v-1.4h0.7V80.1z"/>
		<path fill="#231F20" d="M28.5,80.1h0.7v0.8h0c0.2-0.6,0.6-0.9,0.9-0.9h0.4v0.8c-0.2,0-0.5,0-0.6,0.1c-0.5,0.3-0.7,0.7-0.7,1.6v2.6
			h-0.7V80.1z"/>
		<path fill="#231F20" d="M32.7,85.4c-0.8,0-1.9-0.5-1.9-2.7c0-2.2,1.1-2.7,1.9-2.7c0.8,0,1.9,0.4,1.9,2.7
			C34.6,84.9,33.5,85.4,32.7,85.4z M32.7,80.8c-0.9,0-1.2,1.1-1.2,1.9c0,0.8,0.3,1.9,1.2,1.9c0.9,0,1.2-1.1,1.2-1.9
			C33.9,81.8,33.6,80.8,32.7,80.8z"/>
		<path fill="#231F20" d="M41,78.2v7h-0.6v-0.6c-0.1,0.2-0.3,0.4-0.6,0.6c-0.2,0.1-0.4,0.2-0.7,0.2c-0.3,0-0.6-0.1-0.8-0.2
			c-0.6-0.4-0.9-1.3-1-2.2c-0.1-0.9,0.1-1.9,0.5-2.4c0.4-0.5,0.8-0.7,1.2-0.6c0.4,0,0.7,0.2,0.9,0.3c0.2,0.1,0.3,0.3,0.4,0.4h0v-2.6
			H41z M39.3,84.6c0.3,0,0.6-0.2,0.8-0.5c0.5-1.1,0.2-2.4,0-2.8c-0.2-0.3-0.5-0.5-0.8-0.5c-0.3,0-0.7,0.1-0.9,0.5
			c-0.3,0.6-0.4,2,0.1,2.9C38.6,84.5,39,84.6,39.3,84.6z"/>
		<path fill="#231F20" d="M42.5,82.9c0,0.4,0,0.6,0.2,1.1c0.2,0.3,0.5,0.6,0.9,0.6c0.8,0,1-0.8,1.1-1h0.7c-0.1,0.3-0.1,0.6-0.4,1
			c-0.3,0.5-0.8,0.7-1.4,0.7c-0.5,0-1.1-0.3-1.5-0.8c-0.3-0.4-0.4-1.2-0.4-1.9c0-0.7,0.2-1.5,0.5-1.9c0.4-0.6,1-0.8,1.5-0.8
			c0.5,0,1,0.3,1.2,0.7c0.4,0.7,0.5,1.3,0.5,2.3H42.5z M44.8,82.2c0-0.5-0.2-1-0.3-1.2c-0.1-0.2-0.4-0.4-0.7-0.4
			c-0.3,0-0.7,0.1-0.9,0.4c-0.1,0.1-0.3,0.7-0.4,1.2H44.8z"/>
		<path fill="#231F20" d="M48.8,78.2h4V79h-3.2v2.2h3.1V82h-3.1v2.4h3.4v0.8h-4.1V78.2z"/>
		<path fill="#231F20" d="M54.2,85.1h-0.7l1.5-2.6l-1.4-2.4h0.8l1,1.8l1-1.8H57l-1.4,2.4l1.4,2.6h-0.7l-1.1-1.9L54.2,85.1z"/>
		<path fill="#231F20" d="M57.7,87.2v-7.1h0.6v0.6h0c0.1-0.2,0.3-0.4,0.5-0.6C59,80,59.3,80,59.6,80c0.3,0,0.6,0.1,0.8,0.2
			c0.6,0.4,0.9,1.3,1,2.2c0.1,0.9-0.1,1.9-0.5,2.4c-0.4,0.5-0.8,0.6-1.2,0.6s-0.7-0.2-0.9-0.3c-0.2-0.1-0.3-0.3-0.4-0.5h0v2.6H57.7z
			 M59.4,80.7c-0.3,0-0.6,0.2-0.8,0.5c-0.5,1.1-0.2,2.4,0,2.8c0.2,0.3,0.5,0.5,0.8,0.5c0.3,0,0.7-0.1,0.9-0.5c0.3-0.6,0.5-2-0.1-2.9
			C60.1,80.8,59.8,80.7,59.4,80.7z"/>
		<path fill="#231F20" d="M62.7,82.9c0,0.4,0,0.6,0.2,1.1c0.2,0.3,0.5,0.6,0.9,0.6c0.8,0,1-0.8,1.1-1h0.7c-0.1,0.3-0.1,0.6-0.4,1
			c-0.3,0.5-0.8,0.7-1.4,0.7c-0.5,0-1.1-0.3-1.5-0.8c-0.3-0.4-0.4-1.2-0.4-1.9c0-0.7,0.2-1.5,0.5-1.9c0.5-0.6,1-0.8,1.5-0.8
			c0.5,0,1,0.3,1.2,0.7c0.5,0.7,0.5,1.3,0.5,2.3H62.7z M65,82.2c0-0.5-0.2-1-0.3-1.2c-0.1-0.2-0.4-0.4-0.7-0.4
			c-0.3,0-0.7,0.1-0.9,0.4c-0.1,0.1-0.3,0.7-0.4,1.2H65z"/>
		<path fill="#231F20" d="M66.6,80.1h0.7v0.8h0c0.2-0.6,0.6-0.9,0.9-0.9h0.4v0.8c-0.2,0-0.4,0-0.6,0.1c-0.5,0.3-0.7,0.7-0.7,1.6v2.6
			h-0.7V80.1z"/>
		<path fill="#231F20" d="M69.8,79.2h-0.7v-1h0.7V79.2z M69.8,85.1h-0.7v-5h0.7V85.1z"/>
		<path fill="#231F20" d="M71,80.1h0.7v0.6h0c0.1-0.2,0.2-0.5,0.4-0.6c0.2-0.1,0.5-0.2,0.8-0.2c0.2,0,0.5,0,0.7,0.2
			c0.1,0.1,0.3,0.2,0.4,0.6c0.2-0.3,0.3-0.5,0.6-0.6C74.7,80,75,80,75.1,80c0.3,0,0.6,0,0.8,0.1c0.3,0.2,0.5,0.6,0.5,1.1v3.9h-0.7
			v-3.6c-0.1-0.7-0.4-0.9-0.8-0.9c-0.6,0-0.9,0.5-0.9,1v3.4h-0.7v-3.6c-0.1-0.7-0.4-0.8-0.8-0.8c-0.5,0-0.9,0.5-1,1.2v3.2H71V80.1z"
			/>
		<path fill="#231F20" d="M78,82.9c0,0.4,0,0.6,0.2,1.1c0.2,0.3,0.4,0.6,0.9,0.6c0.8,0,1-0.8,1.1-1h0.7c-0.1,0.3-0.1,0.6-0.4,1
			c-0.3,0.5-0.8,0.7-1.4,0.7c-0.5,0-1.1-0.3-1.5-0.8c-0.3-0.4-0.4-1.2-0.4-1.9c0-0.7,0.2-1.5,0.5-1.9c0.4-0.6,1-0.8,1.5-0.8
			c0.5,0,1,0.3,1.2,0.7C81,81.4,81,82,81,82.9H78z M80.3,82.2c0-0.5-0.2-1-0.3-1.2c-0.1-0.2-0.4-0.4-0.7-0.4c-0.3,0-0.7,0.1-0.9,0.4
			c-0.1,0.1-0.3,0.7-0.4,1.2H80.3z"/>
		<path fill="#231F20" d="M82.6,80.1v0.6h0c0.1-0.2,0.3-0.4,0.5-0.5c0.2-0.2,0.5-0.2,0.8-0.2c0.3,0,0.6,0.1,0.7,0.1
			c0.2,0.1,0.6,0.4,0.7,1.1v3.9h-0.7v-3.5c0-0.6-0.4-0.9-0.8-0.9c-0.5,0-1.2,0.4-1.1,1.8v2.7h-0.7v-5H82.6z"/>
		<path fill="#231F20" d="M87.1,80.1h0.7v0.7h-0.7v3.5c0,0.3,0.3,0.3,0.7,0.3v0.7c-0.3,0.1-0.5,0.1-0.7,0.1
			c-0.5-0.1-0.6-0.5-0.6-0.7v-3.8h-0.6v-0.7h0.6v-1.4h0.7V80.1z"/>
		<path fill="#231F20" d="M91.7,84.4c0,0.1,0.2,0.3,0.3,0.3c0,0,0.1,0,0.1,0v0.6c-0.1,0.1-0.3,0.1-0.5,0.1c-0.3,0-0.6-0.4-0.6-0.7
			c-0.3,0.3-0.8,0.7-1.3,0.7c-0.9,0-1.5-0.6-1.4-1.6c0.1-0.8,0.5-1.2,0.9-1.3c0.7-0.3,1.1-0.2,1.5-0.3c0.1,0,0.3-0.1,0.3-0.4v-0.6
			c-0.1-0.4-0.6-0.5-1.1-0.5c-0.8,0-0.8,0.7-0.8,0.9h-0.6l0-0.4c0.1-0.3,0.3-0.7,0.7-1c0.2-0.1,0.5-0.2,0.9-0.2c0.2,0,0.4,0,0.7,0.1
			c0.5,0.1,0.9,0.5,1,1V84.4z M91,82.7c-0.5,0.3-1.3,0.2-1.7,0.5c-0.1,0.1-0.4,0.3-0.4,0.7c0,0.6,0.4,0.9,0.7,0.9
			c0.9,0,1.3-0.8,1.3-1V82.7z"/>
		<path fill="#231F20" d="M96.1,83.4c0,0.4-0.1,0.8-0.2,1c-0.3,0.7-1,1-1.6,0.9c-0.6,0-1.2-0.4-1.4-1.1c-0.2-0.4-0.3-1-0.3-1.7
			c0-0.7,0.2-1.4,0.6-1.9c0.3-0.5,0.8-0.7,1.3-0.7c0.4,0,0.9,0.1,1.2,0.4c0.3,0.2,0.5,0.8,0.5,1.4h-0.7c-0.1-0.5-0.2-0.8-0.4-0.9
			c-0.1-0.1-0.3-0.2-0.6-0.2c-0.2,0-0.5,0.1-0.8,0.5c-0.2,0.2-0.3,0.7-0.3,1.2c0,0.5,0,1,0.1,1.3c0.3,0.6,0.7,0.8,1,0.8
			c0.4,0,0.7-0.3,0.8-0.5c0.1-0.2,0.2-0.5,0.2-0.7H96.1z"/>
		<path fill="#231F20" d="M97.4,79.2h-0.7v-1h0.7V79.2z M97.4,85.1h-0.7v-5h0.7V85.1z"/>
		<path fill="#231F20" d="M100.2,85.4c-0.7,0-1.9-0.5-1.9-2.7c0-2.2,1.1-2.7,1.9-2.7c0.7,0,1.9,0.4,1.9,2.7
			C102,84.9,100.9,85.4,100.2,85.4z M100.2,80.8c-0.9,0-1.2,1.1-1.2,1.9c0,0.8,0.3,1.9,1.2,1.9c0.9,0,1.2-1.1,1.2-1.9
			C101.3,81.8,101,80.8,100.2,80.8z M101.3,78.1l-1.2,1.4h-0.5l0.8-1.4H101.3z"/>
		<path fill="#231F20" d="M103.6,80.1v0.6h0c0.1-0.2,0.3-0.4,0.5-0.5c0.2-0.2,0.5-0.2,0.8-0.2c0.3,0,0.6,0.1,0.7,0.1
			c0.2,0.1,0.6,0.4,0.6,1.1v3.9h-0.6v-3.5c0-0.6-0.4-0.9-0.8-0.9c-0.6,0-1.1,0.4-1.1,1.8v2.7h-0.6v-5H103.6z"/>
		<path fill="#231F20" d="M112.7,80.1l-1.9,6.2c-0.1,0.4-0.3,0.7-0.6,0.8c-0.2,0.1-0.4,0.1-0.5,0.1c-0.2,0-0.3-0.1-0.4-0.1v-0.7
			c0.2,0.1,0.3,0.1,0.5,0.1c0.2,0,0.3-0.2,0.4-0.4l0.2-0.8l-1.4-5.1h0.7l1.1,3.8l1.1-3.8H112.7z"/>
		<path fill="#231F20" d="M119.1,80.2c0-0.4-0.1-0.8-0.5-1.1c-0.4-0.3-0.7-0.3-1-0.3c-1.3,0-1.6,1.5-0.9,1.9
			c0.2,0.1,0.5,0.3,0.9,0.3c0.5,0.2,0.9,0.3,1.4,0.5c0.5,0.2,1,0.9,1,1.6c0.1,1.4-1,2.3-2.3,2.3c-0.8,0-1.3-0.1-1.8-0.9
			c-0.4-0.6-0.4-1-0.4-1.6h0.7c0,0.4,0.1,1.4,1.1,1.6c0.2,0,0.5,0.1,0.8,0c0.3,0,0.6-0.1,0.8-0.3c0.4-0.4,0.7-1.2,0-1.8
			c-0.3-0.2-0.8-0.3-1.2-0.4c-0.8-0.2-0.4-0.1-1.2-0.4c-0.3-0.1-0.7-0.4-0.8-1.3c-0.1-1.1,0.5-2.3,1.9-2.3c0.5,0,1,0.1,1.4,0.4
			c0.8,0.6,0.8,1.5,0.8,1.8H119.1z"/>
		<path fill="#231F20" d="M121.4,82.9c0,0.4,0,0.6,0.2,1.1c0.2,0.3,0.4,0.6,0.9,0.6c0.8,0,1-0.8,1.1-1h0.7c-0.1,0.3-0.1,0.6-0.4,1
			c-0.3,0.5-0.8,0.7-1.4,0.7c-0.5,0-1.1-0.3-1.5-0.8c-0.3-0.4-0.4-1.2-0.4-1.9c0-0.7,0.2-1.5,0.5-1.9c0.4-0.6,1-0.8,1.5-0.8
			c0.5,0,1,0.3,1.2,0.7c0.4,0.7,0.4,1.3,0.5,2.3H121.4z M123.7,82.2c0-0.5-0.2-1-0.3-1.2c-0.1-0.2-0.4-0.4-0.7-0.4
			c-0.3,0-0.7,0.1-0.9,0.4c-0.1,0.1-0.3,0.7-0.4,1.2H123.7z"/>
		<path fill="#231F20" d="M128.6,80.1v4.2c0,1.2-0.1,2.4-1,2.7c-0.1,0.1-0.4,0.2-0.7,0.2c-0.3,0-0.6,0-0.9-0.1
			c-0.8-0.4-0.9-1-0.9-1.4h0.7c0,0.2,0,0.5,0.4,0.7c0.1,0.1,0.3,0.1,0.5,0.1c0.2,0,0.4,0,0.6-0.1c0.4-0.2,0.4-0.4,0.5-0.8
			c0.1-0.4,0.1-0.6,0.1-1.1c-0.2,0.4-0.7,0.8-1.3,0.8c-0.3,0-0.6-0.1-0.9-0.4c-0.5-0.4-0.7-1.2-0.8-2c0-0.8,0.1-1.7,0.4-2.2
			c0.1-0.1,0.6-0.8,1.3-0.8c0.5,0,0.8,0.2,1.2,0.8h0v-0.6H128.6z M127.5,81.2c-0.1-0.1-0.4-0.3-0.7-0.3c-0.3,0-0.7,0.2-0.9,0.7
			c-0.1,0.2-0.2,0.7-0.2,1.1c0,0.5,0,1,0.3,1.3c0.2,0.3,0.5,0.5,0.8,0.5c0.3,0,0.6-0.1,0.8-0.4C128.1,83.5,128,81.8,127.5,81.2z"/>
		<path fill="#231F20" d="M132.2,85.1v-0.5h0c-0.1,0.2-0.3,0.5-0.4,0.5c-0.2,0.2-0.5,0.2-0.8,0.2c-0.3,0-0.6-0.1-0.7-0.1
			c-0.3-0.2-0.6-0.6-0.7-1.1v-4h0.7v3.5c0,0.4,0.1,0.7,0.3,0.8c0.1,0.1,0.2,0.1,0.4,0.1c0.1,0,0.3,0,0.5-0.1
			c0.7-0.3,0.8-1.1,0.8-1.7v-2.7h0.7v5H132.2z"/>
		<path fill="#231F20" d="M134,80.1h0.7v0.8h0c0.3-0.6,0.6-0.9,0.9-0.9h0.4v0.8c-0.2,0-0.5,0-0.6,0.1c-0.5,0.3-0.7,0.7-0.7,1.6v2.6
			H134V80.1z"/>
		<path fill="#231F20" d="M137.3,79.2h-0.7v-1h0.7V79.2z M137.3,85.1h-0.7v-5h0.7V85.1z"/>
		<path fill="#231F20" d="M141.8,78.2v7h-0.6v-0.6c-0.1,0.2-0.3,0.4-0.6,0.6c-0.1,0.1-0.4,0.2-0.7,0.2c-0.3,0-0.6-0.1-0.8-0.2
			c-0.6-0.4-0.9-1.3-1-2.2c-0.1-0.9,0.1-1.9,0.5-2.4c0.4-0.5,0.8-0.7,1.2-0.6c0.4,0,0.7,0.2,0.9,0.3c0.2,0.1,0.3,0.3,0.4,0.4h0v-2.6
			H141.8z M140,84.6c0.3,0,0.6-0.2,0.8-0.5c0.5-1.1,0.2-2.4,0-2.8c-0.2-0.3-0.5-0.5-0.8-0.5c-0.3,0-0.7,0.1-0.9,0.5
			c-0.3,0.6-0.5,2,0.1,2.9C139.4,84.5,139.7,84.6,140,84.6z"/>
		<path fill="#231F20" d="M146,84.4c0,0.1,0.2,0.3,0.3,0.3c0,0,0.1,0,0.1,0v0.6c-0.2,0.1-0.3,0.1-0.5,0.1c-0.3,0-0.6-0.4-0.6-0.7
			c-0.3,0.3-0.8,0.7-1.3,0.7c-0.9,0-1.5-0.6-1.4-1.6c0.1-0.8,0.4-1.2,0.9-1.3c0.7-0.3,1.1-0.2,1.5-0.3c0.1,0,0.3-0.1,0.3-0.4v-0.6
			c-0.1-0.4-0.6-0.5-1.1-0.5c-0.8,0-0.8,0.7-0.8,0.9h-0.6l0-0.4c0-0.3,0.2-0.7,0.7-1c0.2-0.1,0.5-0.2,0.8-0.2c0.2,0,0.5,0,0.7,0.1
			c0.5,0.1,1,0.5,1,1V84.4z M145.3,82.7c-0.5,0.3-1.3,0.2-1.7,0.5c-0.1,0.1-0.4,0.3-0.4,0.7c0,0.6,0.4,0.9,0.7,0.9
			c0.9,0,1.3-0.8,1.3-1V82.7z"/>
		<path fill="#231F20" d="M150.5,78.2v7h-0.6v-0.6c-0.1,0.2-0.3,0.4-0.6,0.6c-0.1,0.1-0.4,0.2-0.7,0.2c-0.3,0-0.6-0.1-0.8-0.2
			c-0.6-0.4-0.9-1.3-1-2.2c-0.1-0.9,0.1-1.9,0.5-2.4c0.4-0.5,0.8-0.7,1.2-0.6c0.4,0,0.7,0.2,0.9,0.3c0.2,0.1,0.3,0.3,0.4,0.4h0v-2.6
			H150.5z M148.8,84.6c0.3,0,0.6-0.2,0.8-0.5c0.5-1.1,0.2-2.4,0-2.8c-0.2-0.3-0.5-0.5-0.8-0.5c-0.3,0-0.7,0.1-0.9,0.5
			c-0.3,0.6-0.4,2,0.1,2.9C148.1,84.5,148.5,84.6,148.8,84.6z"/>
		<path fill="#231F20" d="M157.5,78.2h0.8l-2,7h-0.8l-2-7h0.8l1.7,5.9L157.5,78.2z"/>
		<path fill="#231F20" d="M159.5,79.2h-0.7v-1h0.7V79.2z M159.5,85.1h-0.7v-5h0.7V85.1z"/>
		<path fill="#231F20" d="M163.8,84.4c0,0.1,0.2,0.3,0.3,0.3c0,0,0.1,0,0.1,0v0.6c-0.2,0.1-0.3,0.1-0.5,0.1c-0.3,0-0.6-0.4-0.6-0.7
			c-0.3,0.3-0.8,0.7-1.3,0.7c-0.9,0-1.5-0.6-1.4-1.6c0-0.8,0.4-1.2,0.9-1.3c0.8-0.3,1.1-0.2,1.5-0.3c0.1,0,0.3-0.1,0.3-0.4v-0.6
			c0-0.4-0.6-0.5-1.1-0.5c-0.8,0-0.8,0.7-0.8,0.9h-0.6l0-0.4c0.1-0.3,0.3-0.7,0.7-1c0.2-0.1,0.5-0.2,0.9-0.2c0.2,0,0.4,0,0.7,0.1
			c0.5,0.1,0.9,0.5,0.9,1V84.4z M163.1,82.7c-0.5,0.3-1.3,0.2-1.7,0.5c-0.1,0.1-0.4,0.3-0.4,0.7c0,0.6,0.4,0.9,0.7,0.9
			c0.9,0,1.3-0.8,1.3-1V82.7z"/>
		<path fill="#231F20" d="M165,78.2h0.6v7H165V78.2z"/>
		<path fill="#231F20" d="M171.3,85.1l-1.6-5.7v5.7H169v-7h1l1.7,5.9l1.6-5.9h1.1v7h-0.8v-5.7l-1.6,5.7H171.3z"/>
		<path fill="#231F20" d="M176,82.9c0,0.4,0,0.6,0.2,1.1c0.2,0.3,0.4,0.6,0.9,0.6c0.8,0,1-0.8,1.1-1h0.7c-0.1,0.3-0.1,0.6-0.4,1
			c-0.3,0.5-0.8,0.7-1.4,0.7c-0.6,0-1.1-0.3-1.5-0.8c-0.3-0.4-0.4-1.2-0.4-1.9c0-0.7,0.2-1.5,0.5-1.9c0.5-0.6,1-0.8,1.5-0.8
			c0.5,0,1,0.3,1.2,0.7c0.5,0.7,0.5,1.3,0.5,2.3H176z M178.3,82.2c0-0.5-0.2-1-0.3-1.2c-0.1-0.2-0.4-0.4-0.7-0.4
			c-0.3,0-0.7,0.1-0.9,0.4c-0.1,0.1-0.3,0.7-0.4,1.2H178.3z M178.3,78.1l-1.2,1.4h-0.5l0.8-1.4H178.3z"/>
		<path fill="#231F20" d="M180.2,85.1h-0.7l1.4-2.6l-1.4-2.4h0.8l1,1.8l1-1.8h0.7l-1.4,2.4l1.4,2.6h-0.7l-1-1.9L180.2,85.1z"/>
		<path fill="#231F20" d="M184.5,79.2h-0.7v-1h0.7V79.2z M184.5,85.1h-0.7v-5h0.7V85.1z"/>
		<path fill="#231F20" d="M188.8,83.4c0,0.4-0.1,0.8-0.2,1c-0.3,0.7-1,1-1.6,0.9c-0.6,0-1.2-0.4-1.4-1.1c-0.2-0.4-0.3-1-0.3-1.7
			c0-0.7,0.2-1.4,0.6-1.9c0.3-0.5,0.8-0.7,1.3-0.7c0.4,0,0.9,0.1,1.2,0.4c0.3,0.2,0.5,0.8,0.5,1.4h-0.7c-0.1-0.5-0.2-0.8-0.4-0.9
			c-0.1-0.1-0.3-0.2-0.6-0.2c-0.2,0-0.5,0.1-0.8,0.5c-0.2,0.2-0.3,0.7-0.3,1.2c0,0.5,0,1,0.1,1.3c0.3,0.6,0.7,0.8,1,0.8
			c0.4,0,0.7-0.3,0.8-0.5c0.1-0.2,0.2-0.5,0.2-0.7H188.8z"/>
		<path fill="#231F20" d="M191.1,85.4c-0.8,0-1.9-0.5-1.9-2.7c0-2.2,1.1-2.7,1.9-2.7c0.7,0,1.9,0.4,1.9,2.7
			C193,84.9,191.9,85.4,191.1,85.4z M191.1,80.8c-0.9,0-1.2,1.1-1.2,1.9c0,0.8,0.3,1.9,1.2,1.9c0.9,0,1.2-1.1,1.2-1.9
			C192.3,81.8,192,80.8,191.1,80.8z"/>
	</g>
	<rect x="0" y="53.5" fill="#002F87" width="205.1" height="23"/>
	<g>
		<polygon fill="#FFFFFF" points="134,57.2 141.7,57.2 143.8,60 145.9,57.2 153.7,57.2 147.8,65 153.7,72.8 146,72.8 143.8,70 
			141.7,72.8 134,72.8 139.9,65 		"/>
		<polygon fill="#FFFFFF" points="94.4,57.2 94.4,72.7 101,72.7 101,65.9 104.5,72.7 107.7,65.9 107.7,72.7 114.5,72.7 114.5,57.2 
			107.4,57.2 104.5,64.5 101.5,57.2 		"/>
		<rect x="76.6" y="57.2" fill="#FFFFFF" width="7.4" height="15.5"/>
		<rect x="155.5" y="57.2" fill="#FFFFFF" width="7.4" height="15.5"/>
		<polygon fill="#FFFFFF" points="55.4,57.2 62.3,57.2 66.1,65.7 69.1,57.2 75.7,57.2 69.5,72.7 62.5,72.7 		"/>
		<path fill="#FFFFFF" d="M54.2,57.2v2.1h-6.7c-1-0.2-1.8,0.4-0.9,1.3c0,0,1.2,1.1,3.2,1.9c0,0,4.5,2.1,4.4,5.6c0,0,0,4.3-4.5,4.6
			H39.4v-2h6.8c1.3,0.2,1.7-1.1,0.8-1.8c0,0-4.8-1.9-6.6-3.8c0,0-1.3-1.1-1.3-3.2c0-2.3,1.8-4.7,4.5-4.7H54.2z"/>
		<path fill="#FFFFFF" d="M20.6,57.2v2.1h-6.9c-0.6,0-1,0.5-1,1.2l0,9.3c0,0-0.1,1,1.3,1h6.7v2H7.8c-1.2,0-2.1-0.9-2.1-2.1V60.2
			c0-1.7,1.3-3,2.9-3H20.6z"/>
		<path fill="#FFFFFF" d="M180.3,57.2v2.1h-6.9c-0.6,0-1,0.5-1,1.2v9.3c0,0-0.1,1,1.3,1h6.7v2h-12.8c-1.2,0-2.1-0.9-2.1-2.2V60.2
			c0-1.7,1.3-3,2.9-3H180.3z"/>
		<g>
			<g>
				<path fill="#FFFFFF" d="M196.5,57.3h-11.3c-1.7,0-3.1,1.4-3.1,3.1v9.3c0,1.7,1.4,3.1,3.1,3.1h11.3c1.7,0,3.1-1.4,3.1-3.1v-9.3
					C199.6,58.7,198.2,57.3,196.5,57.3z M192.4,70.2c0,0.3-0.2,0.5-0.5,0.5h-2c-0.3,0-0.5-0.2-0.5-0.5V59.9c0-0.3,0.2-0.5,0.5-0.5h2
					c0.3,0,0.5,0.2,0.5,0.5V70.2z"/>
			</g>
		</g>
		<g>
			<g>
				<polygon fill="#FFFFFF" points="132,59.3 132,57.2 117.1,57.2 117.1,72.8 132,72.8 132,70.8 124.3,70.8 124.3,65.8 132,65.8 
					132,63.7 124.3,63.7 124.3,59.3 				"/>
			</g>
		</g>
		<g>
			<g>
				<polygon fill="#FFFFFF" points="37.6,59.3 37.6,57.2 22.7,57.2 22.7,72.7 37.6,72.7 37.6,70.8 29.9,70.8 29.9,65.8 37.6,65.8 
					37.6,63.7 29.9,63.7 29.9,59.3 				"/>
			</g>
		</g>
	</g>
	<g>
		<g>
			<polygon fill="#A6A8AB" points="122.2,25.4 102.6,44.9 82.9,25.4 81.4,26.8 102.6,47.9 123.7,26.8 			"/>
			<polygon fill="#A6A8AB" points="106.1,6.3 107.5,7.8 108.9,6.4 107.4,5 			"/>
			<polygon fill="#A6A8AB" points="113.1,13.3 114.6,14.8 116,13.5 114.5,12 			"/>
			<polygon fill="#A6A8AB" points="90.6,12 89.1,13.5 90.5,14.8 92,13.4 			"/>
			<polygon fill="#A6A8AB" points="120.2,20.4 121.7,21.8 123,20.5 121.6,19 			"/>
			<polygon fill="#A6A8AB" points="83.6,19 82.1,20.5 83.5,21.8 84.9,20.4 			"/>
			<polygon fill="#A6A8AB" points="97.7,5 96.2,6.4 97.6,7.8 99,6.3 			"/>
		</g>
		<g>
			<polygon fill="#231F20" points="120.2,20.4 102.6,37.9 84.9,20.4 81.4,23.9 102.6,44.9 123.7,23.9 			"/>
			<polygon fill="#231F20" points="109.6,9.8 106.1,6.3 102.6,9.8 99,6.3 95.5,9.8 102.6,16.8 			"/>
			<polygon fill="#231F20" points="116.6,16.9 113.1,13.3 102.6,23.8 92,13.4 88.5,16.9 102.5,30.9 			"/>
		</g>
		<g>
			<polygon fill="#F2CE1E" points="116,10.5 112.5,7 102.6,16.8 92.7,7 89.1,10.5 102.6,23.8 			"/>
			<polygon fill="#F2CE1E" points="119.5,14 102.5,30.9 85.6,14 82.1,17.5 102.6,37.9 123,17.5 			"/>
			<polygon fill="#F2CE1E" points="108.9,3.5 105.4,0 102.6,2.8 99.7,0 96.2,3.5 102.6,9.8 			"/>
		</g>
	</g>
</g>
</svg>
