<?xml version="1.0" encoding="utf-8"?>
<!-- Generator: Adobe Illustrator 18.1.1, SVG Export Plug-In . SVG Version: 6.00 Build 0)  -->
<svg version="1.1" id="Capa_1" xmlns="http://www.w3.org/2000/svg" xmlns:xlink="http://www.w3.org/1999/xlink" x="0px" y="0px"
	 viewBox="0 0 112.6 81.8" enable-background="new 0 0 112.6 81.8" xml:space="preserve">
<path fill="#002F87" d="M78.6,5.2H31.3c-4.4,0-7.9,3.5-7.9,7.9v31.5c0,4.4,3.5,7.9,7.9,7.9h47.3c4.4,0,7.9-3.5,7.9-7.9V13
	C86.5,8.7,83,5.2,78.6,5.2z M65.7,26.2l16.7-14.3c0.1,0.4,0.2,0.7,0.2,1.1v31.5c0,0.3-0.1,0.5-0.2,0.8L65.7,26.2z M78.6,9.1
	c0.3,0,0.5,0.1,0.7,0.1L55,30.1L30.6,9.2c0.2,0,0.5-0.1,0.7-0.1H78.6z M27.6,45.3c-0.1-0.3-0.2-0.5-0.2-0.8V13
	c0-0.4,0.1-0.8,0.2-1.1l16.7,14.3L27.6,45.3z M31.3,48.5c-0.4,0-0.8-0.1-1.1-0.2l17.1-19.5l6.4,5.5c0.4,0.3,0.8,0.5,1.3,0.5
	c0.5,0,0.9-0.2,1.3-0.5l6.4-5.5l17.1,19.5c-0.4,0.1-0.7,0.2-1.1,0.2H31.3z"/>
</svg>
