<?xml version="1.0" encoding="utf-8"?>
<!-- Generator: Adobe Illustrator 17.1.0, SVG Export Plug-In . SVG Version: 6.00 Build 0)  -->
<!DOCTYPE svg PUBLIC "-//W3C//DTD SVG 1.1//EN" "http://www.w3.org/Graphics/SVG/1.1/DTD/svg11.dtd">
<svg version="1.1" id="Capa_1" xmlns="http://www.w3.org/2000/svg" xmlns:xlink="http://www.w3.org/1999/xlink" x="0px" y="0px"
	 viewBox="0 0 76 64" enable-background="new 0 0 76 64" xml:space="preserve">
<g>
	<g>
		<circle fill="#002F87" cx="20.9" cy="48.7" r="4"/>
		<path fill="#002F87" d="M25.3,26.9c-0.6,0.4-5,6.7-5,6.7c-0.9,2,0.9,1.8,1,1.7c0.1,0,5.7,0,10.7,0V26c-1,0-4.4,0-4.7,0
			C26.5,26,25.9,26.4,25.3,26.9z"/>
		<circle fill="#002F87" cx="59.3" cy="48.7" r="4"/>
		<path fill="#002F87" d="M45.4,27.9c-1.8-1.4-3.2-1.9-3.2-1.9S38,26,35,26v9.2c7,0,15.8,0,16.3,0c1,0,0.6-1.3,0.6-1.3
			S47.1,29.3,45.4,27.9z"/>
		<path fill="#002F87" d="M73.5,11H56V7.6C56,3.2,52.7,0,48.3,0H31.1C26.6,0,23,3.2,23,7.6V11H2.9C1.3,11,0,12.3,0,13.9v47.7
			C0,63.2,1.3,64,2.9,64h70.6c1.6,0,2.5-0.8,2.5-2.4V13.9C76,12.3,75.1,11,73.5,11z M30,7.6C30,6.8,30.3,6,31.1,6h17.2
			C49,6,50,6.8,50,7.6V11H30V7.6z M71,47.2c-1,1-3.2,2.8-3.2,2.8s-0.7,0-1.1,0c-0.6,3.5-3.7,6.2-7.4,6.2c-3.6,0-6.6-2.6-7.3-6
			c-7.4,0.1-16.3,0.3-23.9,0.4c-0.8,3.2-3.7,5.6-7.2,5.6c-3.4,0-6.3-2.3-7.2-5.4c-1,0-1.6,0-1.7,0c-1,0-4-3-3.9-3.7
			c0.2-0.7,0-5.7,0-7.6c0-1.9,1.6-3.4,1.6-3.4l6.2-3c0,0,4.1-5,5.8-7.7c1.7-2.6,4.2-3,4.2-3s12.1,0.2,15.3,0.2
			c3.2,0,4.5,1.7,4.5,1.7l11.4,10.4c0,0,7.9,1.7,10.6,2.3c2.7,0.6,3.2,2.6,3.2,2.6V47.2z"/>
	</g>
</g>
</svg>
