<?xml version="1.0" encoding="utf-8"?>
<!-- Generator: Adobe Illustrator 17.1.0, SVG Export Plug-In . SVG Version: 6.00 Build 0)  -->
<!DOCTYPE svg PUBLIC "-//W3C//DTD SVG 1.1//EN" "http://www.w3.org/Graphics/SVG/1.1/DTD/svg11.dtd">
<svg version="1.1" id="Capa_1" xmlns="http://www.w3.org/2000/svg" xmlns:xlink="http://www.w3.org/1999/xlink" x="0px" y="0px"
	 viewBox="0 0 65.8 71.6" enable-background="new 0 0 65.8 71.6" xml:space="preserve">
<g>
	<g>
		<g>
			<path fill="#002F87" d="M49.5,57.3l2.6-2.6v13.9c0,1.7-1.4,3-3,3H3c-1.7,0-3-1.4-3-3V7.8c0-1.7,1.4-3,3-3h9.7l-0.4,1.6
				c0,0.1,0,0.3,0,0.4v6.9c0,1,0.8,1.7,1.7,1.7H38c1,0,1.7-0.8,1.7-1.7V6.7c0-0.1,0-0.2,0-0.4l-0.4-1.6h9.7c1.7,0,3,1.4,3,3v20.6
				L49.5,31V7.8c0-0.2-0.2-0.4-0.4-0.4h-6.7v6.3c0,2.4-1.9,4.3-4.3,4.3H14.1c-2.4,0-4.3-1.9-4.3-4.3V7.4H3c-0.2,0-0.4,0.2-0.4,0.4
				v60.8C2.6,68.8,2.8,69,3,69h46c0.2,0,0.4-0.2,0.4-0.4V57.3z M15.5,13.8h21c0.8,0,1.5-0.7,1.5-1.5V6.1c0-0.8-0.7-1.5-1.5-1.5h-5.7
				C30.8,2.1,28.7,0,26,0c-2.7,0-4.8,2.1-4.8,4.6h-5.7c-0.8,0-1.5,0.7-1.5,1.5v6.1C14,13.1,14.7,13.8,15.5,13.8L15.5,13.8z M22.4,41
				l-8.2-8.2l-3.4,3.4l11.6,11.6l18.8-18.8l-3.4-3.4L22.4,41z M65.2,34l-5.9-5.9c-0.9-0.9-2.4-0.7-3.4,0.3l-3.3,3.3l9.1,9.1l3.3-3.3
				C65.9,36.4,66,34.9,65.2,34L65.2,34z M51.1,33.1l9.1,9.1L38.5,63.8c-0.1,0.1-0.4,0.4-0.8,0.5c0,0-0.1,0-0.1,0.1L26.3,68
				c-0.3,0.1-0.6,0-0.8-0.2c-0.2-0.2-0.3-0.5-0.2-0.8l3.6-11.3c0,0,0-0.1,0.1-0.1c0.1-0.4,0.4-0.7,0.5-0.8L51.1,33.1z M35.7,63.1
				l-5.6-5.6l-1.5,4.7l2.4,2.4L35.7,63.1z M50.7,36.7c-0.3-0.3-0.8-0.3-1.2,0L32.7,53.6c-0.3,0.3-0.3,0.8,0,1.2
				c0.3,0.3,0.8,0.3,1.2,0l16.9-16.9C51,37.6,51,37.1,50.7,36.7L50.7,36.7z M50.7,36.7"/>
		</g>
	</g>
</g>
</svg>
